M48
; DRILL file {KiCad 7.0.2} date Sun Jul  9 15:50:54 2023
; FORMAT={-:-/ absolute / metric / decimal}
; #@! TF.CreationDate,2023-07-09T15:50:54+03:00
; #@! TF.GenerationSoftware,Kicad,Pcbnew,7.0.2
; #@! TF.FileFunction,Plated,1,4,PTH
FMAT,2
METRIC
; #@! TA.AperFunction,Plated,PTH,ViaDrill
T1C0.300
; #@! TA.AperFunction,Plated,PTH,ViaDrill
T2C0.400
; #@! TA.AperFunction,Plated,PTH,ComponentDrill
T3C0.600
; #@! TA.AperFunction,Plated,PTH,ComponentDrill
T4C0.800
; #@! TA.AperFunction,Plated,PTH,ComponentDrill
T5C0.850
; #@! TA.AperFunction,Plated,PTH,ComponentDrill
T6C0.950
; #@! TA.AperFunction,Plated,PTH,ComponentDrill
T7C1.000
; #@! TA.AperFunction,Plated,PTH,ComponentDrill
T8C1.200
; #@! TA.AperFunction,Plated,PTH,ComponentDrill
T9C1.300
%
G90
G05
T1
X120.75Y-86.5
X120.75Y-90.0
X120.75Y-95.25
X123.775Y-113.8
X123.925Y-105.4
X124.575Y-60.2
X124.75Y-95.25
X125.0Y-90.0
X125.0Y-98.0
X125.609Y-76.925
X125.609Y-77.775
X127.1Y-60.2
X129.3Y-69.1
X129.44Y-116.17
X130.075Y-110.525
X130.3Y-67.6
X130.5Y-90.0
X130.9Y-69.1
X132.6Y-61.2
X132.75Y-95.25
X133.3Y-62.0
X133.9Y-61.2
X134.6Y-62.0
X134.6Y-118.94
X136.0Y-90.25
X136.5Y-103.25
X138.599Y-82.651
X138.6Y-87.8
X139.0Y-99.5
X139.0Y-102.75
X139.3Y-96.475
X139.6Y-87.375
X139.62Y-82.65
X139.7Y-114.35
X140.2Y-82.1
X140.8Y-69.3
X140.9Y-58.2
X141.1Y-61.2
X141.5Y-58.6
X141.5Y-59.6
X141.5Y-60.4
X141.525Y-99.0
X142.3Y-58.6
X142.3Y-59.6
X142.33Y-91.25
X142.5Y-82.2
X143.25Y-99.5
X144.2Y-70.5
X144.4Y-82.65
X145.24Y-94.81
X145.425Y-89.675
X145.6Y-93.775
X145.75Y-99.5
X145.75Y-104.0
X146.175Y-116.5
X146.25Y-114.325
X146.46Y-95.41
X146.5Y-91.25
X146.7Y-76.5
X146.95Y-98.95
X147.3Y-77.1
X147.8Y-76.5
X148.25Y-98.872
X148.3Y-77.1
X148.75Y-104.0
X148.8Y-76.5
X149.35Y-98.875
X150.175Y-122.475
X150.658Y-98.6
X150.97Y-102.633
X151.2Y-82.2
X152.22Y-103.905
X153.25Y-94.75
X153.4Y-76.2
X153.5Y-74.8
X153.5Y-82.2
X153.75Y-102.585
X154.0Y-98.9
X154.17Y-103.835
X155.0Y-73.5
X155.0Y-74.8
X155.0Y-76.2
X155.1Y-68.7
X155.1Y-69.8
X155.25Y-90.75
X155.65Y-87.29
X156.25Y-80.0
X156.6Y-117.2
X156.8Y-61.2
X157.0Y-74.8
X157.0Y-76.3
X157.5Y-66.5
X157.6Y-61.2
X158.1Y-58.8
X158.1Y-59.6
X158.1Y-60.5
X158.4Y-68.7
X158.4Y-69.9
X158.41Y-85.4
X158.7Y-61.8
X158.8Y-58.8
X158.8Y-59.6
X158.8Y-60.5
X159.0Y-74.8
X160.2Y-68.0
X160.2Y-69.4
X160.475Y-80.5
X160.525Y-54.875
X160.8Y-75.1
X160.9Y-73.4
X161.5Y-56.9
X161.6Y-69.5
X161.8Y-76.3
X162.195Y-83.394
X162.2Y-80.6
X163.3Y-56.9
X163.7Y-69.5
X163.8Y-81.903
X164.5Y-76.4
X164.625Y-122.475
X165.6Y-69.5
X166.016Y-81.916
X166.04Y-88.55
X166.249Y-84.5
X166.6Y-73.4
X166.6Y-75.1
X167.0Y-107.0
X167.428Y-82.757
X167.7Y-69.5
X167.7Y-78.8
X168.096Y-87.803
X168.1Y-84.7
X168.15Y-111.525
X168.458Y-92.842
X168.55Y-74.5
X168.575Y-73.475
X168.75Y-79.0
X168.875Y-55.7
X169.5Y-69.7
X169.5Y-71.3
X169.525Y-116.625
X169.75Y-93.9
X170.52Y-83.09
X170.59Y-95.974
X170.662Y-96.771
X171.371Y-80.222
X171.46Y-97.35
X171.6Y-59.4
X171.75Y-107.0
X171.892Y-98.069
X171.964Y-85.339
X172.199Y-80.242
X172.33Y-98.863
X172.41Y-82.29
X172.986Y-80.099
X173.25Y-115.125
X173.4Y-82.501
X173.51Y-92.0
X173.787Y-91.191
X173.9Y-90.399
X174.15Y-79.1
X174.331Y-94.524
X174.52Y-98.67
X174.8Y-93.7
X175.004Y-83.129
X175.063Y-87.337
X175.072Y-88.195
X175.2Y-94.5
X175.26Y-99.25
X175.304Y-91.6
X175.475Y-79.175
X175.475Y-84.95
X175.557Y-83.705
X175.854Y-87.785
X175.9Y-78.299
X176.0Y-94.501
X176.1Y-91.528
X176.15Y-98.989
X176.35Y-83.6
X176.575Y-79.175
X176.687Y-87.8
X176.85Y-94.501
X176.86Y-99.43
X177.0Y-85.5
X177.0Y-107.0
X177.1Y-83.102
X177.4Y-80.25
X177.5Y-72.75
X177.6Y-59.1
X177.69Y-99.389
X177.75Y-67.25
X177.764Y-78.299
X177.8Y-63.0
X177.9Y-94.5
X178.3Y-75.7
X178.427Y-99.819
X178.5Y-68.25
X178.5Y-72.75
X178.875Y-122.55
X179.101Y-83.199
X179.2Y-63.0
X179.225Y-93.525
X179.226Y-99.789
X179.25Y-67.25
X179.25Y-69.25
X179.8Y-78.4
X179.828Y-94.051
X179.9Y-83.151
X180.059Y-84.293
X180.077Y-87.41
X180.077Y-88.21
X180.1Y-85.1
X180.101Y-86.515
X180.7Y-63.0
X180.7Y-78.8
X180.75Y-69.25
X181.25Y-90.4
X181.325Y-92.775
X181.5Y-79.9
X181.543Y-91.149
X181.7Y-81.05
X181.9Y-74.8
X182.1Y-60.0
X182.15Y-87.3
X182.2Y-108.2
X182.273Y-85.257
X182.625Y-110.0
X182.9Y-61.1
X182.994Y-94.451
X183.8Y-60.0
X183.99Y-98.989
X184.225Y-88.3
X184.3Y-89.6
X184.629Y-94.804
X184.81Y-99.069
X184.9Y-61.1
X184.9Y-91.625
X185.17Y-111.06
X186.15Y-86.55
X186.2Y-85.4
X186.276Y-76.524
X186.8Y-61.1
X186.81Y-108.674
X186.875Y-91.65
X187.125Y-88.325
X187.161Y-83.818
X187.6Y-100.1
X187.667Y-91.767
X188.0Y-68.4
X188.0Y-69.8
X188.3Y-54.9
X188.4Y-61.1
X188.4Y-62.7
X188.5Y-64.5
X188.7Y-55.9
X188.7Y-57.8
X188.7Y-66.7
X189.0Y-84.35
X189.602Y-86.44
X189.75Y-101.85
X189.75Y-108.5
X190.2Y-70.6
X190.203Y-85.839
X190.275Y-123.95
X190.4Y-84.4
X191.0Y-101.75
X191.875Y-80.9
X192.05Y-76.2
X192.95Y-123.95
X193.25Y-85.5
X194.09Y-78.5
X194.5Y-108.5
X195.75Y-101.75
X196.15Y-96.125
X196.39Y-71.75
X196.8Y-70.57
X196.9Y-63.8
X197.189Y-71.762
X197.86Y-87.33
X197.88Y-70.93
X198.1Y-59.3
X198.2Y-60.6
X198.64Y-70.51
X199.375Y-92.65
X199.75Y-108.5
X200.38Y-64.15
X200.9Y-57.4
X201.0Y-101.75
X202.55Y-101.2
X203.736Y-86.0
X204.725Y-123.85
X205.125Y-108.5
X205.799Y-74.7
X206.15Y-55.25
X207.05Y-79.625
X207.1Y-76.3
X207.175Y-86.75
X207.975Y-102.45
X211.0Y-68.2
X212.0Y-91.25
X212.2Y-68.2
X212.375Y-123.85
X212.775Y-61.95
X212.775Y-63.875
X213.05Y-102.45
X213.3Y-68.15
X214.0Y-108.45
X214.75Y-89.0
X214.75Y-91.25
X215.6Y-63.75
X216.29Y-68.21
X218.4Y-88.0
X219.175Y-75.1
X219.225Y-108.425
X219.25Y-90.75
X219.25Y-95.25
X219.25Y-102.5
X219.25Y-107.25
X219.25Y-112.5
X219.5Y-74.0
X220.3Y-74.2
X221.07Y-77.98
X221.16Y-83.9
X223.5Y-102.5
X227.925Y-53.525
X227.925Y-57.375
X227.95Y-60.2
X228.25Y-102.5
X228.525Y-83.775
X228.525Y-90.1
X228.65Y-76.4
X229.4Y-123.85
X231.25Y-99.81
X233.5Y-102.5
X237.9Y-110.8
X238.0Y-102.5
X238.0Y-107.25
X238.225Y-64.025
X239.0Y-53.6
X239.175Y-90.15
X239.4Y-57.4
X239.4Y-61.8
X239.4Y-66.2
X239.8Y-68.8
X240.0Y-74.6
X240.0Y-83.8
X240.0Y-93.2
X240.0Y-99.2
X242.0Y-123.575
X246.6Y-57.4
X248.75Y-121.1
X248.8Y-92.6
T2
X119.95Y-122.65
X119.95Y-124.0
X119.95Y-125.5
X120.0Y-57.0
X120.0Y-120.45
X121.5Y-58.0
X121.5Y-60.0
X124.0Y-119.5
X124.5Y-57.0
X125.0Y-109.0
X125.0Y-113.0
X125.5Y-79.0
X125.5Y-80.5
X125.5Y-119.5
X127.0Y-119.5
X127.21Y-58.24
X127.5Y-95.5
X127.5Y-105.5
X127.5Y-109.0
X127.5Y-113.0
X128.0Y-90.0
X128.5Y-119.5
X128.65Y-70.42
X129.5Y-79.0
X129.5Y-80.5
X129.5Y-119.5
X130.0Y-109.0
X130.0Y-113.0
X130.25Y-105.5
X131.0Y-119.5
X131.5Y-81.9
X131.826Y-66.232
X132.5Y-119.5
X133.5Y-119.5
X133.9Y-73.689
X133.9Y-107.2
X133.975Y-105.28
X134.25Y-109.05
X134.5Y-90.0
X135.17Y-57.44
X135.17Y-67.56
X135.5Y-96.0
X136.0Y-76.0
X136.31Y-55.01
X136.8Y-67.0
X137.5Y-75.5
X138.5Y-120.5
X138.5Y-122.5
X138.5Y-124.0
X138.5Y-125.5
X138.5Y-127.0
X139.0Y-80.5
X139.76Y-55.03
X139.8Y-107.3
X139.9Y-115.85
X140.0Y-103.75
X140.5Y-90.0
X142.22Y-57.41
X142.4Y-62.1
X142.85Y-85.35
X142.95Y-55.03
X143.75Y-104.0
X144.8Y-108.6
X145.292Y-78.573
X145.56Y-79.536
X146.0Y-71.5
X146.067Y-80.833
X146.465Y-86.129
X147.7Y-73.8
X148.0Y-71.5
X148.075Y-56.65
X148.85Y-89.1
X148.9Y-92.45
X149.1Y-81.4
X149.325Y-56.65
X149.5Y-74.0
X150.0Y-71.5
X150.0Y-125.5
X150.325Y-59.1
X150.4Y-58.125
X150.8Y-69.6
X151.1Y-80.4
X151.6Y-73.94
X152.5Y-106.0
X152.5Y-122.5
X152.5Y-125.5
X152.63Y-73.781
X152.775Y-54.775
X154.15Y-59.9
X154.225Y-58.7
X154.95Y-54.225
X155.0Y-52.875
X155.875Y-89.65
X156.0Y-106.0
X157.075Y-54.325
X157.5Y-80.5
X160.0Y-99.3
X161.5Y-91.0
X162.0Y-98.7
X163.0Y-122.5
X163.0Y-125.5
X163.4Y-98.9
X164.75Y-107.0
X166.0Y-125.5
X168.3Y-101.1
X168.75Y-89.45
X169.35Y-101.55
X170.867Y-98.058
X170.9Y-101.9
X177.0Y-122.5
X177.0Y-125.5
X179.75Y-107.0
X180.5Y-125.5
X182.5Y-78.5
X185.0Y-78.999
X185.5Y-112.5
X186.0Y-124.0
X186.6Y-56.6
X186.6Y-58.0
X186.6Y-59.2
X187.0Y-71.0
X189.0Y-76.0
X189.5Y-112.5
X191.0Y-56.0
X191.0Y-59.5
X191.0Y-62.5
X192.0Y-79.5
X192.0Y-85.5
X192.5Y-89.75
X193.0Y-101.5
X193.99Y-83.8
X195.0Y-56.0
X195.0Y-59.5
X195.0Y-62.5
X195.4Y-75.9
X196.0Y-124.0
X196.5Y-106.0
X196.75Y-83.5
X196.75Y-85.0
X198.0Y-101.5
X200.0Y-106.0
X201.0Y-124.0
X201.2Y-66.37
X201.25Y-61.5
X203.0Y-92.25
X203.0Y-94.0
X203.5Y-66.25
X205.3Y-70.6
X207.0Y-124.0
X207.75Y-88.75
X208.5Y-76.5
X209.05Y-62.35
X209.05Y-64.4
X209.15Y-66.45
X209.5Y-97.25
X209.95Y-76.9
X210.5Y-102.5
X210.7Y-85.2
X211.5Y-88.75
X211.6Y-56.7
X211.65Y-54.05
X211.75Y-97.25
X212.5Y-52.5
X213.75Y-106.25
X214.75Y-102.5
X214.9Y-85.3
X215.6Y-57.0
X215.9Y-74.4
X217.5Y-51.0
X217.5Y-55.5
X217.5Y-124.0
X217.55Y-57.0
X219.0Y-105.0
X221.1Y-76.3
X221.5Y-124.0
X226.5Y-90.0
X227.0Y-96.0
X227.0Y-124.0
X227.5Y-69.9
X228.5Y-105.0
X228.5Y-107.0
X228.5Y-109.5
X231.6Y-70.0
X232.5Y-98.0
X233.0Y-115.0
X233.0Y-118.0
X233.5Y-105.0
X233.5Y-107.0
X233.5Y-109.5
X233.5Y-124.0
X235.0Y-90.0
X237.0Y-98.0
X237.5Y-90.0
X238.0Y-105.0
X238.0Y-115.0
X238.0Y-117.5
X238.0Y-124.0
X239.0Y-51.5
X239.0Y-98.0
X240.0Y-85.5
X240.0Y-87.5
X241.0Y-54.0
X241.0Y-57.0
X241.0Y-59.0
X241.5Y-51.5
X242.0Y-120.5
X242.0Y-127.5
X243.5Y-59.0
X243.5Y-72.5
X243.5Y-75.5
X243.5Y-83.0
X243.5Y-85.5
X245.0Y-120.5
X246.5Y-59.0
X246.6Y-111.15
X247.0Y-114.9
X247.0Y-116.6
X248.5Y-59.0
X248.95Y-115.5
X249.1Y-99.1
T5
X123.487Y-75.175
X123.487Y-80.175
T6
X213.225Y-77.85
X213.225Y-80.35
X213.225Y-82.85
X213.225Y-85.35
X223.475Y-77.925
X223.475Y-80.425
X223.475Y-82.925
X223.475Y-85.425
X223.5Y-64.0
X223.5Y-66.5
X223.5Y-69.0
X223.5Y-71.5
X234.4Y-78.1
X234.4Y-80.6
X234.4Y-83.1
X234.4Y-85.6
X234.475Y-64.025
X234.475Y-66.525
X234.475Y-69.025
X234.475Y-71.525
X245.3Y-91.7
X245.3Y-94.2
X245.3Y-96.7
X245.3Y-99.2
X245.35Y-77.95
X245.35Y-80.45
X245.35Y-82.95
X245.35Y-85.45
X245.425Y-64.075
X245.425Y-66.575
X245.425Y-69.075
X245.425Y-71.575
T7
X148.56Y-111.26
X148.56Y-113.8
X148.56Y-116.34
X150.5Y-85.9
X150.5Y-88.44
X150.5Y-90.98
X150.5Y-93.52
X151.1Y-111.26
X151.1Y-113.8
X151.1Y-116.34
X155.57Y-94.46
X155.57Y-97.0
X158.11Y-94.46
X158.11Y-97.0
X160.65Y-94.46
X160.65Y-97.0
X162.31Y-111.26
X162.31Y-113.8
X162.31Y-116.34
X163.19Y-94.46
X163.19Y-97.0
X164.85Y-111.26
X164.85Y-113.8
X164.85Y-116.34
X165.73Y-94.46
X165.73Y-97.0
X176.0Y-111.375
X176.0Y-113.915
X176.0Y-116.455
X178.54Y-111.375
X178.54Y-113.915
X178.54Y-116.455
X200.025Y-74.075
X200.025Y-76.615
X200.025Y-79.155
X200.025Y-81.695
X200.025Y-84.235
X200.025Y-86.775
X200.025Y-89.315
X202.565Y-74.075
X202.565Y-76.615
X202.565Y-79.155
X202.565Y-81.695
X202.565Y-84.235
X202.565Y-86.775
X202.565Y-89.315
T8
X142.55Y-121.9
X146.05Y-121.9
X156.15Y-122.025
X159.65Y-122.025
X170.2Y-122.0
X173.7Y-122.0
X184.0Y-122.3
X187.5Y-122.3
X221.4Y-56.025
X224.9Y-56.025
X231.25Y-56.1
X234.75Y-56.1
X243.15Y-104.825
X243.15Y-108.325
X243.2Y-113.65
X243.2Y-117.15
T9
X192.4Y-96.037
X192.4Y-106.197
X192.4Y-113.817
X193.5Y-120.8
X198.5Y-120.8
X200.02Y-96.037
X200.02Y-111.277
X203.5Y-120.8
X206.9Y-96.025
X206.9Y-106.185
X206.9Y-113.805
X209.8Y-120.787
X214.52Y-96.025
X214.52Y-111.265
X214.8Y-120.787
X219.8Y-120.787
X222.29Y-95.9
X222.29Y-106.06
X222.29Y-113.68
X226.0Y-120.662
X229.91Y-95.9
X229.91Y-111.14
X231.0Y-120.662
X236.0Y-120.662
T3
G00X120.438Y-74.175
M15
G01X121.137Y-74.175
M16
G05
G00X121.137Y-81.175
M15
G01X120.438Y-81.175
M16
G05
T4
G00X122.4Y-62.7
M15
G01X122.4Y-64.9
M16
G05
G00X124.1Y-68.6
M15
G01X126.3Y-68.6
M16
G05
G00X128.2Y-62.5
M15
G01X128.2Y-65.1
M16
G05
T0
M30
