G04 #@! TF.GenerationSoftware,KiCad,Pcbnew,7.0.2*
G04 #@! TF.CreationDate,2023-07-09T15:50:48+03:00*
G04 #@! TF.ProjectId,RpiPico_Agriboard,52706950-6963-46f5-9f41-677269626f61,rev?*
G04 #@! TF.SameCoordinates,Original*
G04 #@! TF.FileFunction,Soldermask,Top*
G04 #@! TF.FilePolarity,Negative*
%FSLAX46Y46*%
G04 Gerber Fmt 4.6, Leading zero omitted, Abs format (unit mm)*
G04 Created by KiCad (PCBNEW 7.0.2) date 2023-07-09 15:50:48*
%MOMM*%
%LPD*%
G01*
G04 APERTURE LIST*
G04 Aperture macros list*
%AMRoundRect*
0 Rectangle with rounded corners*
0 $1 Rounding radius*
0 $2 $3 $4 $5 $6 $7 $8 $9 X,Y pos of 4 corners*
0 Add a 4 corners polygon primitive as box body*
4,1,4,$2,$3,$4,$5,$6,$7,$8,$9,$2,$3,0*
0 Add four circle primitives for the rounded corners*
1,1,$1+$1,$2,$3*
1,1,$1+$1,$4,$5*
1,1,$1+$1,$6,$7*
1,1,$1+$1,$8,$9*
0 Add four rect primitives between the rounded corners*
20,1,$1+$1,$2,$3,$4,$5,0*
20,1,$1+$1,$4,$5,$6,$7,0*
20,1,$1+$1,$6,$7,$8,$9,0*
20,1,$1+$1,$8,$9,$2,$3,0*%
%AMRotRect*
0 Rectangle, with rotation*
0 The origin of the aperture is its center*
0 $1 length*
0 $2 width*
0 $3 Rotation angle, in degrees counterclockwise*
0 Add horizontal line*
21,1,$1,$2,0,0,$3*%
G04 Aperture macros list end*
%ADD10C,0.010000*%
%ADD11RoundRect,0.218750X-0.218750X-0.256250X0.218750X-0.256250X0.218750X0.256250X-0.218750X0.256250X0*%
%ADD12RoundRect,0.135000X-0.135000X-0.185000X0.135000X-0.185000X0.135000X0.185000X-0.135000X0.185000X0*%
%ADD13RoundRect,0.140000X0.140000X0.170000X-0.140000X0.170000X-0.140000X-0.170000X0.140000X-0.170000X0*%
%ADD14R,2.400000X2.400000*%
%ADD15C,2.400000*%
%ADD16RoundRect,0.150000X-0.150000X0.825000X-0.150000X-0.825000X0.150000X-0.825000X0.150000X0.825000X0*%
%ADD17RoundRect,0.135000X0.185000X-0.135000X0.185000X0.135000X-0.185000X0.135000X-0.185000X-0.135000X0*%
%ADD18RoundRect,0.225000X0.225000X0.250000X-0.225000X0.250000X-0.225000X-0.250000X0.225000X-0.250000X0*%
%ADD19RoundRect,0.250000X0.250000X0.475000X-0.250000X0.475000X-0.250000X-0.475000X0.250000X-0.475000X0*%
%ADD20R,2.300000X2.300000*%
%ADD21C,2.300000*%
%ADD22RoundRect,0.225000X-0.225000X-0.250000X0.225000X-0.250000X0.225000X0.250000X-0.225000X0.250000X0*%
%ADD23R,1.700000X1.700000*%
%ADD24O,1.700000X1.700000*%
%ADD25RoundRect,0.140000X-0.170000X0.140000X-0.170000X-0.140000X0.170000X-0.140000X0.170000X0.140000X0*%
%ADD26R,1.350000X0.400000*%
%ADD27O,1.900000X1.200000*%
%ADD28R,1.900000X1.200000*%
%ADD29C,1.450000*%
%ADD30R,1.900000X1.500000*%
%ADD31C,1.000000*%
%ADD32RoundRect,0.135000X-0.185000X0.135000X-0.185000X-0.135000X0.185000X-0.135000X0.185000X0.135000X0*%
%ADD33RoundRect,0.135000X0.135000X0.185000X-0.135000X0.185000X-0.135000X-0.185000X0.135000X-0.185000X0*%
%ADD34R,0.900000X1.200000*%
%ADD35RoundRect,0.218750X0.256250X-0.218750X0.256250X0.218750X-0.256250X0.218750X-0.256250X-0.218750X0*%
%ADD36R,2.000000X1.500000*%
%ADD37R,2.000000X3.800000*%
%ADD38RoundRect,0.150000X0.587500X0.150000X-0.587500X0.150000X-0.587500X-0.150000X0.587500X-0.150000X0*%
%ADD39R,1.050000X0.650000*%
%ADD40R,0.700000X0.510000*%
%ADD41RoundRect,0.250000X-0.725000X0.600000X-0.725000X-0.600000X0.725000X-0.600000X0.725000X0.600000X0*%
%ADD42O,1.950000X1.700000*%
%ADD43RoundRect,0.050000X-0.050000X0.387500X-0.050000X-0.387500X0.050000X-0.387500X0.050000X0.387500X0*%
%ADD44RoundRect,0.050000X-0.387500X0.050000X-0.387500X-0.050000X0.387500X-0.050000X0.387500X0.050000X0*%
%ADD45R,3.200000X3.200000*%
%ADD46RoundRect,0.150000X-0.150000X0.587500X-0.150000X-0.587500X0.150000X-0.587500X0.150000X0.587500X0*%
%ADD47RoundRect,0.140000X0.170000X-0.140000X0.170000X0.140000X-0.170000X0.140000X-0.170000X-0.140000X0*%
%ADD48RoundRect,0.140000X-0.140000X-0.170000X0.140000X-0.170000X0.140000X0.170000X-0.140000X0.170000X0*%
%ADD49C,2.000000*%
%ADD50R,0.500000X0.300000*%
%ADD51R,0.340000X0.800000*%
%ADD52R,1.500000X2.000000*%
%ADD53R,3.800000X2.000000*%
%ADD54R,2.500000X1.000000*%
%ADD55R,1.000000X1.800000*%
%ADD56R,2.600000X2.600000*%
%ADD57C,2.600000*%
%ADD58RoundRect,0.150000X-0.587500X-0.150000X0.587500X-0.150000X0.587500X0.150000X-0.587500X0.150000X0*%
%ADD59R,2.500000X1.800000*%
%ADD60RoundRect,0.225000X0.250000X-0.225000X0.250000X0.225000X-0.250000X0.225000X-0.250000X-0.225000X0*%
%ADD61RoundRect,0.150000X0.150000X-0.875000X0.150000X0.875000X-0.150000X0.875000X-0.150000X-0.875000X0*%
%ADD62RoundRect,0.087500X-0.087500X0.412500X-0.087500X-0.412500X0.087500X-0.412500X0.087500X0.412500X0*%
%ADD63R,1.500000X1.200000*%
%ADD64RoundRect,0.200000X0.275000X-0.200000X0.275000X0.200000X-0.275000X0.200000X-0.275000X-0.200000X0*%
%ADD65R,3.000000X4.500000*%
%ADD66R,1.800000X4.400000*%
%ADD67O,1.800000X4.000000*%
%ADD68O,4.000000X1.800000*%
%ADD69RoundRect,0.070000X0.300000X-0.650000X0.300000X0.650000X-0.300000X0.650000X-0.300000X-0.650000X0*%
%ADD70C,0.900000*%
%ADD71RoundRect,0.250000X1.500000X0.550000X-1.500000X0.550000X-1.500000X-0.550000X1.500000X-0.550000X0*%
%ADD72RoundRect,0.050000X-0.725000X0.150000X-0.725000X-0.150000X0.725000X-0.150000X0.725000X0.150000X0*%
%ADD73R,1.800000X2.500000*%
%ADD74RoundRect,0.250000X-1.000000X-0.650000X1.000000X-0.650000X1.000000X0.650000X-1.000000X0.650000X0*%
%ADD75R,0.900000X0.950000*%
%ADD76C,3.200000*%
%ADD77RoundRect,0.140000X0.021213X-0.219203X0.219203X-0.021213X-0.021213X0.219203X-0.219203X0.021213X0*%
%ADD78RoundRect,0.140000X-0.219203X-0.021213X-0.021213X-0.219203X0.219203X0.021213X0.021213X0.219203X0*%
%ADD79RoundRect,0.250000X2.050000X0.300000X-2.050000X0.300000X-2.050000X-0.300000X2.050000X-0.300000X0*%
%ADD80RoundRect,0.250002X4.449998X5.149998X-4.449998X5.149998X-4.449998X-5.149998X4.449998X-5.149998X0*%
%ADD81RoundRect,0.250000X1.000000X0.900000X-1.000000X0.900000X-1.000000X-0.900000X1.000000X-0.900000X0*%
%ADD82RoundRect,0.250000X1.950000X1.000000X-1.950000X1.000000X-1.950000X-1.000000X1.950000X-1.000000X0*%
%ADD83RotRect,1.150000X1.000000X225.000000*%
%ADD84R,1.200000X0.900000*%
%ADD85RoundRect,0.250000X2.475000X-0.712500X2.475000X0.712500X-2.475000X0.712500X-2.475000X-0.712500X0*%
%ADD86C,2.390000*%
%ADD87C,3.450000*%
G04 APERTURE END LIST*
D10*
X156545000Y-58242000D02*
X156055000Y-58242000D01*
X156055000Y-56952000D01*
X156545000Y-56952000D01*
X156545000Y-58242000D01*
G36*
X156545000Y-58242000D02*
G01*
X156055000Y-58242000D01*
X156055000Y-56952000D01*
X156545000Y-56952000D01*
X156545000Y-58242000D01*
G37*
X157020000Y-58242000D02*
X156680000Y-58242000D01*
X156680000Y-56652000D01*
X157020000Y-56652000D01*
X157020000Y-58242000D01*
G36*
X157020000Y-58242000D02*
G01*
X156680000Y-58242000D01*
X156680000Y-56652000D01*
X157020000Y-56652000D01*
X157020000Y-58242000D01*
G37*
X157645000Y-58242000D02*
X157155000Y-58242000D01*
X157155000Y-56952000D01*
X157645000Y-56952000D01*
X157645000Y-58242000D01*
G36*
X157645000Y-58242000D02*
G01*
X157155000Y-58242000D01*
X157155000Y-56952000D01*
X157645000Y-56952000D01*
X157645000Y-58242000D01*
G37*
X156295000Y-56292000D02*
X155905000Y-56292000D01*
X155905000Y-55702000D01*
X156295000Y-55702000D01*
X156295000Y-56292000D01*
G36*
X156295000Y-56292000D02*
G01*
X155905000Y-56292000D01*
X155905000Y-55702000D01*
X156295000Y-55702000D01*
X156295000Y-56292000D01*
G37*
X156795000Y-56292000D02*
X156405000Y-56292000D01*
X156405000Y-55702000D01*
X156795000Y-55702000D01*
X156795000Y-56292000D01*
G36*
X156795000Y-56292000D02*
G01*
X156405000Y-56292000D01*
X156405000Y-55702000D01*
X156795000Y-55702000D01*
X156795000Y-56292000D01*
G37*
X157295000Y-56292000D02*
X156905000Y-56292000D01*
X156905000Y-55702000D01*
X157295000Y-55702000D01*
X157295000Y-56292000D01*
G36*
X157295000Y-56292000D02*
G01*
X156905000Y-56292000D01*
X156905000Y-55702000D01*
X157295000Y-55702000D01*
X157295000Y-56292000D01*
G37*
X157795000Y-56292000D02*
X157405000Y-56292000D01*
X157405000Y-55702000D01*
X157795000Y-55702000D01*
X157795000Y-56292000D01*
G36*
X157795000Y-56292000D02*
G01*
X157405000Y-56292000D01*
X157405000Y-55702000D01*
X157795000Y-55702000D01*
X157795000Y-56292000D01*
G37*
D11*
X191962500Y-58250000D03*
X193537500Y-58250000D03*
D12*
X187405000Y-86450000D03*
X188425000Y-86450000D03*
D13*
X190240000Y-69700000D03*
X189280000Y-69700000D03*
D14*
X184000000Y-122300000D03*
D15*
X187500000Y-122300000D03*
D16*
X187005000Y-101425000D03*
X185735000Y-101425000D03*
X184465000Y-101425000D03*
X183195000Y-101425000D03*
X183195000Y-106375000D03*
X184465000Y-106375000D03*
X185735000Y-106375000D03*
X187005000Y-106375000D03*
D17*
X165837500Y-55720000D03*
X165837500Y-54700000D03*
D18*
X149212500Y-68065000D03*
X147662500Y-68065000D03*
D19*
X157325000Y-60050000D03*
X155425000Y-60050000D03*
D20*
X222290000Y-95900000D03*
D21*
X222290000Y-106060000D03*
X222290000Y-113680000D03*
X229910000Y-111140000D03*
X229910000Y-95900000D03*
D12*
X197990000Y-54100000D03*
X199010000Y-54100000D03*
D22*
X152812500Y-66265000D03*
X154362500Y-66265000D03*
D23*
X155570000Y-97000000D03*
D24*
X155570000Y-94460000D03*
X158110000Y-97000000D03*
X158110000Y-94460000D03*
X160650000Y-97000000D03*
X160650000Y-94460000D03*
X163190000Y-97000000D03*
X163190000Y-94460000D03*
X165730000Y-97000000D03*
X165730000Y-94460000D03*
D18*
X130275000Y-51825000D03*
X128725000Y-51825000D03*
D25*
X176575000Y-90420000D03*
X176575000Y-91380000D03*
D26*
X123487500Y-76375000D03*
X123487500Y-77025000D03*
X123487500Y-77675000D03*
X123487500Y-78325000D03*
X123487500Y-78975000D03*
D27*
X120787500Y-74175000D03*
D28*
X120787500Y-74775000D03*
D29*
X123487500Y-75175000D03*
D30*
X120787500Y-76675000D03*
X120787500Y-78675000D03*
D29*
X123487500Y-80175000D03*
D28*
X120787500Y-80575000D03*
D27*
X120787500Y-81175000D03*
D31*
X203250000Y-63450000D03*
D32*
X147600000Y-92090000D03*
X147600000Y-93110000D03*
D33*
X211060000Y-74150000D03*
X210040000Y-74150000D03*
X208110000Y-58400000D03*
X207090000Y-58400000D03*
D22*
X149255000Y-77330000D03*
X150805000Y-77330000D03*
D34*
X201050000Y-92737500D03*
X197750000Y-92737500D03*
D35*
X238000000Y-58962500D03*
X238000000Y-57387500D03*
D12*
X132665000Y-67675000D03*
X133685000Y-67675000D03*
D36*
X133420000Y-75340000D03*
X133420000Y-77640000D03*
D37*
X139720000Y-77640000D03*
D36*
X133420000Y-79940000D03*
D17*
X145800000Y-112010000D03*
X145800000Y-110990000D03*
D33*
X158210000Y-115125000D03*
X157190000Y-115125000D03*
D12*
X207090000Y-59600000D03*
X208110000Y-59600000D03*
D14*
X234750000Y-56100000D03*
D15*
X231250000Y-56100000D03*
D33*
X136030000Y-73480000D03*
X135010000Y-73480000D03*
D38*
X164175000Y-55350000D03*
X164175000Y-53450000D03*
X162300000Y-54400000D03*
D32*
X134612500Y-65080000D03*
X134612500Y-66100000D03*
D39*
X140115000Y-86050000D03*
X144265000Y-86050000D03*
X140115000Y-88200000D03*
X144265000Y-88200000D03*
D32*
X178375000Y-95090000D03*
X178375000Y-96110000D03*
D33*
X225810000Y-92300000D03*
X224790000Y-92300000D03*
D40*
X191600000Y-68850000D03*
X191600000Y-69800000D03*
X191600000Y-70750000D03*
X193920000Y-70750000D03*
X193920000Y-68850000D03*
D17*
X173450000Y-112110000D03*
X173450000Y-111090000D03*
D41*
X245350000Y-77950000D03*
D42*
X245350000Y-80450000D03*
X245350000Y-82950000D03*
X245350000Y-85450000D03*
D32*
X182950000Y-116490000D03*
X182950000Y-117510000D03*
D43*
X180175000Y-82262500D03*
X179775000Y-82262500D03*
X179375000Y-82262500D03*
X178975000Y-82262500D03*
X178575000Y-82262500D03*
X178175000Y-82262500D03*
X177775000Y-82262500D03*
X177375000Y-82262500D03*
X176975000Y-82262500D03*
X176575000Y-82262500D03*
X176175000Y-82262500D03*
X175775000Y-82262500D03*
X175375000Y-82262500D03*
X174975000Y-82262500D03*
D44*
X174137500Y-83100000D03*
X174137500Y-83500000D03*
X174137500Y-83900000D03*
X174137500Y-84300000D03*
X174137500Y-84700000D03*
X174137500Y-85100000D03*
X174137500Y-85500000D03*
X174137500Y-85900000D03*
X174137500Y-86300000D03*
X174137500Y-86700000D03*
X174137500Y-87100000D03*
X174137500Y-87500000D03*
X174137500Y-87900000D03*
X174137500Y-88300000D03*
D43*
X174975000Y-89137500D03*
X175375000Y-89137500D03*
X175775000Y-89137500D03*
X176175000Y-89137500D03*
X176575000Y-89137500D03*
X176975000Y-89137500D03*
X177375000Y-89137500D03*
X177775000Y-89137500D03*
X178175000Y-89137500D03*
X178575000Y-89137500D03*
X178975000Y-89137500D03*
X179375000Y-89137500D03*
X179775000Y-89137500D03*
X180175000Y-89137500D03*
D44*
X181012500Y-88300000D03*
X181012500Y-87900000D03*
X181012500Y-87500000D03*
X181012500Y-87100000D03*
X181012500Y-86700000D03*
X181012500Y-86300000D03*
X181012500Y-85900000D03*
X181012500Y-85500000D03*
X181012500Y-85100000D03*
X181012500Y-84700000D03*
X181012500Y-84300000D03*
X181012500Y-83900000D03*
X181012500Y-83500000D03*
X181012500Y-83100000D03*
D45*
X177575000Y-85700000D03*
D46*
X171950000Y-111600000D03*
X170050000Y-111600000D03*
X171000000Y-113475000D03*
D39*
X159000000Y-82775000D03*
X163150000Y-82775000D03*
X159000000Y-84925000D03*
X163150000Y-84925000D03*
D47*
X141950000Y-76255000D03*
X141950000Y-75295000D03*
D12*
X192240000Y-61000000D03*
X193260000Y-61000000D03*
D47*
X143000000Y-76255000D03*
X143000000Y-75295000D03*
D48*
X182970000Y-85200000D03*
X183930000Y-85200000D03*
D41*
X245425000Y-64075000D03*
D42*
X245425000Y-66575000D03*
X245425000Y-69075000D03*
X245425000Y-71575000D03*
D31*
X154700000Y-87600000D03*
D49*
X135000000Y-54050000D03*
D33*
X133570000Y-81880000D03*
X132550000Y-81880000D03*
D12*
X194890000Y-64700000D03*
X195910000Y-64700000D03*
D50*
X204750000Y-59700000D03*
X204750000Y-59200000D03*
X204750000Y-58700000D03*
X204750000Y-58200000D03*
X204750000Y-57700000D03*
X204750000Y-57200000D03*
X204750000Y-56700000D03*
X201750000Y-56700000D03*
X201750000Y-57200000D03*
X201750000Y-57700000D03*
X201750000Y-58200000D03*
X201750000Y-58700000D03*
X201750000Y-59200000D03*
X201750000Y-59700000D03*
D51*
X203750000Y-60050000D03*
X203750000Y-56350000D03*
X203250000Y-60050000D03*
X203250000Y-56350000D03*
X202750000Y-60050000D03*
X202750000Y-56350000D03*
D22*
X152737500Y-62890000D03*
X154287500Y-62890000D03*
D18*
X199775000Y-58200000D03*
X198225000Y-58200000D03*
D13*
X125195000Y-101640000D03*
X124235000Y-101640000D03*
D17*
X153200000Y-97110000D03*
X153200000Y-96090000D03*
X175100000Y-96110000D03*
X175100000Y-95090000D03*
D49*
X151300000Y-123950000D03*
D33*
X156810000Y-109925000D03*
X155790000Y-109925000D03*
D52*
X136812500Y-65840000D03*
X139112500Y-65840000D03*
D53*
X139112500Y-59540000D03*
D52*
X141412500Y-65840000D03*
D54*
X136550000Y-118900000D03*
X136550000Y-116900000D03*
X136550000Y-114900000D03*
X136550000Y-112900000D03*
X136550000Y-110900000D03*
X136550000Y-108900000D03*
X136550000Y-106900000D03*
X136550000Y-104900000D03*
D55*
X133950000Y-103400000D03*
X131950000Y-103400000D03*
X129950000Y-103400000D03*
X127950000Y-103400000D03*
X125950000Y-103400000D03*
X123950000Y-103400000D03*
D54*
X121350000Y-104900000D03*
X121350000Y-106900000D03*
X121350000Y-108900000D03*
X121350000Y-110900000D03*
X121350000Y-112900000D03*
X121350000Y-114900000D03*
X121350000Y-116900000D03*
X121350000Y-118900000D03*
D35*
X154900000Y-79575000D03*
X154900000Y-78000000D03*
D14*
X224900000Y-56025000D03*
D15*
X221400000Y-56025000D03*
D17*
X158900000Y-58010000D03*
X158900000Y-56990000D03*
D33*
X200010000Y-60600000D03*
X198990000Y-60600000D03*
D22*
X176125000Y-69700000D03*
X177675000Y-69700000D03*
D39*
X140065000Y-92400000D03*
X144215000Y-92400000D03*
X140065000Y-94550000D03*
X144215000Y-94550000D03*
D56*
X226000000Y-120662500D03*
D57*
X231000000Y-120662500D03*
X236000000Y-120662500D03*
D58*
X187462500Y-94950000D03*
X187462500Y-96850000D03*
X189337500Y-95900000D03*
D59*
X153100000Y-53150000D03*
X153100000Y-56850000D03*
D25*
X180475000Y-90420000D03*
X180475000Y-91380000D03*
D23*
X200025000Y-74075000D03*
D24*
X202565000Y-74075000D03*
X200025000Y-76615000D03*
X202565000Y-76615000D03*
X200025000Y-79155000D03*
X202565000Y-79155000D03*
X200025000Y-81695000D03*
X202565000Y-81695000D03*
X200025000Y-84235000D03*
X202565000Y-84235000D03*
X200025000Y-86775000D03*
X202565000Y-86775000D03*
X200025000Y-89315000D03*
X202565000Y-89315000D03*
D60*
X156300000Y-52775000D03*
X156300000Y-51225000D03*
D17*
X185750000Y-99470000D03*
X185750000Y-98450000D03*
D33*
X133670000Y-68775000D03*
X132650000Y-68775000D03*
D61*
X141755000Y-106350000D03*
X143025000Y-106350000D03*
X144295000Y-106350000D03*
X145565000Y-106350000D03*
X146835000Y-106350000D03*
X148105000Y-106350000D03*
X149375000Y-106350000D03*
X150645000Y-106350000D03*
X150645000Y-97050000D03*
X149375000Y-97050000D03*
X148105000Y-97050000D03*
X146835000Y-97050000D03*
X145565000Y-97050000D03*
X144295000Y-97050000D03*
X143025000Y-97050000D03*
X141755000Y-97050000D03*
D25*
X140175000Y-98770000D03*
X140175000Y-99730000D03*
D60*
X144575000Y-75995000D03*
X144575000Y-74445000D03*
D12*
X182465000Y-90700000D03*
X183485000Y-90700000D03*
D33*
X183485000Y-89600000D03*
X182465000Y-89600000D03*
D62*
X187625000Y-78300000D03*
X187125000Y-78300000D03*
X186625000Y-78300000D03*
X186125000Y-78300000D03*
X186135000Y-81300000D03*
X186635000Y-81300000D03*
X187135000Y-81300000D03*
X187635000Y-81300000D03*
D63*
X186875000Y-79800000D03*
D33*
X199010000Y-55200000D03*
X197990000Y-55200000D03*
D64*
X195560000Y-70725000D03*
X195560000Y-69075000D03*
D33*
X147960000Y-80970000D03*
X146940000Y-80970000D03*
X170860000Y-109900000D03*
X169840000Y-109900000D03*
D46*
X157900000Y-111625000D03*
X156000000Y-111625000D03*
X156950000Y-113500000D03*
D36*
X144262500Y-61190000D03*
X144262500Y-63490000D03*
D37*
X150562500Y-63490000D03*
D36*
X144262500Y-65790000D03*
D47*
X140175000Y-97430000D03*
X140175000Y-96470000D03*
D65*
X183600000Y-65300000D03*
X183600000Y-56250000D03*
D66*
X128200000Y-63800000D03*
D67*
X122400000Y-63800000D03*
D68*
X125200000Y-68600000D03*
D33*
X120920000Y-70000000D03*
X119900000Y-70000000D03*
D22*
X207400000Y-55300000D03*
X208950000Y-55300000D03*
D32*
X224390000Y-89790000D03*
X224390000Y-90810000D03*
X160000000Y-56990000D03*
X160000000Y-58010000D03*
D69*
X184800000Y-117550000D03*
X186700000Y-117550000D03*
X185750000Y-115450000D03*
D33*
X144610000Y-115000000D03*
X143590000Y-115000000D03*
D70*
X176500000Y-75400000D03*
D56*
X193500000Y-120800000D03*
D57*
X198500000Y-120800000D03*
X203500000Y-120800000D03*
D34*
X215550000Y-92725000D03*
X212250000Y-92725000D03*
D71*
X176100000Y-53800000D03*
X170700000Y-53800000D03*
D12*
X148965000Y-79970000D03*
X149985000Y-79970000D03*
D41*
X213225000Y-77850000D03*
D42*
X213225000Y-80350000D03*
X213225000Y-82850000D03*
X213225000Y-85350000D03*
D72*
X143000000Y-77595000D03*
X143000000Y-78095000D03*
X143000000Y-78595000D03*
X143000000Y-79095000D03*
X143000000Y-79595000D03*
X147400000Y-79595000D03*
X147400000Y-79095000D03*
X147400000Y-78595000D03*
X147400000Y-78095000D03*
X147400000Y-77595000D03*
D47*
X175475000Y-80880000D03*
X175475000Y-79920000D03*
D25*
X190400000Y-82720000D03*
X190400000Y-83680000D03*
D13*
X183455000Y-91800000D03*
X182495000Y-91800000D03*
D73*
X128550000Y-72725000D03*
X128550000Y-76725000D03*
D17*
X133437500Y-66100000D03*
X133437500Y-65080000D03*
D34*
X154750000Y-117025000D03*
X158050000Y-117025000D03*
D38*
X130137500Y-55350000D03*
X130137500Y-53450000D03*
X128262500Y-54400000D03*
D41*
X223475000Y-77925000D03*
D42*
X223475000Y-80425000D03*
X223475000Y-82925000D03*
X223475000Y-85425000D03*
D17*
X138850000Y-115860000D03*
X138850000Y-114840000D03*
D48*
X182495000Y-88300000D03*
X183455000Y-88300000D03*
D23*
X150500000Y-85900000D03*
D24*
X150500000Y-88440000D03*
X150500000Y-90980000D03*
X150500000Y-93520000D03*
D52*
X121300000Y-99800000D03*
X123300000Y-99800000D03*
X125300000Y-99800000D03*
X127300000Y-99800000D03*
X129300000Y-99800000D03*
X131300000Y-99800000D03*
X133300000Y-99800000D03*
X135300000Y-99800000D03*
X135300000Y-83800000D03*
X133300000Y-83800000D03*
X131300000Y-83800000D03*
X129300000Y-83800000D03*
X127300000Y-83800000D03*
X125300000Y-83800000D03*
X123300000Y-83800000D03*
X121300000Y-83800000D03*
D12*
X148965000Y-78845000D03*
X149985000Y-78845000D03*
D74*
X144512500Y-57890000D03*
X148512500Y-57890000D03*
D18*
X149187500Y-69690000D03*
X147637500Y-69690000D03*
D34*
X141150000Y-116900000D03*
X144450000Y-116900000D03*
D75*
X121125000Y-71900000D03*
X124275000Y-71900000D03*
D49*
X243000000Y-57000000D03*
D17*
X145700000Y-87460000D03*
X145700000Y-86440000D03*
X159500000Y-54510000D03*
X159500000Y-53490000D03*
X159400000Y-112135000D03*
X159400000Y-111115000D03*
D12*
X187405000Y-85350000D03*
X188425000Y-85350000D03*
D32*
X188400000Y-116490000D03*
X188400000Y-117510000D03*
D76*
X246400000Y-53600000D03*
D12*
X143090000Y-90900000D03*
X144110000Y-90900000D03*
D77*
X168335589Y-83889411D03*
X169014411Y-83210589D03*
D34*
X230940000Y-92600000D03*
X227640000Y-92600000D03*
D20*
X192400000Y-96037500D03*
D21*
X192400000Y-106197500D03*
X192400000Y-113817500D03*
X200020000Y-111277500D03*
X200020000Y-96037500D03*
D32*
X166897000Y-54712500D03*
X166897000Y-55732500D03*
X210500000Y-89890000D03*
X210500000Y-90910000D03*
D78*
X168160589Y-86735589D03*
X168839411Y-87414411D03*
D17*
X236850000Y-112295000D03*
X236850000Y-111275000D03*
D70*
X186400000Y-52600000D03*
D13*
X190240000Y-68500000D03*
X189280000Y-68500000D03*
D18*
X199775000Y-56600000D03*
X198225000Y-56600000D03*
D79*
X174825000Y-66500000D03*
X174825000Y-64800000D03*
X174825000Y-63100000D03*
D80*
X165675000Y-63100000D03*
D79*
X174825000Y-61400000D03*
X174825000Y-59700000D03*
D12*
X212940000Y-74100000D03*
X213960000Y-74100000D03*
X186090000Y-93600000D03*
X187110000Y-93600000D03*
D22*
X207400000Y-56945000D03*
X208950000Y-56945000D03*
D23*
X148560000Y-111260000D03*
D24*
X151100000Y-111260000D03*
X148560000Y-113800000D03*
X151100000Y-113800000D03*
X148560000Y-116340000D03*
X151100000Y-116340000D03*
D48*
X182970000Y-87300000D03*
X183930000Y-87300000D03*
D35*
X151925000Y-72562500D03*
X151925000Y-70987500D03*
D17*
X156275000Y-79097500D03*
X156275000Y-78077500D03*
D73*
X201350000Y-53300000D03*
X205050000Y-53300000D03*
D70*
X139700000Y-110675000D03*
D35*
X159400000Y-78975000D03*
X159400000Y-77400000D03*
D58*
X133187500Y-70175000D03*
X133187500Y-72075000D03*
X135062500Y-71125000D03*
D14*
X170200000Y-122000000D03*
D15*
X173700000Y-122000000D03*
D47*
X176575000Y-80880000D03*
X176575000Y-79920000D03*
D18*
X130150000Y-56950000D03*
X128600000Y-56950000D03*
D81*
X184350000Y-71100000D03*
X180050000Y-71100000D03*
D23*
X162310000Y-111260000D03*
D24*
X164850000Y-111260000D03*
X162310000Y-113800000D03*
X164850000Y-113800000D03*
X162310000Y-116340000D03*
X164850000Y-116340000D03*
D41*
X234475000Y-64025000D03*
D42*
X234475000Y-66525000D03*
X234475000Y-69025000D03*
X234475000Y-71525000D03*
D33*
X210410000Y-92400000D03*
X209390000Y-92400000D03*
D41*
X245300000Y-91700000D03*
D42*
X245300000Y-94200000D03*
X245300000Y-96700000D03*
X245300000Y-99200000D03*
D17*
X157200000Y-89520000D03*
X157200000Y-88500000D03*
D76*
X122800000Y-53600000D03*
D46*
X207650000Y-91050000D03*
X205750000Y-91050000D03*
X206700000Y-92925000D03*
D70*
X146700000Y-73700000D03*
D20*
X206900000Y-96025000D03*
D21*
X206900000Y-106185000D03*
X206900000Y-113805000D03*
X214520000Y-111265000D03*
X214520000Y-96025000D03*
D35*
X125500000Y-75887500D03*
X125500000Y-74312500D03*
D82*
X172200000Y-74400000D03*
X163800000Y-74400000D03*
D22*
X176125000Y-71300000D03*
X177675000Y-71300000D03*
D17*
X160800000Y-78310000D03*
X160800000Y-77290000D03*
D33*
X222900000Y-89200000D03*
X221880000Y-89200000D03*
D14*
X243200000Y-117150000D03*
D15*
X243200000Y-113650000D03*
D17*
X209100000Y-91010000D03*
X209100000Y-89990000D03*
D39*
X162700000Y-90700000D03*
X158550000Y-90700000D03*
X162700000Y-88550000D03*
X158550000Y-88550000D03*
D41*
X223500000Y-64000000D03*
D42*
X223500000Y-66500000D03*
X223500000Y-69000000D03*
X223500000Y-71500000D03*
D23*
X176000000Y-111375000D03*
D24*
X178540000Y-111375000D03*
X176000000Y-113915000D03*
X178540000Y-113915000D03*
X176000000Y-116455000D03*
X178540000Y-116455000D03*
D14*
X156150000Y-122025000D03*
D15*
X159650000Y-122025000D03*
D11*
X191625000Y-64700000D03*
X193200000Y-64700000D03*
D32*
X158475000Y-53490000D03*
X158475000Y-54510000D03*
D22*
X206225000Y-60900000D03*
X207775000Y-60900000D03*
D17*
X153375000Y-71785000D03*
X153375000Y-70765000D03*
D14*
X142550000Y-121900000D03*
D15*
X146050000Y-121900000D03*
D46*
X144300000Y-111500000D03*
X142400000Y-111500000D03*
X143350000Y-113375000D03*
D83*
X170072488Y-84161307D03*
X168835051Y-85398744D03*
X169825000Y-86388693D03*
X171062437Y-85151256D03*
D76*
X246300000Y-124800000D03*
D47*
X180575000Y-80880000D03*
X180575000Y-79920000D03*
X188350000Y-107080000D03*
X188350000Y-106120000D03*
D48*
X182495000Y-86200000D03*
X183455000Y-86200000D03*
D47*
X138700000Y-104910000D03*
X138700000Y-103950000D03*
D12*
X156240000Y-82400000D03*
X157260000Y-82400000D03*
D22*
X152812500Y-64590000D03*
X154362500Y-64590000D03*
D84*
X166650000Y-118975000D03*
X166650000Y-122275000D03*
D32*
X146300000Y-92090000D03*
X146300000Y-93110000D03*
D14*
X243150000Y-108325000D03*
D15*
X243150000Y-104825000D03*
D33*
X143210000Y-109800000D03*
X142190000Y-109800000D03*
D70*
X139700000Y-108600000D03*
D13*
X146460000Y-85300000D03*
X145500000Y-85300000D03*
D17*
X188450000Y-101760000D03*
X188450000Y-100740000D03*
D46*
X223040000Y-90925000D03*
X221140000Y-90925000D03*
X222090000Y-92800000D03*
D85*
X213600000Y-65687500D03*
X213600000Y-58912500D03*
D32*
X189337500Y-92290000D03*
X189337500Y-93310000D03*
D41*
X234400000Y-78100000D03*
D42*
X234400000Y-80600000D03*
X234400000Y-83100000D03*
X234400000Y-85600000D03*
D12*
X198990000Y-59500000D03*
X200010000Y-59500000D03*
D33*
X172260000Y-115100000D03*
X171240000Y-115100000D03*
D56*
X209800000Y-120787500D03*
D57*
X214800000Y-120787500D03*
X219800000Y-120787500D03*
D32*
X185900000Y-96090000D03*
X185900000Y-97110000D03*
D86*
X138770000Y-70000000D03*
D87*
X147100000Y-54000000D03*
X202300000Y-70000000D03*
M02*
