G04 #@! TF.GenerationSoftware,KiCad,Pcbnew,7.0.2*
G04 #@! TF.CreationDate,2023-07-29T12:41:36+03:00*
G04 #@! TF.ProjectId,RpiPico_Agriboard,52706950-6963-46f5-9f41-677269626f61,rev?*
G04 #@! TF.SameCoordinates,Original*
G04 #@! TF.FileFunction,Paste,Top*
G04 #@! TF.FilePolarity,Positive*
%FSLAX46Y46*%
G04 Gerber Fmt 4.6, Leading zero omitted, Abs format (unit mm)*
G04 Created by KiCad (PCBNEW 7.0.2) date 2023-07-29 12:41:36*
%MOMM*%
%LPD*%
G01*
G04 APERTURE LIST*
G04 Aperture macros list*
%AMRoundRect*
0 Rectangle with rounded corners*
0 $1 Rounding radius*
0 $2 $3 $4 $5 $6 $7 $8 $9 X,Y pos of 4 corners*
0 Add a 4 corners polygon primitive as box body*
4,1,4,$2,$3,$4,$5,$6,$7,$8,$9,$2,$3,0*
0 Add four circle primitives for the rounded corners*
1,1,$1+$1,$2,$3*
1,1,$1+$1,$4,$5*
1,1,$1+$1,$6,$7*
1,1,$1+$1,$8,$9*
0 Add four rect primitives between the rounded corners*
20,1,$1+$1,$2,$3,$4,$5,0*
20,1,$1+$1,$4,$5,$6,$7,0*
20,1,$1+$1,$6,$7,$8,$9,0*
20,1,$1+$1,$8,$9,$2,$3,0*%
%AMRotRect*
0 Rectangle, with rotation*
0 The origin of the aperture is its center*
0 $1 length*
0 $2 width*
0 $3 Rotation angle, in degrees counterclockwise*
0 Add horizontal line*
21,1,$1,$2,0,0,$3*%
G04 Aperture macros list end*
%ADD10C,0.010000*%
%ADD11RoundRect,0.218750X-0.218750X-0.256250X0.218750X-0.256250X0.218750X0.256250X-0.218750X0.256250X0*%
%ADD12RoundRect,0.135000X-0.135000X-0.185000X0.135000X-0.185000X0.135000X0.185000X-0.135000X0.185000X0*%
%ADD13RoundRect,0.140000X0.140000X0.170000X-0.140000X0.170000X-0.140000X-0.170000X0.140000X-0.170000X0*%
%ADD14RoundRect,0.150000X-0.150000X0.825000X-0.150000X-0.825000X0.150000X-0.825000X0.150000X0.825000X0*%
%ADD15RoundRect,0.135000X0.185000X-0.135000X0.185000X0.135000X-0.185000X0.135000X-0.185000X-0.135000X0*%
%ADD16RoundRect,0.225000X0.225000X0.250000X-0.225000X0.250000X-0.225000X-0.250000X0.225000X-0.250000X0*%
%ADD17RoundRect,0.250000X0.250000X0.475000X-0.250000X0.475000X-0.250000X-0.475000X0.250000X-0.475000X0*%
%ADD18RoundRect,0.225000X-0.225000X-0.250000X0.225000X-0.250000X0.225000X0.250000X-0.225000X0.250000X0*%
%ADD19RoundRect,0.140000X-0.170000X0.140000X-0.170000X-0.140000X0.170000X-0.140000X0.170000X0.140000X0*%
%ADD20R,1.350000X0.400000*%
%ADD21R,1.900000X1.500000*%
%ADD22RoundRect,0.135000X-0.185000X0.135000X-0.185000X-0.135000X0.185000X-0.135000X0.185000X0.135000X0*%
%ADD23RoundRect,0.135000X0.135000X0.185000X-0.135000X0.185000X-0.135000X-0.185000X0.135000X-0.185000X0*%
%ADD24R,0.900000X1.200000*%
%ADD25RoundRect,0.218750X0.256250X-0.218750X0.256250X0.218750X-0.256250X0.218750X-0.256250X-0.218750X0*%
%ADD26R,2.000000X1.500000*%
%ADD27R,2.000000X3.800000*%
%ADD28RoundRect,0.150000X0.587500X0.150000X-0.587500X0.150000X-0.587500X-0.150000X0.587500X-0.150000X0*%
%ADD29R,1.050000X0.650000*%
%ADD30R,0.700000X0.510000*%
%ADD31RoundRect,0.249999X-0.395001X0.395001X-0.395001X-0.395001X0.395001X-0.395001X0.395001X0.395001X0*%
%ADD32RoundRect,0.050000X-0.050000X0.387500X-0.050000X-0.387500X0.050000X-0.387500X0.050000X0.387500X0*%
%ADD33RoundRect,0.050000X-0.387500X0.050000X-0.387500X-0.050000X0.387500X-0.050000X0.387500X0.050000X0*%
%ADD34RoundRect,0.150000X-0.150000X0.587500X-0.150000X-0.587500X0.150000X-0.587500X0.150000X0.587500X0*%
%ADD35RoundRect,0.140000X0.170000X-0.140000X0.170000X0.140000X-0.170000X0.140000X-0.170000X-0.140000X0*%
%ADD36RoundRect,0.140000X-0.140000X-0.170000X0.140000X-0.170000X0.140000X0.170000X-0.140000X0.170000X0*%
%ADD37R,0.500000X0.300000*%
%ADD38R,0.340000X0.800000*%
%ADD39R,1.500000X2.000000*%
%ADD40R,3.800000X2.000000*%
%ADD41R,2.500000X1.000000*%
%ADD42R,1.000000X1.800000*%
%ADD43RoundRect,0.150000X-0.587500X-0.150000X0.587500X-0.150000X0.587500X0.150000X-0.587500X0.150000X0*%
%ADD44R,2.500000X1.800000*%
%ADD45RoundRect,0.225000X0.250000X-0.225000X0.250000X0.225000X-0.250000X0.225000X-0.250000X-0.225000X0*%
%ADD46RoundRect,0.150000X0.150000X-0.875000X0.150000X0.875000X-0.150000X0.875000X-0.150000X-0.875000X0*%
%ADD47RoundRect,0.120000X-0.180000X0.120000X-0.180000X-0.120000X0.180000X-0.120000X0.180000X0.120000X0*%
%ADD48RoundRect,0.087500X-0.087500X0.412500X-0.087500X-0.412500X0.087500X-0.412500X0.087500X0.412500X0*%
%ADD49RoundRect,0.200000X0.275000X-0.200000X0.275000X0.200000X-0.275000X0.200000X-0.275000X-0.200000X0*%
%ADD50R,3.000000X4.500000*%
%ADD51R,0.600000X1.300000*%
%ADD52RoundRect,0.250000X1.500000X0.550000X-1.500000X0.550000X-1.500000X-0.550000X1.500000X-0.550000X0*%
%ADD53R,1.450000X0.300000*%
%ADD54R,1.800000X2.500000*%
%ADD55RoundRect,0.250000X-1.000000X-0.650000X1.000000X-0.650000X1.000000X0.650000X-1.000000X0.650000X0*%
%ADD56R,0.900000X0.950000*%
%ADD57RoundRect,0.140000X0.021213X-0.219203X0.219203X-0.021213X-0.021213X0.219203X-0.219203X0.021213X0*%
%ADD58R,0.250000X0.450000*%
%ADD59RoundRect,0.140000X-0.219203X-0.021213X-0.021213X-0.219203X0.219203X0.021213X0.021213X0.219203X0*%
%ADD60RoundRect,0.250000X2.050000X0.300000X-2.050000X0.300000X-2.050000X-0.300000X2.050000X-0.300000X0*%
%ADD61RoundRect,0.250000X2.025000X2.375000X-2.025000X2.375000X-2.025000X-2.375000X2.025000X-2.375000X0*%
%ADD62RoundRect,0.250000X1.000000X0.900000X-1.000000X0.900000X-1.000000X-0.900000X1.000000X-0.900000X0*%
%ADD63RoundRect,0.250000X1.950000X1.000000X-1.950000X1.000000X-1.950000X-1.000000X1.950000X-1.000000X0*%
%ADD64RotRect,1.150000X1.000000X225.000000*%
%ADD65R,1.200000X0.900000*%
%ADD66RoundRect,0.250000X2.475000X-0.712500X2.475000X0.712500X-2.475000X0.712500X-2.475000X-0.712500X0*%
G04 APERTURE END LIST*
D10*
X156475000Y-58172000D02*
X156125000Y-58172000D01*
X156125000Y-57697000D01*
X156475000Y-57697000D01*
X156475000Y-58172000D01*
G36*
X156475000Y-58172000D02*
G01*
X156125000Y-58172000D01*
X156125000Y-57697000D01*
X156475000Y-57697000D01*
X156475000Y-58172000D01*
G37*
X156950000Y-58172000D02*
X156750000Y-58172000D01*
X156750000Y-57547000D01*
X156950000Y-57547000D01*
X156950000Y-58172000D01*
G36*
X156950000Y-58172000D02*
G01*
X156750000Y-58172000D01*
X156750000Y-57547000D01*
X156950000Y-57547000D01*
X156950000Y-58172000D01*
G37*
X157575000Y-58172000D02*
X157225000Y-58172000D01*
X157225000Y-57697000D01*
X157575000Y-57697000D01*
X157575000Y-58172000D01*
G36*
X157575000Y-58172000D02*
G01*
X157225000Y-58172000D01*
X157225000Y-57697000D01*
X157575000Y-57697000D01*
X157575000Y-58172000D01*
G37*
X156475000Y-57497000D02*
X156125000Y-57497000D01*
X156125000Y-57022000D01*
X156475000Y-57022000D01*
X156475000Y-57497000D01*
G36*
X156475000Y-57497000D02*
G01*
X156125000Y-57497000D01*
X156125000Y-57022000D01*
X156475000Y-57022000D01*
X156475000Y-57497000D01*
G37*
X157575000Y-57497000D02*
X157225000Y-57497000D01*
X157225000Y-57022000D01*
X157575000Y-57022000D01*
X157575000Y-57497000D01*
G36*
X157575000Y-57497000D02*
G01*
X157225000Y-57497000D01*
X157225000Y-57022000D01*
X157575000Y-57022000D01*
X157575000Y-57497000D01*
G37*
X156950000Y-57347000D02*
X156750000Y-57347000D01*
X156750000Y-56722000D01*
X156950000Y-56722000D01*
X156950000Y-57347000D01*
G36*
X156950000Y-57347000D02*
G01*
X156750000Y-57347000D01*
X156750000Y-56722000D01*
X156950000Y-56722000D01*
X156950000Y-57347000D01*
G37*
D11*
X191962500Y-58250000D03*
X193537500Y-58250000D03*
D12*
X187405000Y-86450000D03*
X188425000Y-86450000D03*
D13*
X190240000Y-69700000D03*
X189280000Y-69700000D03*
D14*
X187005000Y-101425000D03*
X185735000Y-101425000D03*
X184465000Y-101425000D03*
X183195000Y-101425000D03*
X183195000Y-106375000D03*
X184465000Y-106375000D03*
X185735000Y-106375000D03*
X187005000Y-106375000D03*
D15*
X165837500Y-55720000D03*
X165837500Y-54700000D03*
D16*
X149212500Y-68065000D03*
X147662500Y-68065000D03*
D17*
X157325000Y-60050000D03*
X155425000Y-60050000D03*
D12*
X197990000Y-54100000D03*
X199010000Y-54100000D03*
D18*
X152812500Y-66265000D03*
X154362500Y-66265000D03*
D16*
X130275000Y-51825000D03*
X128725000Y-51825000D03*
D19*
X176575000Y-90420000D03*
X176575000Y-91380000D03*
D20*
X123487500Y-76375000D03*
X123487500Y-77025000D03*
X123487500Y-77675000D03*
X123487500Y-78325000D03*
X123487500Y-78975000D03*
D21*
X120787500Y-76675000D03*
X120787500Y-78675000D03*
D22*
X147600000Y-92090000D03*
X147600000Y-93110000D03*
D23*
X211060000Y-74150000D03*
X210040000Y-74150000D03*
X208110000Y-58400000D03*
X207090000Y-58400000D03*
D18*
X149255000Y-77330000D03*
X150805000Y-77330000D03*
D24*
X201050000Y-92737500D03*
X197750000Y-92737500D03*
D25*
X238000000Y-58962500D03*
X238000000Y-57387500D03*
D12*
X132665000Y-67675000D03*
X133685000Y-67675000D03*
D26*
X133420000Y-75340000D03*
X133420000Y-77640000D03*
D27*
X139720000Y-77640000D03*
D26*
X133420000Y-79940000D03*
D15*
X145800000Y-112010000D03*
X145800000Y-110990000D03*
D23*
X158210000Y-115125000D03*
X157190000Y-115125000D03*
D12*
X207090000Y-59600000D03*
X208110000Y-59600000D03*
D23*
X136030000Y-73480000D03*
X135010000Y-73480000D03*
D28*
X164175000Y-55350000D03*
X164175000Y-53450000D03*
X162300000Y-54400000D03*
D22*
X134612500Y-65080000D03*
X134612500Y-66100000D03*
D29*
X140115000Y-86050000D03*
X144265000Y-86050000D03*
X140115000Y-88200000D03*
X144265000Y-88200000D03*
D22*
X178375000Y-95090000D03*
X178375000Y-96110000D03*
D23*
X225810000Y-92300000D03*
X224790000Y-92300000D03*
D30*
X191600000Y-68850000D03*
X191600000Y-69800000D03*
X191600000Y-70750000D03*
X193920000Y-70750000D03*
X193920000Y-68850000D03*
D15*
X173450000Y-112110000D03*
X173450000Y-111090000D03*
D22*
X182950000Y-116490000D03*
X182950000Y-117510000D03*
D31*
X178375000Y-84900000D03*
X176775000Y-84900000D03*
X178375000Y-86500000D03*
X176775000Y-86500000D03*
D32*
X180175000Y-82262500D03*
X179775000Y-82262500D03*
X179375000Y-82262500D03*
X178975000Y-82262500D03*
X178575000Y-82262500D03*
X178175000Y-82262500D03*
X177775000Y-82262500D03*
X177375000Y-82262500D03*
X176975000Y-82262500D03*
X176575000Y-82262500D03*
X176175000Y-82262500D03*
X175775000Y-82262500D03*
X175375000Y-82262500D03*
X174975000Y-82262500D03*
D33*
X174137500Y-83100000D03*
X174137500Y-83500000D03*
X174137500Y-83900000D03*
X174137500Y-84300000D03*
X174137500Y-84700000D03*
X174137500Y-85100000D03*
X174137500Y-85500000D03*
X174137500Y-85900000D03*
X174137500Y-86300000D03*
X174137500Y-86700000D03*
X174137500Y-87100000D03*
X174137500Y-87500000D03*
X174137500Y-87900000D03*
X174137500Y-88300000D03*
D32*
X174975000Y-89137500D03*
X175375000Y-89137500D03*
X175775000Y-89137500D03*
X176175000Y-89137500D03*
X176575000Y-89137500D03*
X176975000Y-89137500D03*
X177375000Y-89137500D03*
X177775000Y-89137500D03*
X178175000Y-89137500D03*
X178575000Y-89137500D03*
X178975000Y-89137500D03*
X179375000Y-89137500D03*
X179775000Y-89137500D03*
X180175000Y-89137500D03*
D33*
X181012500Y-88300000D03*
X181012500Y-87900000D03*
X181012500Y-87500000D03*
X181012500Y-87100000D03*
X181012500Y-86700000D03*
X181012500Y-86300000D03*
X181012500Y-85900000D03*
X181012500Y-85500000D03*
X181012500Y-85100000D03*
X181012500Y-84700000D03*
X181012500Y-84300000D03*
X181012500Y-83900000D03*
X181012500Y-83500000D03*
X181012500Y-83100000D03*
D34*
X171950000Y-111600000D03*
X170050000Y-111600000D03*
X171000000Y-113475000D03*
D29*
X159000000Y-82775000D03*
X163150000Y-82775000D03*
X159000000Y-84925000D03*
X163150000Y-84925000D03*
D35*
X141950000Y-76255000D03*
X141950000Y-75295000D03*
D12*
X192240000Y-61000000D03*
X193260000Y-61000000D03*
D35*
X143000000Y-76255000D03*
X143000000Y-75295000D03*
D36*
X182970000Y-85200000D03*
X183930000Y-85200000D03*
D23*
X133570000Y-81880000D03*
X132550000Y-81880000D03*
D12*
X194890000Y-64700000D03*
X195910000Y-64700000D03*
D37*
X204750000Y-59700000D03*
X204750000Y-59200000D03*
X204750000Y-58700000D03*
X204750000Y-58200000D03*
X204750000Y-57700000D03*
X204750000Y-57200000D03*
X204750000Y-56700000D03*
X201750000Y-56700000D03*
X201750000Y-57200000D03*
X201750000Y-57700000D03*
X201750000Y-58200000D03*
X201750000Y-58700000D03*
X201750000Y-59200000D03*
X201750000Y-59700000D03*
D38*
X203750000Y-60050000D03*
X203750000Y-56350000D03*
X203250000Y-60050000D03*
X203250000Y-56350000D03*
X202750000Y-60050000D03*
X202750000Y-56350000D03*
D18*
X152737500Y-62890000D03*
X154287500Y-62890000D03*
D16*
X199775000Y-58200000D03*
X198225000Y-58200000D03*
D13*
X125195000Y-101640000D03*
X124235000Y-101640000D03*
D15*
X153200000Y-97110000D03*
X153200000Y-96090000D03*
X175100000Y-96110000D03*
X175100000Y-95090000D03*
D23*
X156810000Y-109925000D03*
X155790000Y-109925000D03*
D39*
X136812500Y-65840000D03*
X139112500Y-65840000D03*
D40*
X139112500Y-59540000D03*
D39*
X141412500Y-65840000D03*
D41*
X136550000Y-118900000D03*
X136550000Y-116900000D03*
X136550000Y-114900000D03*
X136550000Y-112900000D03*
X136550000Y-110900000D03*
X136550000Y-108900000D03*
X136550000Y-106900000D03*
X136550000Y-104900000D03*
D42*
X133950000Y-103400000D03*
X131950000Y-103400000D03*
X129950000Y-103400000D03*
X127950000Y-103400000D03*
X125950000Y-103400000D03*
X123950000Y-103400000D03*
D41*
X121350000Y-104900000D03*
X121350000Y-106900000D03*
X121350000Y-108900000D03*
X121350000Y-110900000D03*
X121350000Y-112900000D03*
X121350000Y-114900000D03*
X121350000Y-116900000D03*
X121350000Y-118900000D03*
D25*
X154900000Y-79575000D03*
X154900000Y-78000000D03*
D15*
X158900000Y-58010000D03*
X158900000Y-56990000D03*
D23*
X200010000Y-60600000D03*
X198990000Y-60600000D03*
D18*
X176125000Y-69700000D03*
X177675000Y-69700000D03*
D29*
X140065000Y-92400000D03*
X144215000Y-92400000D03*
X140065000Y-94550000D03*
X144215000Y-94550000D03*
D43*
X187462500Y-94950000D03*
X187462500Y-96850000D03*
X189337500Y-95900000D03*
D44*
X153100000Y-53150000D03*
X153100000Y-56850000D03*
D19*
X180475000Y-90420000D03*
X180475000Y-91380000D03*
D45*
X156300000Y-52775000D03*
X156300000Y-51225000D03*
D15*
X185750000Y-99470000D03*
X185750000Y-98450000D03*
D23*
X133670000Y-68775000D03*
X132650000Y-68775000D03*
D46*
X141755000Y-106350000D03*
X143025000Y-106350000D03*
X144295000Y-106350000D03*
X145565000Y-106350000D03*
X146835000Y-106350000D03*
X148105000Y-106350000D03*
X149375000Y-106350000D03*
X150645000Y-106350000D03*
X150645000Y-97050000D03*
X149375000Y-97050000D03*
X148105000Y-97050000D03*
X146835000Y-97050000D03*
X145565000Y-97050000D03*
X144295000Y-97050000D03*
X143025000Y-97050000D03*
X141755000Y-97050000D03*
D19*
X140175000Y-98770000D03*
X140175000Y-99730000D03*
D45*
X144575000Y-75995000D03*
X144575000Y-74445000D03*
D12*
X182465000Y-90700000D03*
X183485000Y-90700000D03*
D23*
X183485000Y-89600000D03*
X182465000Y-89600000D03*
D47*
X187250000Y-79500000D03*
X186500000Y-79500000D03*
X187250000Y-80100000D03*
X186500000Y-80100000D03*
D48*
X187625000Y-78300000D03*
X187125000Y-78300000D03*
X186625000Y-78300000D03*
X186125000Y-78300000D03*
X186135000Y-81300000D03*
X186635000Y-81300000D03*
X187135000Y-81300000D03*
X187635000Y-81300000D03*
D23*
X199010000Y-55200000D03*
X197990000Y-55200000D03*
D49*
X195560000Y-70725000D03*
X195560000Y-69075000D03*
D23*
X147960000Y-80970000D03*
X146940000Y-80970000D03*
X170860000Y-109900000D03*
X169840000Y-109900000D03*
D34*
X157900000Y-111625000D03*
X156000000Y-111625000D03*
X156950000Y-113500000D03*
D26*
X144262500Y-61190000D03*
X144262500Y-63490000D03*
D27*
X150562500Y-63490000D03*
D26*
X144262500Y-65790000D03*
D35*
X140175000Y-97430000D03*
X140175000Y-96470000D03*
D50*
X183600000Y-65300000D03*
X183600000Y-56250000D03*
D23*
X120920000Y-70000000D03*
X119900000Y-70000000D03*
D18*
X207400000Y-55300000D03*
X208950000Y-55300000D03*
D22*
X224390000Y-89790000D03*
X224390000Y-90810000D03*
X160000000Y-56990000D03*
X160000000Y-58010000D03*
D51*
X184800000Y-117550000D03*
X186700000Y-117550000D03*
X185750000Y-115450000D03*
D23*
X144610000Y-115000000D03*
X143590000Y-115000000D03*
D24*
X215550000Y-92725000D03*
X212250000Y-92725000D03*
D52*
X176100000Y-53800000D03*
X170700000Y-53800000D03*
D12*
X148965000Y-79970000D03*
X149985000Y-79970000D03*
D53*
X143000000Y-77595000D03*
X143000000Y-78095000D03*
X143000000Y-78595000D03*
X143000000Y-79095000D03*
X143000000Y-79595000D03*
X147400000Y-79595000D03*
X147400000Y-79095000D03*
X147400000Y-78595000D03*
X147400000Y-78095000D03*
X147400000Y-77595000D03*
D35*
X175475000Y-80880000D03*
X175475000Y-79920000D03*
D19*
X190400000Y-82720000D03*
X190400000Y-83680000D03*
D13*
X183455000Y-91800000D03*
X182495000Y-91800000D03*
D54*
X128550000Y-72725000D03*
X128550000Y-76725000D03*
D15*
X133437500Y-66100000D03*
X133437500Y-65080000D03*
D24*
X154750000Y-117025000D03*
X158050000Y-117025000D03*
D28*
X130137500Y-55350000D03*
X130137500Y-53450000D03*
X128262500Y-54400000D03*
D15*
X138850000Y-115860000D03*
X138850000Y-114840000D03*
D36*
X182495000Y-88300000D03*
X183455000Y-88300000D03*
D39*
X121300000Y-99800000D03*
X123300000Y-99800000D03*
X125300000Y-99800000D03*
X127300000Y-99800000D03*
X129300000Y-99800000D03*
X131300000Y-99800000D03*
X133300000Y-99800000D03*
X135300000Y-99800000D03*
X135300000Y-83800000D03*
X133300000Y-83800000D03*
X131300000Y-83800000D03*
X129300000Y-83800000D03*
X127300000Y-83800000D03*
X125300000Y-83800000D03*
X123300000Y-83800000D03*
X121300000Y-83800000D03*
D12*
X148965000Y-78845000D03*
X149985000Y-78845000D03*
D55*
X144512500Y-57890000D03*
X148512500Y-57890000D03*
D16*
X149187500Y-69690000D03*
X147637500Y-69690000D03*
D24*
X141150000Y-116900000D03*
X144450000Y-116900000D03*
D56*
X121125000Y-71900000D03*
X124275000Y-71900000D03*
D15*
X145700000Y-87460000D03*
X145700000Y-86440000D03*
X159500000Y-54510000D03*
X159500000Y-53490000D03*
X159400000Y-112135000D03*
X159400000Y-111115000D03*
D12*
X187405000Y-85350000D03*
X188425000Y-85350000D03*
D22*
X188400000Y-116490000D03*
X188400000Y-117510000D03*
D12*
X143090000Y-90900000D03*
X144110000Y-90900000D03*
D57*
X168335589Y-83889411D03*
X169014411Y-83210589D03*
D24*
X230940000Y-92600000D03*
X227640000Y-92600000D03*
D58*
X157600000Y-55997000D03*
X157100000Y-55997000D03*
X156600000Y-55997000D03*
X156100000Y-55997000D03*
D22*
X166897000Y-54712500D03*
X166897000Y-55732500D03*
X210500000Y-89890000D03*
X210500000Y-90910000D03*
D59*
X168160589Y-86735589D03*
X168839411Y-87414411D03*
D15*
X236850000Y-112295000D03*
X236850000Y-111275000D03*
D13*
X190240000Y-68500000D03*
X189280000Y-68500000D03*
D16*
X199775000Y-56600000D03*
X198225000Y-56600000D03*
D60*
X174825000Y-66500000D03*
X174825000Y-64800000D03*
X174825000Y-63100000D03*
D61*
X168100000Y-65875000D03*
X168100000Y-60325000D03*
X163250000Y-65875000D03*
X163250000Y-60325000D03*
D60*
X174825000Y-61400000D03*
X174825000Y-59700000D03*
D12*
X212940000Y-74100000D03*
X213960000Y-74100000D03*
X186090000Y-93600000D03*
X187110000Y-93600000D03*
D18*
X207400000Y-56945000D03*
X208950000Y-56945000D03*
D36*
X182970000Y-87300000D03*
X183930000Y-87300000D03*
D25*
X151925000Y-72562500D03*
X151925000Y-70987500D03*
D15*
X156275000Y-79097500D03*
X156275000Y-78077500D03*
D54*
X201350000Y-53300000D03*
X205050000Y-53300000D03*
D25*
X159400000Y-78975000D03*
X159400000Y-77400000D03*
D43*
X133187500Y-70175000D03*
X133187500Y-72075000D03*
X135062500Y-71125000D03*
D35*
X176575000Y-80880000D03*
X176575000Y-79920000D03*
D16*
X130150000Y-56950000D03*
X128600000Y-56950000D03*
D62*
X184350000Y-71100000D03*
X180050000Y-71100000D03*
D23*
X210410000Y-92400000D03*
X209390000Y-92400000D03*
D15*
X157200000Y-89520000D03*
X157200000Y-88500000D03*
D34*
X207650000Y-91050000D03*
X205750000Y-91050000D03*
X206700000Y-92925000D03*
D25*
X125500000Y-75887500D03*
X125500000Y-74312500D03*
D63*
X172200000Y-74400000D03*
X163800000Y-74400000D03*
D18*
X176125000Y-71300000D03*
X177675000Y-71300000D03*
D15*
X160800000Y-78310000D03*
X160800000Y-77290000D03*
D23*
X222900000Y-89200000D03*
X221880000Y-89200000D03*
D15*
X209100000Y-91010000D03*
X209100000Y-89990000D03*
D29*
X162700000Y-90700000D03*
X158550000Y-90700000D03*
X162700000Y-88550000D03*
X158550000Y-88550000D03*
D11*
X191625000Y-64700000D03*
X193200000Y-64700000D03*
D22*
X158475000Y-53490000D03*
X158475000Y-54510000D03*
D18*
X206225000Y-60900000D03*
X207775000Y-60900000D03*
D15*
X153375000Y-71785000D03*
X153375000Y-70765000D03*
D34*
X144300000Y-111500000D03*
X142400000Y-111500000D03*
X143350000Y-113375000D03*
D64*
X170072488Y-84161307D03*
X168835051Y-85398744D03*
X169825000Y-86388693D03*
X171062437Y-85151256D03*
D35*
X180575000Y-80880000D03*
X180575000Y-79920000D03*
X188350000Y-107080000D03*
X188350000Y-106120000D03*
D36*
X182495000Y-86200000D03*
X183455000Y-86200000D03*
D35*
X138700000Y-104910000D03*
X138700000Y-103950000D03*
D12*
X156240000Y-82400000D03*
X157260000Y-82400000D03*
D18*
X152812500Y-64590000D03*
X154362500Y-64590000D03*
D65*
X166650000Y-118975000D03*
X166650000Y-122275000D03*
D22*
X146300000Y-92090000D03*
X146300000Y-93110000D03*
D23*
X143210000Y-109800000D03*
X142190000Y-109800000D03*
D13*
X146460000Y-85300000D03*
X145500000Y-85300000D03*
D15*
X188450000Y-101760000D03*
X188450000Y-100740000D03*
D34*
X223040000Y-90925000D03*
X221140000Y-90925000D03*
X222090000Y-92800000D03*
D66*
X213600000Y-65687500D03*
X213600000Y-58912500D03*
D22*
X189337500Y-92290000D03*
X189337500Y-93310000D03*
D12*
X198990000Y-59500000D03*
X200010000Y-59500000D03*
D23*
X172260000Y-115100000D03*
X171240000Y-115100000D03*
D22*
X185900000Y-96090000D03*
X185900000Y-97110000D03*
M02*
