G04 #@! TF.GenerationSoftware,KiCad,Pcbnew,7.0.2*
G04 #@! TF.CreationDate,2023-12-02T10:50:19+03:00*
G04 #@! TF.ProjectId,RpiPico_Agriboard,52706950-6963-46f5-9f41-677269626f61,rev?*
G04 #@! TF.SameCoordinates,Original*
G04 #@! TF.FileFunction,Paste,Top*
G04 #@! TF.FilePolarity,Positive*
%FSLAX46Y46*%
G04 Gerber Fmt 4.6, Leading zero omitted, Abs format (unit mm)*
G04 Created by KiCad (PCBNEW 7.0.2) date 2023-12-02 10:50:19*
%MOMM*%
%LPD*%
G01*
G04 APERTURE LIST*
G04 Aperture macros list*
%AMRoundRect*
0 Rectangle with rounded corners*
0 $1 Rounding radius*
0 $2 $3 $4 $5 $6 $7 $8 $9 X,Y pos of 4 corners*
0 Add a 4 corners polygon primitive as box body*
4,1,4,$2,$3,$4,$5,$6,$7,$8,$9,$2,$3,0*
0 Add four circle primitives for the rounded corners*
1,1,$1+$1,$2,$3*
1,1,$1+$1,$4,$5*
1,1,$1+$1,$6,$7*
1,1,$1+$1,$8,$9*
0 Add four rect primitives between the rounded corners*
20,1,$1+$1,$2,$3,$4,$5,0*
20,1,$1+$1,$4,$5,$6,$7,0*
20,1,$1+$1,$6,$7,$8,$9,0*
20,1,$1+$1,$8,$9,$2,$3,0*%
%AMRotRect*
0 Rectangle, with rotation*
0 The origin of the aperture is its center*
0 $1 length*
0 $2 width*
0 $3 Rotation angle, in degrees counterclockwise*
0 Add horizontal line*
21,1,$1,$2,0,0,$3*%
G04 Aperture macros list end*
%ADD10C,0.010000*%
%ADD11RoundRect,0.150000X-0.150000X0.825000X-0.150000X-0.825000X0.150000X-0.825000X0.150000X0.825000X0*%
%ADD12RoundRect,0.225000X-0.250000X0.225000X-0.250000X-0.225000X0.250000X-0.225000X0.250000X0.225000X0*%
%ADD13RoundRect,0.225000X0.225000X0.250000X-0.225000X0.250000X-0.225000X-0.250000X0.225000X-0.250000X0*%
%ADD14RoundRect,0.135000X0.185000X-0.135000X0.185000X0.135000X-0.185000X0.135000X-0.185000X-0.135000X0*%
%ADD15RoundRect,0.250000X-0.475000X0.250000X-0.475000X-0.250000X0.475000X-0.250000X0.475000X0.250000X0*%
%ADD16R,2.413000X3.429000*%
%ADD17RoundRect,0.135000X0.135000X0.185000X-0.135000X0.185000X-0.135000X-0.185000X0.135000X-0.185000X0*%
%ADD18RoundRect,0.140000X-0.170000X0.140000X-0.170000X-0.140000X0.170000X-0.140000X0.170000X0.140000X0*%
%ADD19RoundRect,0.002500X0.122500X-0.297500X0.122500X0.297500X-0.122500X0.297500X-0.122500X-0.297500X0*%
%ADD20RoundRect,0.002500X0.297500X-0.122500X0.297500X0.122500X-0.297500X0.122500X-0.297500X-0.122500X0*%
%ADD21RoundRect,0.250000X0.250000X0.475000X-0.250000X0.475000X-0.250000X-0.475000X0.250000X-0.475000X0*%
%ADD22RoundRect,0.200000X-0.275000X0.200000X-0.275000X-0.200000X0.275000X-0.200000X0.275000X0.200000X0*%
%ADD23R,3.500000X2.400000*%
%ADD24RoundRect,0.218750X-0.256250X0.218750X-0.256250X-0.218750X0.256250X-0.218750X0.256250X0.218750X0*%
%ADD25RoundRect,0.135000X-0.135000X-0.185000X0.135000X-0.185000X0.135000X0.185000X-0.135000X0.185000X0*%
%ADD26RoundRect,0.140000X-0.140000X-0.170000X0.140000X-0.170000X0.140000X0.170000X-0.140000X0.170000X0*%
%ADD27RoundRect,0.225000X-0.225000X-0.250000X0.225000X-0.250000X0.225000X0.250000X-0.225000X0.250000X0*%
%ADD28R,1.350000X0.400000*%
%ADD29R,1.900000X1.500000*%
%ADD30RoundRect,0.135000X-0.185000X0.135000X-0.185000X-0.135000X0.185000X-0.135000X0.185000X0.135000X0*%
%ADD31R,1.200000X0.900000*%
%ADD32RoundRect,0.218750X0.256250X-0.218750X0.256250X0.218750X-0.256250X0.218750X-0.256250X-0.218750X0*%
%ADD33RoundRect,0.150000X0.587500X0.150000X-0.587500X0.150000X-0.587500X-0.150000X0.587500X-0.150000X0*%
%ADD34RoundRect,0.150000X-0.587500X-0.150000X0.587500X-0.150000X0.587500X0.150000X-0.587500X0.150000X0*%
%ADD35R,1.050000X0.650000*%
%ADD36R,3.500000X1.950000*%
%ADD37R,3.400000X0.800000*%
%ADD38RoundRect,0.249999X-0.395001X0.395001X-0.395001X-0.395001X0.395001X-0.395001X0.395001X0.395001X0*%
%ADD39RoundRect,0.050000X-0.050000X0.387500X-0.050000X-0.387500X0.050000X-0.387500X0.050000X0.387500X0*%
%ADD40RoundRect,0.050000X-0.387500X0.050000X-0.387500X-0.050000X0.387500X-0.050000X0.387500X0.050000X0*%
%ADD41RoundRect,0.150000X-0.150000X0.587500X-0.150000X-0.587500X0.150000X-0.587500X0.150000X0.587500X0*%
%ADD42RoundRect,0.140000X0.140000X0.170000X-0.140000X0.170000X-0.140000X-0.170000X0.140000X-0.170000X0*%
%ADD43R,0.500000X0.300000*%
%ADD44R,0.340000X0.800000*%
%ADD45R,1.500000X2.000000*%
%ADD46R,3.800000X2.000000*%
%ADD47R,2.500000X1.000000*%
%ADD48R,1.000000X1.800000*%
%ADD49RoundRect,0.250000X-1.000000X-0.650000X1.000000X-0.650000X1.000000X0.650000X-1.000000X0.650000X0*%
%ADD50RoundRect,0.200000X0.200000X0.275000X-0.200000X0.275000X-0.200000X-0.275000X0.200000X-0.275000X0*%
%ADD51R,3.150000X1.000000*%
%ADD52RoundRect,0.150000X0.150000X-0.875000X0.150000X0.875000X-0.150000X0.875000X-0.150000X-0.875000X0*%
%ADD53RoundRect,0.120000X-0.180000X0.120000X-0.180000X-0.120000X0.180000X-0.120000X0.180000X0.120000X0*%
%ADD54RoundRect,0.087500X-0.087500X0.412500X-0.087500X-0.412500X0.087500X-0.412500X0.087500X0.412500X0*%
%ADD55RoundRect,0.140000X0.170000X-0.140000X0.170000X0.140000X-0.170000X0.140000X-0.170000X-0.140000X0*%
%ADD56R,0.600000X1.300000*%
%ADD57R,0.900000X1.200000*%
%ADD58R,1.800000X2.500000*%
%ADD59RoundRect,0.250000X0.300000X-0.300000X0.300000X0.300000X-0.300000X0.300000X-0.300000X-0.300000X0*%
%ADD60R,0.900000X0.950000*%
%ADD61RoundRect,0.200000X-0.200000X-0.275000X0.200000X-0.275000X0.200000X0.275000X-0.200000X0.275000X0*%
%ADD62RoundRect,0.140000X0.021213X-0.219203X0.219203X-0.021213X-0.021213X0.219203X-0.219203X0.021213X0*%
%ADD63RoundRect,0.150000X0.150000X-0.825000X0.150000X0.825000X-0.150000X0.825000X-0.150000X-0.825000X0*%
%ADD64RoundRect,0.140000X-0.219203X-0.021213X-0.021213X-0.219203X0.219203X0.021213X0.021213X0.219203X0*%
%ADD65R,0.880000X1.050000*%
%ADD66R,1.050000X0.450000*%
%ADD67R,2.000000X1.500000*%
%ADD68R,2.000000X3.800000*%
%ADD69RoundRect,0.250000X-0.650000X1.000000X-0.650000X-1.000000X0.650000X-1.000000X0.650000X1.000000X0*%
%ADD70RoundRect,0.150000X0.150000X-0.587500X0.150000X0.587500X-0.150000X0.587500X-0.150000X-0.587500X0*%
%ADD71RoundRect,0.250000X1.425000X-0.362500X1.425000X0.362500X-1.425000X0.362500X-1.425000X-0.362500X0*%
%ADD72RotRect,1.150000X1.000000X225.000000*%
%ADD73RoundRect,0.250000X-2.475000X0.712500X-2.475000X-0.712500X2.475000X-0.712500X2.475000X0.712500X0*%
G04 APERTURE END LIST*
D10*
X183525000Y-68420000D02*
X183275000Y-68420000D01*
X183275000Y-67700000D01*
X183525000Y-67700000D01*
X183525000Y-68420000D01*
G36*
X183525000Y-68420000D02*
G01*
X183275000Y-68420000D01*
X183275000Y-67700000D01*
X183525000Y-67700000D01*
X183525000Y-68420000D01*
G37*
X183025000Y-68099500D02*
X182775000Y-68099500D01*
X182775000Y-67524500D01*
X183025000Y-67524500D01*
X183025000Y-68099500D01*
G36*
X183025000Y-68099500D02*
G01*
X182775000Y-68099500D01*
X182775000Y-67524500D01*
X183025000Y-67524500D01*
X183025000Y-68099500D01*
G37*
X184025000Y-68099500D02*
X183775000Y-68099500D01*
X183775000Y-67524500D01*
X184025000Y-67524500D01*
X184025000Y-68099500D01*
G36*
X184025000Y-68099500D02*
G01*
X183775000Y-68099500D01*
X183775000Y-67524500D01*
X184025000Y-67524500D01*
X184025000Y-68099500D01*
G37*
X183525000Y-67500000D02*
X183275000Y-67500000D01*
X183275000Y-66780000D01*
X183525000Y-66780000D01*
X183525000Y-67500000D01*
G36*
X183525000Y-67500000D02*
G01*
X183275000Y-67500000D01*
X183275000Y-66780000D01*
X183525000Y-66780000D01*
X183525000Y-67500000D01*
G37*
X183025000Y-67324500D02*
X182775000Y-67324500D01*
X182775000Y-66749500D01*
X183025000Y-66749500D01*
X183025000Y-67324500D01*
G36*
X183025000Y-67324500D02*
G01*
X182775000Y-67324500D01*
X182775000Y-66749500D01*
X183025000Y-66749500D01*
X183025000Y-67324500D01*
G37*
X184025000Y-67324500D02*
X183775000Y-67324500D01*
X183775000Y-66749500D01*
X184025000Y-66749500D01*
X184025000Y-67324500D01*
G36*
X184025000Y-67324500D02*
G01*
X183775000Y-67324500D01*
X183775000Y-66749500D01*
X184025000Y-66749500D01*
X184025000Y-67324500D01*
G37*
X185100000Y-67550000D02*
X184750000Y-67550000D01*
X184750000Y-67800000D01*
X185100000Y-67800000D01*
X185100000Y-68050000D01*
X184500000Y-68050000D01*
X184500000Y-67300000D01*
X185100000Y-67300000D01*
X185100000Y-67550000D01*
G36*
X185100000Y-67550000D02*
G01*
X184750000Y-67550000D01*
X184750000Y-67800000D01*
X185100000Y-67800000D01*
X185100000Y-68050000D01*
X184500000Y-68050000D01*
X184500000Y-67300000D01*
X185100000Y-67300000D01*
X185100000Y-67550000D01*
G37*
X182300000Y-68050000D02*
X181700000Y-68050000D01*
X181700000Y-67800000D01*
X182050000Y-67800000D01*
X182050000Y-67550000D01*
X181700000Y-67550000D01*
X181700000Y-67300000D01*
X182300000Y-67300000D01*
X182300000Y-68050000D01*
G36*
X182300000Y-68050000D02*
G01*
X181700000Y-68050000D01*
X181700000Y-67800000D01*
X182050000Y-67800000D01*
X182050000Y-67550000D01*
X181700000Y-67550000D01*
X181700000Y-67300000D01*
X182300000Y-67300000D01*
X182300000Y-68050000D01*
G37*
D11*
X187005000Y-97125000D03*
X185735000Y-97125000D03*
X184465000Y-97125000D03*
X183195000Y-97125000D03*
X183195000Y-102075000D03*
X184465000Y-102075000D03*
X185735000Y-102075000D03*
X187005000Y-102075000D03*
D12*
X187400000Y-69175000D03*
X187400000Y-67625000D03*
D13*
X179275000Y-70312500D03*
X177725000Y-70312500D03*
D14*
X181300000Y-72922500D03*
X181300000Y-71902500D03*
D15*
X191400000Y-67250000D03*
X191400000Y-69150000D03*
D16*
X180479000Y-62112500D03*
X186321000Y-62112500D03*
D17*
X187310000Y-71800000D03*
X186290000Y-71800000D03*
D15*
X189300000Y-67250000D03*
X189300000Y-69150000D03*
D14*
X182500000Y-72922500D03*
X182500000Y-71902500D03*
D15*
X193500000Y-67250000D03*
X193500000Y-69150000D03*
D17*
X187310000Y-70600000D03*
X186290000Y-70600000D03*
D18*
X186000000Y-67732500D03*
X186000000Y-68692500D03*
D19*
X182650000Y-69350000D03*
X183150000Y-69350000D03*
X183650000Y-69350000D03*
X184150000Y-69350000D03*
D20*
X184800000Y-68925000D03*
X184800000Y-68425000D03*
X182000000Y-68425000D03*
X182000000Y-68925000D03*
D18*
X183700000Y-71932500D03*
X183700000Y-72892500D03*
D21*
X179250000Y-68512500D03*
X177350000Y-68512500D03*
D18*
X180800000Y-67712500D03*
X180800000Y-68672500D03*
D22*
X130400000Y-54750000D03*
X130400000Y-56400000D03*
D23*
X149025000Y-64725000D03*
X149025000Y-57825000D03*
D24*
X178950000Y-53325000D03*
X178950000Y-54900000D03*
D25*
X186427500Y-86450000D03*
X187447500Y-86450000D03*
D26*
X160245000Y-55500000D03*
X161205000Y-55500000D03*
D25*
X160205000Y-58800000D03*
X161225000Y-58800000D03*
D26*
X160245000Y-59900000D03*
X161205000Y-59900000D03*
D27*
X158980000Y-52475000D03*
X160530000Y-52475000D03*
D26*
X158825000Y-51200000D03*
X159785000Y-51200000D03*
D18*
X176575000Y-90420000D03*
X176575000Y-91380000D03*
D28*
X123487500Y-76375000D03*
X123487500Y-77025000D03*
X123487500Y-77675000D03*
X123487500Y-78325000D03*
X123487500Y-78975000D03*
D29*
X120787500Y-76675000D03*
X120787500Y-78675000D03*
D30*
X148200000Y-92090000D03*
X148200000Y-93110000D03*
D25*
X208090000Y-78700000D03*
X209110000Y-78700000D03*
D17*
X208960000Y-58800000D03*
X207940000Y-58800000D03*
D27*
X171000000Y-65800000D03*
X172550000Y-65800000D03*
D31*
X203400000Y-96150000D03*
X203400000Y-99450000D03*
D32*
X238000000Y-58962500D03*
X238000000Y-57387500D03*
D14*
X143350000Y-77310000D03*
X143350000Y-76290000D03*
D33*
X213337500Y-63950000D03*
X213337500Y-62050000D03*
X211462500Y-63000000D03*
D14*
X145800000Y-112010000D03*
X145800000Y-110990000D03*
D17*
X158210000Y-115125000D03*
X157190000Y-115125000D03*
D25*
X207940000Y-60000000D03*
X208960000Y-60000000D03*
X136140000Y-78400000D03*
X137160000Y-78400000D03*
D34*
X134775000Y-75150000D03*
X134775000Y-77050000D03*
X136650000Y-76100000D03*
D17*
X161195000Y-57700000D03*
X160175000Y-57700000D03*
D35*
X140115000Y-86050000D03*
X144265000Y-86050000D03*
X140115000Y-88200000D03*
X144265000Y-88200000D03*
D30*
X178375000Y-95090000D03*
X178375000Y-96110000D03*
D17*
X225810000Y-92300000D03*
X224790000Y-92300000D03*
D36*
X182900000Y-108850000D03*
X182900000Y-112900000D03*
D37*
X182900000Y-110875000D03*
D14*
X172000000Y-112110000D03*
X172000000Y-111090000D03*
D30*
X182900000Y-104890000D03*
X182900000Y-105910000D03*
D38*
X178375000Y-84900000D03*
X176775000Y-84900000D03*
X178375000Y-86500000D03*
X176775000Y-86500000D03*
D39*
X180175000Y-82262500D03*
X179775000Y-82262500D03*
X179375000Y-82262500D03*
X178975000Y-82262500D03*
X178575000Y-82262500D03*
X178175000Y-82262500D03*
X177775000Y-82262500D03*
X177375000Y-82262500D03*
X176975000Y-82262500D03*
X176575000Y-82262500D03*
X176175000Y-82262500D03*
X175775000Y-82262500D03*
X175375000Y-82262500D03*
X174975000Y-82262500D03*
D40*
X174137500Y-83100000D03*
X174137500Y-83500000D03*
X174137500Y-83900000D03*
X174137500Y-84300000D03*
X174137500Y-84700000D03*
X174137500Y-85100000D03*
X174137500Y-85500000D03*
X174137500Y-85900000D03*
X174137500Y-86300000D03*
X174137500Y-86700000D03*
X174137500Y-87100000D03*
X174137500Y-87500000D03*
X174137500Y-87900000D03*
X174137500Y-88300000D03*
D39*
X174975000Y-89137500D03*
X175375000Y-89137500D03*
X175775000Y-89137500D03*
X176175000Y-89137500D03*
X176575000Y-89137500D03*
X176975000Y-89137500D03*
X177375000Y-89137500D03*
X177775000Y-89137500D03*
X178175000Y-89137500D03*
X178575000Y-89137500D03*
X178975000Y-89137500D03*
X179375000Y-89137500D03*
X179775000Y-89137500D03*
X180175000Y-89137500D03*
D40*
X181012500Y-88300000D03*
X181012500Y-87900000D03*
X181012500Y-87500000D03*
X181012500Y-87100000D03*
X181012500Y-86700000D03*
X181012500Y-86300000D03*
X181012500Y-85900000D03*
X181012500Y-85500000D03*
X181012500Y-85100000D03*
X181012500Y-84700000D03*
X181012500Y-84300000D03*
X181012500Y-83900000D03*
X181012500Y-83500000D03*
X181012500Y-83100000D03*
D41*
X170500000Y-111600000D03*
X168600000Y-111600000D03*
X169550000Y-113475000D03*
D35*
X159000000Y-82775000D03*
X163150000Y-82775000D03*
X159000000Y-84925000D03*
X163150000Y-84925000D03*
D27*
X140925000Y-54200000D03*
X142475000Y-54200000D03*
D14*
X177500000Y-55035000D03*
X177500000Y-54015000D03*
D42*
X161205000Y-62300000D03*
X160245000Y-62300000D03*
D26*
X182970000Y-85200000D03*
X183930000Y-85200000D03*
D14*
X215095000Y-64150000D03*
X215095000Y-63130000D03*
D30*
X149800000Y-70490000D03*
X149800000Y-71510000D03*
D43*
X205600000Y-60100000D03*
X205600000Y-59600000D03*
X205600000Y-59100000D03*
X205600000Y-58600000D03*
X205600000Y-58100000D03*
X205600000Y-57600000D03*
X205600000Y-57100000D03*
X202600000Y-57100000D03*
X202600000Y-57600000D03*
X202600000Y-58100000D03*
X202600000Y-58600000D03*
X202600000Y-59100000D03*
X202600000Y-59600000D03*
X202600000Y-60100000D03*
D44*
X204600000Y-60450000D03*
X204600000Y-56750000D03*
X204100000Y-60450000D03*
X204100000Y-56750000D03*
X203600000Y-60450000D03*
X203600000Y-56750000D03*
D42*
X171805000Y-62800000D03*
X170845000Y-62800000D03*
D13*
X200625000Y-58600000D03*
X199075000Y-58600000D03*
D42*
X125195000Y-101640000D03*
X124235000Y-101640000D03*
D14*
X153200000Y-97110000D03*
X153200000Y-96090000D03*
X205200000Y-77210000D03*
X205200000Y-76190000D03*
D17*
X161235000Y-56600000D03*
X160215000Y-56600000D03*
X156810000Y-109925000D03*
X155790000Y-109925000D03*
D45*
X133200000Y-67150000D03*
X135500000Y-67150000D03*
D46*
X135500000Y-60850000D03*
D45*
X137800000Y-67150000D03*
D47*
X136550000Y-118900000D03*
X136550000Y-116900000D03*
X136550000Y-114900000D03*
X136550000Y-112900000D03*
X136550000Y-110900000D03*
X136550000Y-108900000D03*
X136550000Y-106900000D03*
X136550000Y-104900000D03*
D48*
X133950000Y-103400000D03*
X131950000Y-103400000D03*
X129950000Y-103400000D03*
X127950000Y-103400000D03*
X125950000Y-103400000D03*
X123950000Y-103400000D03*
D47*
X121350000Y-104900000D03*
X121350000Y-106900000D03*
X121350000Y-108900000D03*
X121350000Y-110900000D03*
X121350000Y-112900000D03*
X121350000Y-114900000D03*
X121350000Y-116900000D03*
X121350000Y-118900000D03*
D49*
X155100000Y-64700000D03*
X159100000Y-64700000D03*
D50*
X134125000Y-69400000D03*
X132475000Y-69400000D03*
D17*
X200860000Y-61000000D03*
X199840000Y-61000000D03*
D35*
X141300000Y-92400000D03*
X145450000Y-92400000D03*
X141300000Y-94550000D03*
X145450000Y-94550000D03*
D34*
X186800000Y-93000000D03*
X186800000Y-94900000D03*
X188675000Y-93950000D03*
D22*
X151300000Y-70240000D03*
X151300000Y-71890000D03*
D30*
X185000000Y-93890000D03*
X185000000Y-94910000D03*
D18*
X180475000Y-90420000D03*
X180475000Y-91380000D03*
D51*
X193200000Y-73200000D03*
X198250000Y-73200000D03*
X193200000Y-75740000D03*
X198250000Y-75740000D03*
X193200000Y-78280000D03*
X198250000Y-78280000D03*
X193200000Y-80820000D03*
X198250000Y-80820000D03*
X193200000Y-83360000D03*
X198250000Y-83360000D03*
X193200000Y-85900000D03*
X198250000Y-85900000D03*
X193200000Y-88440000D03*
X198250000Y-88440000D03*
D14*
X183800000Y-94910000D03*
X183800000Y-93890000D03*
D25*
X138840000Y-78400000D03*
X139860000Y-78400000D03*
D52*
X141755000Y-106350000D03*
X143025000Y-106350000D03*
X144295000Y-106350000D03*
X145565000Y-106350000D03*
X146835000Y-106350000D03*
X148105000Y-106350000D03*
X149375000Y-106350000D03*
X150645000Y-106350000D03*
X150645000Y-97050000D03*
X149375000Y-97050000D03*
X148105000Y-97050000D03*
X146835000Y-97050000D03*
X145565000Y-97050000D03*
X144295000Y-97050000D03*
X143025000Y-97050000D03*
X141755000Y-97050000D03*
D18*
X140175000Y-98770000D03*
X140175000Y-99730000D03*
D27*
X140950000Y-55800000D03*
X142500000Y-55800000D03*
D25*
X182465000Y-90700000D03*
X183485000Y-90700000D03*
D17*
X183485000Y-89600000D03*
X182465000Y-89600000D03*
D53*
X187250000Y-79500000D03*
X186500000Y-79500000D03*
X187250000Y-80100000D03*
X186500000Y-80100000D03*
D54*
X187625000Y-78300000D03*
X187125000Y-78300000D03*
X186625000Y-78300000D03*
X186125000Y-78300000D03*
X186135000Y-81300000D03*
X186635000Y-81300000D03*
X187135000Y-81300000D03*
X187635000Y-81300000D03*
D25*
X212985000Y-65340000D03*
X214005000Y-65340000D03*
D17*
X169410000Y-109900000D03*
X168390000Y-109900000D03*
D41*
X157900000Y-111625000D03*
X156000000Y-111625000D03*
X156950000Y-113500000D03*
D45*
X133200000Y-58200000D03*
X135500000Y-58200000D03*
D46*
X135500000Y-51900000D03*
D45*
X137800000Y-58200000D03*
D55*
X140175000Y-97430000D03*
X140175000Y-96470000D03*
D42*
X169480000Y-88800000D03*
X168520000Y-88800000D03*
D17*
X120920000Y-70000000D03*
X119900000Y-70000000D03*
D27*
X208250000Y-55700000D03*
X209800000Y-55700000D03*
D30*
X224390000Y-89790000D03*
X224390000Y-90810000D03*
X184400000Y-54090000D03*
X184400000Y-55110000D03*
D56*
X184800000Y-117700000D03*
X186700000Y-117700000D03*
X185750000Y-115600000D03*
D17*
X144610000Y-115000000D03*
X143590000Y-115000000D03*
D57*
X215550000Y-92725000D03*
X212250000Y-92725000D03*
D14*
X142250000Y-77310000D03*
X142250000Y-76290000D03*
D55*
X175475000Y-80880000D03*
X175475000Y-79920000D03*
D18*
X189000000Y-81320000D03*
X189000000Y-82280000D03*
D42*
X183455000Y-91800000D03*
X182495000Y-91800000D03*
D58*
X128550000Y-72725000D03*
X128550000Y-76725000D03*
D25*
X171295000Y-59700000D03*
X172315000Y-59700000D03*
D57*
X154750000Y-117025000D03*
X158050000Y-117025000D03*
D36*
X187800000Y-108875000D03*
X187800000Y-112925000D03*
D37*
X187800000Y-110900000D03*
D14*
X138850000Y-115860000D03*
X138850000Y-114840000D03*
D26*
X182495000Y-88300000D03*
X183455000Y-88300000D03*
D45*
X121300000Y-99800000D03*
X123300000Y-99800000D03*
X125300000Y-99800000D03*
X127300000Y-99800000D03*
X129300000Y-99800000D03*
X131300000Y-99800000D03*
X133300000Y-99800000D03*
X135300000Y-99800000D03*
X135300000Y-83800000D03*
X133300000Y-83800000D03*
X131300000Y-83800000D03*
X129300000Y-83800000D03*
X127300000Y-83800000D03*
X125300000Y-83800000D03*
X123300000Y-83800000D03*
X121300000Y-83800000D03*
D25*
X136640000Y-73800000D03*
X137660000Y-73800000D03*
D59*
X128300000Y-57500000D03*
X128300000Y-54700000D03*
D42*
X160880000Y-61000000D03*
X159920000Y-61000000D03*
D57*
X141150000Y-116900000D03*
X144450000Y-116900000D03*
D60*
X121125000Y-71900000D03*
X124275000Y-71900000D03*
D14*
X145700000Y-89000000D03*
X145700000Y-87980000D03*
D61*
X132475000Y-71000000D03*
X134125000Y-71000000D03*
D14*
X159400000Y-112135000D03*
X159400000Y-111115000D03*
D25*
X186427500Y-85350000D03*
X187447500Y-85350000D03*
D30*
X187600000Y-104990000D03*
X187600000Y-106010000D03*
D17*
X146110000Y-91000000D03*
X145090000Y-91000000D03*
D62*
X168335589Y-83889411D03*
X169014411Y-83210589D03*
D57*
X230940000Y-92600000D03*
X227640000Y-92600000D03*
D63*
X206260000Y-86550000D03*
X207530000Y-86550000D03*
X208800000Y-86550000D03*
X210070000Y-86550000D03*
X210070000Y-81600000D03*
X208800000Y-81600000D03*
X207530000Y-81600000D03*
X206260000Y-81600000D03*
D30*
X189712500Y-54015000D03*
X189712500Y-55035000D03*
X210500000Y-89890000D03*
X210500000Y-90910000D03*
D64*
X168160589Y-86735589D03*
X168839411Y-87414411D03*
D14*
X236850000Y-112295000D03*
X236850000Y-111275000D03*
D26*
X171325000Y-57400000D03*
X172285000Y-57400000D03*
D13*
X200625000Y-57000000D03*
X199075000Y-57000000D03*
D17*
X172325000Y-58500000D03*
X171305000Y-58500000D03*
D65*
X167241800Y-62475000D03*
X167241800Y-61225000D03*
X167241800Y-59975000D03*
X167241800Y-58725000D03*
X166108400Y-62475000D03*
X166108400Y-61225000D03*
X166108400Y-59975000D03*
X166108400Y-58725000D03*
X164975000Y-62475000D03*
X164975000Y-61225000D03*
X164975000Y-59975000D03*
X164975000Y-58725000D03*
D66*
X168883400Y-62875000D03*
X168883400Y-62225000D03*
X168883400Y-61575000D03*
X168883400Y-60925000D03*
X168883400Y-60275000D03*
X168883400Y-59625000D03*
X168883400Y-58975000D03*
X168883400Y-58325000D03*
X163333400Y-58325000D03*
X163333400Y-58975000D03*
X163333400Y-59625000D03*
X163333400Y-60275000D03*
X163333400Y-60925000D03*
X163333400Y-61575000D03*
X163333400Y-62225000D03*
X163333400Y-62875000D03*
D25*
X206890000Y-71200000D03*
X207910000Y-71200000D03*
X186490000Y-91700000D03*
X187510000Y-91700000D03*
D27*
X208250000Y-57345000D03*
X209800000Y-57345000D03*
D26*
X182970000Y-87300000D03*
X183930000Y-87300000D03*
D24*
X183000000Y-53325000D03*
X183000000Y-54900000D03*
D14*
X133150000Y-75910000D03*
X133150000Y-74890000D03*
D58*
X202200000Y-53700000D03*
X205900000Y-53700000D03*
D32*
X193700000Y-54912500D03*
X193700000Y-53337500D03*
D67*
X168550000Y-69700000D03*
X168550000Y-67400000D03*
D68*
X162250000Y-67400000D03*
D67*
X168550000Y-65100000D03*
D49*
X155125000Y-68400000D03*
X159125000Y-68400000D03*
D14*
X181600000Y-99890000D03*
X181600000Y-100910000D03*
D55*
X176575000Y-80880000D03*
X176575000Y-79920000D03*
D27*
X158980000Y-54075000D03*
X160530000Y-54075000D03*
D33*
X140637500Y-77050000D03*
X140637500Y-75150000D03*
X138762500Y-76100000D03*
D69*
X141000000Y-58200000D03*
X141000000Y-62200000D03*
D17*
X210410000Y-92400000D03*
X209390000Y-92400000D03*
D14*
X157200000Y-89520000D03*
X157200000Y-88500000D03*
D41*
X207650000Y-91050000D03*
X205750000Y-91050000D03*
X206700000Y-92925000D03*
D32*
X125500000Y-75887500D03*
X125500000Y-74312500D03*
D14*
X195100000Y-54247500D03*
X195100000Y-53227500D03*
D42*
X206480000Y-79600000D03*
X205520000Y-79600000D03*
D17*
X222900000Y-89200000D03*
X221880000Y-89200000D03*
D14*
X209100000Y-91010000D03*
X209100000Y-89990000D03*
D35*
X162700000Y-90700000D03*
X158550000Y-90700000D03*
X162700000Y-88550000D03*
X158550000Y-88550000D03*
D70*
X184350000Y-106237500D03*
X186250000Y-106237500D03*
X185300000Y-104362500D03*
D24*
X188200000Y-53325000D03*
X188200000Y-54900000D03*
D71*
X155825000Y-58500000D03*
X155825000Y-52575000D03*
D27*
X207075000Y-61300000D03*
X208625000Y-61300000D03*
D41*
X144300000Y-111500000D03*
X142400000Y-111500000D03*
X143350000Y-113375000D03*
D72*
X170072488Y-84161307D03*
X168835051Y-85398744D03*
X169825000Y-86388693D03*
X171062437Y-85151256D03*
D55*
X180575000Y-80880000D03*
X180575000Y-79920000D03*
X188400000Y-101780000D03*
X188400000Y-100820000D03*
D26*
X182495000Y-86200000D03*
X183455000Y-86200000D03*
D55*
X138700000Y-104910000D03*
X138700000Y-103950000D03*
D25*
X156240000Y-82400000D03*
X157260000Y-82400000D03*
D27*
X170975000Y-64200000D03*
X172525000Y-64200000D03*
D31*
X166650000Y-118975000D03*
X166650000Y-122275000D03*
D30*
X147200000Y-92090000D03*
X147200000Y-93110000D03*
D17*
X143210000Y-109800000D03*
X142190000Y-109800000D03*
D26*
X145720000Y-87000000D03*
X146680000Y-87000000D03*
D14*
X188500000Y-98310000D03*
X188500000Y-97290000D03*
D41*
X223040000Y-90925000D03*
X221140000Y-90925000D03*
X222090000Y-92800000D03*
D73*
X216100000Y-52512500D03*
X216100000Y-59287500D03*
D30*
X189000000Y-90690000D03*
X189000000Y-91710000D03*
D25*
X199840000Y-59900000D03*
X200860000Y-59900000D03*
D17*
X170810000Y-115100000D03*
X169790000Y-115100000D03*
D14*
X188000000Y-90200000D03*
X188000000Y-89180000D03*
M02*
