G04 #@! TF.GenerationSoftware,KiCad,Pcbnew,7.0.2*
G04 #@! TF.CreationDate,2023-07-29T12:41:36+03:00*
G04 #@! TF.ProjectId,RpiPico_Agriboard,52706950-6963-46f5-9f41-677269626f61,rev?*
G04 #@! TF.SameCoordinates,Original*
G04 #@! TF.FileFunction,Legend,Bot*
G04 #@! TF.FilePolarity,Positive*
%FSLAX46Y46*%
G04 Gerber Fmt 4.6, Leading zero omitted, Abs format (unit mm)*
G04 Created by KiCad (PCBNEW 7.0.2) date 2023-07-29 12:41:36*
%MOMM*%
%LPD*%
G01*
G04 APERTURE LIST*
%ADD10C,0.200000*%
%ADD11C,0.150000*%
%ADD12C,0.120000*%
%ADD13C,0.100000*%
G04 APERTURE END LIST*
D10*
G36*
X128828499Y-59608421D02*
G01*
X128690160Y-59608421D01*
X128675892Y-59608010D01*
X128662545Y-59606777D01*
X128650119Y-59604722D01*
X128638613Y-59601845D01*
X128623079Y-59595988D01*
X128609617Y-59588281D01*
X128598226Y-59578725D01*
X128588906Y-59567320D01*
X128581657Y-59554064D01*
X128576479Y-59538959D01*
X128573373Y-59522005D01*
X128572452Y-59509675D01*
X128572337Y-59503201D01*
X128572337Y-58792748D01*
X128572778Y-58780219D01*
X128574100Y-58768499D01*
X128577737Y-58752434D01*
X128583357Y-58738188D01*
X128590960Y-58725760D01*
X128600547Y-58715152D01*
X128612118Y-58706361D01*
X128625672Y-58699390D01*
X128641209Y-58694237D01*
X128658731Y-58690903D01*
X128671513Y-58689690D01*
X128685177Y-58689286D01*
X128828499Y-58689286D01*
X128828499Y-59608421D01*
G37*
G36*
X130897276Y-60267429D02*
G01*
X125734195Y-60267429D01*
X125734195Y-58501708D01*
X126205624Y-58501708D01*
X126205624Y-59796000D01*
X126395254Y-59796000D01*
X126395254Y-59589663D01*
X126576385Y-59589663D01*
X126576385Y-59796000D01*
X126761912Y-59796000D01*
X126761912Y-59589663D01*
X126576385Y-59589663D01*
X126395254Y-59589663D01*
X126395254Y-58876865D01*
X126469406Y-58876865D01*
X126469406Y-58848728D01*
X126369462Y-58501708D01*
X126907871Y-58501708D01*
X126907871Y-59796000D01*
X127097501Y-59796000D01*
X127097501Y-58876865D01*
X127171653Y-58876865D01*
X127171653Y-58848728D01*
X127071709Y-58501708D01*
X127245806Y-58501708D01*
X127492882Y-59796000D01*
X127685150Y-59796000D01*
X127731590Y-59552147D01*
X128378604Y-59552147D01*
X128378868Y-59566208D01*
X128379662Y-59579886D01*
X128380984Y-59593181D01*
X128382835Y-59606095D01*
X128385216Y-59618625D01*
X128388125Y-59630774D01*
X128391563Y-59642540D01*
X128395530Y-59653923D01*
X128400026Y-59664925D01*
X128405051Y-59675544D01*
X128413580Y-59690755D01*
X128423299Y-59705106D01*
X128434208Y-59718596D01*
X128446308Y-59731226D01*
X128459362Y-59742802D01*
X128473246Y-59753239D01*
X128487959Y-59762538D01*
X128503502Y-59770697D01*
X128514325Y-59775505D01*
X128525516Y-59779806D01*
X128537076Y-59783602D01*
X128549004Y-59786891D01*
X128561302Y-59789674D01*
X128573968Y-59791951D01*
X128587002Y-59793722D01*
X128600405Y-59794987D01*
X128614177Y-59795746D01*
X128628318Y-59796000D01*
X129021646Y-59796000D01*
X129021646Y-58501708D01*
X129127745Y-58501708D01*
X129127745Y-58689286D01*
X129461577Y-58689286D01*
X129461577Y-59045685D01*
X129176399Y-59045685D01*
X129176399Y-59233264D01*
X129461577Y-59233264D01*
X129461577Y-59796000D01*
X129654724Y-59796000D01*
X129654724Y-59693711D01*
X129804200Y-59693711D01*
X129804658Y-59706097D01*
X129807063Y-59723179D01*
X129811528Y-59738462D01*
X129818054Y-59751947D01*
X129826640Y-59763635D01*
X129837288Y-59773524D01*
X129849996Y-59781615D01*
X129864765Y-59787908D01*
X129881595Y-59792403D01*
X129893960Y-59794401D01*
X129907240Y-59795600D01*
X129921437Y-59796000D01*
X130309490Y-59796000D01*
X130323580Y-59795600D01*
X130336761Y-59794401D01*
X130349033Y-59792403D01*
X130365737Y-59787908D01*
X130380395Y-59781615D01*
X130393008Y-59773524D01*
X130403576Y-59763635D01*
X130412098Y-59751947D01*
X130418575Y-59738462D01*
X130423007Y-59723179D01*
X130425393Y-59706097D01*
X130425847Y-59693711D01*
X130425847Y-59383327D01*
X130232993Y-59383327D01*
X130232993Y-59608421D01*
X129997055Y-59608421D01*
X129997055Y-59383327D01*
X130383935Y-59014325D01*
X130393758Y-59003787D01*
X130402272Y-58992544D01*
X130409475Y-58980596D01*
X130415369Y-58967943D01*
X130419953Y-58954584D01*
X130423228Y-58940521D01*
X130425192Y-58925752D01*
X130425847Y-58910277D01*
X130425847Y-58603997D01*
X130425393Y-58591610D01*
X130423007Y-58574529D01*
X130418575Y-58559245D01*
X130412098Y-58545760D01*
X130403576Y-58534073D01*
X130393008Y-58524183D01*
X130380395Y-58516092D01*
X130365737Y-58509799D01*
X130349033Y-58505304D01*
X130336761Y-58503306D01*
X130323580Y-58502107D01*
X130309490Y-58501708D01*
X129921437Y-58501708D01*
X129907240Y-58502102D01*
X129893960Y-58503283D01*
X129881595Y-58505252D01*
X129870146Y-58508009D01*
X129854690Y-58513622D01*
X129841295Y-58521006D01*
X129829960Y-58530163D01*
X129820687Y-58541092D01*
X129813474Y-58553793D01*
X129808322Y-58568267D01*
X129805231Y-58584513D01*
X129804315Y-58596328D01*
X129804200Y-58602531D01*
X129804200Y-58914381D01*
X129997055Y-58914381D01*
X129997055Y-58689286D01*
X130232993Y-58689286D01*
X130232993Y-58905002D01*
X129846113Y-59272831D01*
X129836289Y-59283199D01*
X129827776Y-59294374D01*
X129820572Y-59306354D01*
X129814678Y-59319140D01*
X129810094Y-59332732D01*
X129806820Y-59347130D01*
X129804855Y-59362334D01*
X129804241Y-59374266D01*
X129804200Y-59378344D01*
X129804200Y-59693711D01*
X129654724Y-59693711D01*
X129654724Y-58501708D01*
X129127745Y-58501708D01*
X129021646Y-58501708D01*
X128628318Y-58501708D01*
X128614177Y-58501963D01*
X128600405Y-58502729D01*
X128587002Y-58504006D01*
X128573968Y-58505793D01*
X128561302Y-58508091D01*
X128549004Y-58510899D01*
X128537076Y-58514218D01*
X128525516Y-58518048D01*
X128514325Y-58522388D01*
X128503502Y-58527239D01*
X128493048Y-58532600D01*
X128478058Y-58541600D01*
X128463898Y-58551749D01*
X128450567Y-58563046D01*
X128446308Y-58567067D01*
X128434208Y-58579692D01*
X128423299Y-58593167D01*
X128413580Y-58607492D01*
X128405051Y-58622668D01*
X128397712Y-58638693D01*
X128393480Y-58649849D01*
X128389778Y-58661382D01*
X128386604Y-58673294D01*
X128383959Y-58685583D01*
X128381844Y-58698250D01*
X128380257Y-58711295D01*
X128379199Y-58724717D01*
X128378670Y-58738518D01*
X128378604Y-58745560D01*
X128378604Y-59503201D01*
X128378604Y-59552147D01*
X127731590Y-59552147D01*
X127931639Y-58501708D01*
X127737906Y-58501708D01*
X127593705Y-59387723D01*
X127593120Y-59400474D01*
X127592463Y-59414914D01*
X127591886Y-59427682D01*
X127591263Y-59441531D01*
X127590594Y-59456460D01*
X127590063Y-59468366D01*
X127589506Y-59480880D01*
X127588923Y-59494003D01*
X127588722Y-59498512D01*
X127588755Y-59485761D01*
X127588488Y-59471321D01*
X127588057Y-59458553D01*
X127587434Y-59444704D01*
X127586619Y-59429775D01*
X127585882Y-59417869D01*
X127585036Y-59405354D01*
X127584082Y-59392232D01*
X127583740Y-59387723D01*
X127438660Y-58501708D01*
X127245806Y-58501708D01*
X127071709Y-58501708D01*
X126907871Y-58501708D01*
X126369462Y-58501708D01*
X126205624Y-58501708D01*
X125734195Y-58501708D01*
X125734195Y-58030279D01*
X130897276Y-58030279D01*
X130897276Y-60267429D01*
G37*
G36*
X129785589Y-127830000D02*
G01*
X129940195Y-127830000D01*
X129940195Y-127293886D01*
X129940042Y-127282800D01*
X129939584Y-127270668D01*
X129939040Y-127260883D01*
X129938325Y-127250509D01*
X129937438Y-127239548D01*
X129936379Y-127227998D01*
X129935148Y-127215860D01*
X129933745Y-127203134D01*
X129932171Y-127189820D01*
X129930425Y-127175917D01*
X130069399Y-127720579D01*
X130150976Y-127720579D01*
X130290439Y-127175917D01*
X130288737Y-127190069D01*
X130287202Y-127203581D01*
X130285835Y-127216453D01*
X130284635Y-127228685D01*
X130283602Y-127240278D01*
X130282737Y-127251231D01*
X130282039Y-127261544D01*
X130281369Y-127274300D01*
X130280997Y-127285919D01*
X130280914Y-127293886D01*
X130280914Y-127830000D01*
X130435519Y-127830000D01*
X130435519Y-126751423D01*
X130283600Y-126751423D01*
X130114584Y-127341025D01*
X130112882Y-127351037D01*
X130111948Y-127361015D01*
X130111241Y-127371800D01*
X130110718Y-127382362D01*
X130110432Y-127389385D01*
X130110104Y-127378648D01*
X130109394Y-127368747D01*
X130108287Y-127357490D01*
X130107022Y-127346763D01*
X130106280Y-127341025D01*
X129937508Y-126751423D01*
X129785589Y-126751423D01*
X129785589Y-127830000D01*
G37*
G36*
X129700837Y-127827313D02*
G01*
X129700837Y-127830000D01*
X129542079Y-127830000D01*
X129509839Y-127642421D01*
X129308583Y-127642421D01*
X129276343Y-127830000D01*
X129116852Y-127830000D01*
X129182812Y-127486106D01*
X129331297Y-127486106D01*
X129488590Y-127486106D01*
X129409455Y-127000795D01*
X129331297Y-127486106D01*
X129182812Y-127486106D01*
X129323726Y-126751423D01*
X129492742Y-126751423D01*
X129700837Y-127827313D01*
G37*
G36*
X129030635Y-127830000D02*
G01*
X128702861Y-127830000D01*
X128691077Y-127829789D01*
X128679600Y-127829156D01*
X128668431Y-127828102D01*
X128657569Y-127826626D01*
X128647014Y-127824728D01*
X128636766Y-127822409D01*
X128626826Y-127819668D01*
X128617192Y-127816505D01*
X128607866Y-127812921D01*
X128598848Y-127808914D01*
X128585895Y-127802115D01*
X128573634Y-127794366D01*
X128562064Y-127785668D01*
X128551186Y-127776022D01*
X128541103Y-127765497D01*
X128532012Y-127754255D01*
X128523912Y-127742296D01*
X128516805Y-127729620D01*
X128512617Y-127720770D01*
X128508871Y-127711603D01*
X128505565Y-127702116D01*
X128502700Y-127692311D01*
X128500275Y-127682188D01*
X128498292Y-127671745D01*
X128496749Y-127660984D01*
X128495647Y-127649905D01*
X128494986Y-127638506D01*
X128494766Y-127626789D01*
X128494766Y-127586001D01*
X128656210Y-127586001D01*
X128656306Y-127591395D01*
X128657073Y-127601671D01*
X128659662Y-127615799D01*
X128663977Y-127628387D01*
X128670018Y-127639433D01*
X128677784Y-127648938D01*
X128687277Y-127656901D01*
X128698495Y-127663323D01*
X128711440Y-127668204D01*
X128721028Y-127670601D01*
X128731384Y-127672314D01*
X128742506Y-127673342D01*
X128754396Y-127673684D01*
X128869678Y-127673684D01*
X128869678Y-126907739D01*
X128750244Y-126907739D01*
X128738857Y-126908075D01*
X128728205Y-126909086D01*
X128713604Y-126911864D01*
X128700656Y-126916158D01*
X128689361Y-126921968D01*
X128679719Y-126929293D01*
X128671729Y-126938134D01*
X128665393Y-126948490D01*
X128660710Y-126960362D01*
X128657680Y-126973749D01*
X128656578Y-126983516D01*
X128656210Y-126993956D01*
X128656210Y-127586001D01*
X128494766Y-127586001D01*
X128494766Y-126954633D01*
X128494821Y-126948765D01*
X128495262Y-126937264D01*
X128496143Y-126926079D01*
X128497466Y-126915208D01*
X128499229Y-126904652D01*
X128501433Y-126894411D01*
X128504077Y-126884485D01*
X128507163Y-126874874D01*
X128510689Y-126865577D01*
X128516805Y-126852223D01*
X128523912Y-126839577D01*
X128532012Y-126827639D01*
X128541103Y-126816410D01*
X128551186Y-126805889D01*
X128554735Y-126802538D01*
X128565844Y-126793124D01*
X128577644Y-126784667D01*
X128590136Y-126777167D01*
X128598848Y-126772699D01*
X128607866Y-126768657D01*
X128617192Y-126765040D01*
X128626826Y-126761848D01*
X128636766Y-126759082D01*
X128647014Y-126756742D01*
X128657569Y-126754827D01*
X128668431Y-126753338D01*
X128679600Y-126752274D01*
X128691077Y-126751636D01*
X128702861Y-126751423D01*
X129030635Y-126751423D01*
X129030635Y-127830000D01*
G37*
G36*
X127928122Y-127830000D02*
G01*
X128374110Y-127830000D01*
X128374110Y-126751423D01*
X127932274Y-126751423D01*
X127932274Y-126907739D01*
X128213154Y-126907739D01*
X128213154Y-127204738D01*
X127971353Y-127204738D01*
X127971353Y-127361053D01*
X128213154Y-127361053D01*
X128213154Y-127673684D01*
X127928122Y-127673684D01*
X127928122Y-127830000D01*
G37*
G36*
X127369295Y-127830000D02*
G01*
X127530006Y-127830000D01*
X127530006Y-126751423D01*
X127369295Y-126751423D01*
X127369295Y-127830000D01*
G37*
G36*
X126694940Y-127830000D02*
G01*
X126835868Y-127830000D01*
X127093545Y-127151249D01*
X127091083Y-127163312D01*
X127088950Y-127174711D01*
X127087145Y-127185446D01*
X127085668Y-127195518D01*
X127084283Y-127207173D01*
X127083411Y-127217790D01*
X127083042Y-127229162D01*
X127083042Y-127830000D01*
X127239846Y-127830000D01*
X127239846Y-126751423D01*
X127098918Y-126751423D01*
X126841242Y-127416496D01*
X126843703Y-127404433D01*
X126845836Y-127393034D01*
X126847642Y-127382299D01*
X126849118Y-127372227D01*
X126850503Y-127360572D01*
X126851375Y-127349954D01*
X126851744Y-127338583D01*
X126851744Y-126751423D01*
X126694940Y-126751423D01*
X126694940Y-127830000D01*
G37*
G36*
X125739462Y-127830000D02*
G01*
X125916538Y-127830000D01*
X126120481Y-127352749D01*
X126120481Y-127830000D01*
X126281437Y-127830000D01*
X126281437Y-126751423D01*
X126120481Y-126751423D01*
X126120481Y-127211821D01*
X125941939Y-126751423D01*
X125766085Y-126751423D01*
X125766085Y-126758995D01*
X125984682Y-127275080D01*
X125739462Y-127830000D01*
G37*
G36*
X125232658Y-127830000D02*
G01*
X125678646Y-127830000D01*
X125678646Y-126751423D01*
X125236810Y-126751423D01*
X125236810Y-126907739D01*
X125517690Y-126907739D01*
X125517690Y-127204738D01*
X125275889Y-127204738D01*
X125275889Y-127361053D01*
X125517690Y-127361053D01*
X125517690Y-127673684D01*
X125232658Y-127673684D01*
X125232658Y-127830000D01*
G37*
G36*
X124580774Y-127830000D02*
G01*
X124721702Y-127830000D01*
X124979378Y-127151249D01*
X124976917Y-127163312D01*
X124974784Y-127174711D01*
X124972978Y-127185446D01*
X124971502Y-127195518D01*
X124970117Y-127207173D01*
X124969245Y-127217790D01*
X124968876Y-127229162D01*
X124968876Y-127830000D01*
X125125680Y-127830000D01*
X125125680Y-126751423D01*
X124984752Y-126751423D01*
X124727076Y-127416496D01*
X124729537Y-127404433D01*
X124731670Y-127393034D01*
X124733475Y-127382299D01*
X124734952Y-127372227D01*
X124736337Y-127360572D01*
X124737209Y-127349954D01*
X124737578Y-127338583D01*
X124737578Y-126751423D01*
X124580774Y-126751423D01*
X124580774Y-127830000D01*
G37*
G36*
X123914724Y-126757773D02*
G01*
X124056873Y-127208401D01*
X124061936Y-127221754D01*
X124065493Y-127231551D01*
X124069195Y-127242063D01*
X124073042Y-127253290D01*
X124077034Y-127265233D01*
X124081171Y-127277892D01*
X124085452Y-127291266D01*
X124089879Y-127305356D01*
X124094451Y-127320161D01*
X124099168Y-127335682D01*
X124104030Y-127351919D01*
X124109037Y-127368871D01*
X124114189Y-127386538D01*
X124119486Y-127404921D01*
X124122189Y-127414381D01*
X124124928Y-127424020D01*
X124127704Y-127433838D01*
X124127704Y-127830000D01*
X124289148Y-127830000D01*
X124289148Y-127433838D01*
X124291293Y-127423707D01*
X124293605Y-127413464D01*
X124296084Y-127403110D01*
X124298731Y-127392645D01*
X124301545Y-127382067D01*
X124304527Y-127371378D01*
X124307676Y-127360578D01*
X124310993Y-127349665D01*
X124314477Y-127338642D01*
X124318128Y-127327506D01*
X124320655Y-127320020D01*
X124325074Y-127307563D01*
X124329231Y-127295837D01*
X124333126Y-127284841D01*
X124336760Y-127274576D01*
X124340133Y-127265042D01*
X124344702Y-127252111D01*
X124348682Y-127240825D01*
X124352075Y-127231183D01*
X124355683Y-127220884D01*
X124359135Y-127210918D01*
X124359979Y-127208401D01*
X124501395Y-126757529D01*
X124501395Y-126751423D01*
X124335799Y-126751423D01*
X124207327Y-127220858D01*
X124079588Y-126751423D01*
X123914724Y-126751423D01*
X123914724Y-126757773D01*
G37*
G36*
X123875157Y-127827313D02*
G01*
X123875157Y-127830000D01*
X123716399Y-127830000D01*
X123684159Y-127642421D01*
X123482903Y-127642421D01*
X123450662Y-127830000D01*
X123291172Y-127830000D01*
X123357132Y-127486106D01*
X123505617Y-127486106D01*
X123662909Y-127486106D01*
X123583775Y-127000795D01*
X123505617Y-127486106D01*
X123357132Y-127486106D01*
X123498046Y-126751423D01*
X123667062Y-126751423D01*
X123875157Y-127827313D01*
G37*
D11*
X140529761Y-81910952D02*
X140148809Y-81910952D01*
X140386904Y-81577619D02*
X140386904Y-82434761D01*
X140386904Y-82434761D02*
X140339285Y-82530000D01*
X140339285Y-82530000D02*
X140244047Y-82577619D01*
X140244047Y-82577619D02*
X140148809Y-82577619D01*
X139815475Y-82577619D02*
X139815475Y-81577619D01*
X139386904Y-82577619D02*
X139386904Y-82053809D01*
X139386904Y-82053809D02*
X139434523Y-81958571D01*
X139434523Y-81958571D02*
X139529761Y-81910952D01*
X139529761Y-81910952D02*
X139672618Y-81910952D01*
X139672618Y-81910952D02*
X139767856Y-81958571D01*
X139767856Y-81958571D02*
X139815475Y-82006190D01*
X138529761Y-82530000D02*
X138624999Y-82577619D01*
X138624999Y-82577619D02*
X138815475Y-82577619D01*
X138815475Y-82577619D02*
X138910713Y-82530000D01*
X138910713Y-82530000D02*
X138958332Y-82434761D01*
X138958332Y-82434761D02*
X138958332Y-82053809D01*
X138958332Y-82053809D02*
X138910713Y-81958571D01*
X138910713Y-81958571D02*
X138815475Y-81910952D01*
X138815475Y-81910952D02*
X138624999Y-81910952D01*
X138624999Y-81910952D02*
X138529761Y-81958571D01*
X138529761Y-81958571D02*
X138482142Y-82053809D01*
X138482142Y-82053809D02*
X138482142Y-82149047D01*
X138482142Y-82149047D02*
X138958332Y-82244285D01*
X138053570Y-82577619D02*
X138053570Y-81910952D01*
X138053570Y-82101428D02*
X138005951Y-82006190D01*
X138005951Y-82006190D02*
X137958332Y-81958571D01*
X137958332Y-81958571D02*
X137863094Y-81910952D01*
X137863094Y-81910952D02*
X137767856Y-81910952D01*
X137434522Y-82577619D02*
X137434522Y-81910952D01*
X137434522Y-82006190D02*
X137386903Y-81958571D01*
X137386903Y-81958571D02*
X137291665Y-81910952D01*
X137291665Y-81910952D02*
X137148808Y-81910952D01*
X137148808Y-81910952D02*
X137053570Y-81958571D01*
X137053570Y-81958571D02*
X137005951Y-82053809D01*
X137005951Y-82053809D02*
X137005951Y-82577619D01*
X137005951Y-82053809D02*
X136958332Y-81958571D01*
X136958332Y-81958571D02*
X136863094Y-81910952D01*
X136863094Y-81910952D02*
X136720237Y-81910952D01*
X136720237Y-81910952D02*
X136624998Y-81958571D01*
X136624998Y-81958571D02*
X136577379Y-82053809D01*
X136577379Y-82053809D02*
X136577379Y-82577619D01*
X136101189Y-82196666D02*
X135339285Y-82196666D01*
X178817857Y-85767380D02*
X178865476Y-85815000D01*
X178865476Y-85815000D02*
X179008333Y-85862619D01*
X179008333Y-85862619D02*
X179103571Y-85862619D01*
X179103571Y-85862619D02*
X179246428Y-85815000D01*
X179246428Y-85815000D02*
X179341666Y-85719761D01*
X179341666Y-85719761D02*
X179389285Y-85624523D01*
X179389285Y-85624523D02*
X179436904Y-85434047D01*
X179436904Y-85434047D02*
X179436904Y-85291190D01*
X179436904Y-85291190D02*
X179389285Y-85100714D01*
X179389285Y-85100714D02*
X179341666Y-85005476D01*
X179341666Y-85005476D02*
X179246428Y-84910238D01*
X179246428Y-84910238D02*
X179103571Y-84862619D01*
X179103571Y-84862619D02*
X179008333Y-84862619D01*
X179008333Y-84862619D02*
X178865476Y-84910238D01*
X178865476Y-84910238D02*
X178817857Y-84957857D01*
X177865476Y-85862619D02*
X178436904Y-85862619D01*
X178151190Y-85862619D02*
X178151190Y-84862619D01*
X178151190Y-84862619D02*
X178246428Y-85005476D01*
X178246428Y-85005476D02*
X178341666Y-85100714D01*
X178341666Y-85100714D02*
X178436904Y-85148333D01*
X176960714Y-84862619D02*
X177436904Y-84862619D01*
X177436904Y-84862619D02*
X177484523Y-85338809D01*
X177484523Y-85338809D02*
X177436904Y-85291190D01*
X177436904Y-85291190D02*
X177341666Y-85243571D01*
X177341666Y-85243571D02*
X177103571Y-85243571D01*
X177103571Y-85243571D02*
X177008333Y-85291190D01*
X177008333Y-85291190D02*
X176960714Y-85338809D01*
X176960714Y-85338809D02*
X176913095Y-85434047D01*
X176913095Y-85434047D02*
X176913095Y-85672142D01*
X176913095Y-85672142D02*
X176960714Y-85767380D01*
X176960714Y-85767380D02*
X177008333Y-85815000D01*
X177008333Y-85815000D02*
X177103571Y-85862619D01*
X177103571Y-85862619D02*
X177341666Y-85862619D01*
X177341666Y-85862619D02*
X177436904Y-85815000D01*
X177436904Y-85815000D02*
X177484523Y-85767380D01*
X178742857Y-87167380D02*
X178790476Y-87215000D01*
X178790476Y-87215000D02*
X178933333Y-87262619D01*
X178933333Y-87262619D02*
X179028571Y-87262619D01*
X179028571Y-87262619D02*
X179171428Y-87215000D01*
X179171428Y-87215000D02*
X179266666Y-87119761D01*
X179266666Y-87119761D02*
X179314285Y-87024523D01*
X179314285Y-87024523D02*
X179361904Y-86834047D01*
X179361904Y-86834047D02*
X179361904Y-86691190D01*
X179361904Y-86691190D02*
X179314285Y-86500714D01*
X179314285Y-86500714D02*
X179266666Y-86405476D01*
X179266666Y-86405476D02*
X179171428Y-86310238D01*
X179171428Y-86310238D02*
X179028571Y-86262619D01*
X179028571Y-86262619D02*
X178933333Y-86262619D01*
X178933333Y-86262619D02*
X178790476Y-86310238D01*
X178790476Y-86310238D02*
X178742857Y-86357857D01*
X177790476Y-87262619D02*
X178361904Y-87262619D01*
X178076190Y-87262619D02*
X178076190Y-86262619D01*
X178076190Y-86262619D02*
X178171428Y-86405476D01*
X178171428Y-86405476D02*
X178266666Y-86500714D01*
X178266666Y-86500714D02*
X178361904Y-86548333D01*
X177457142Y-86262619D02*
X176790476Y-86262619D01*
X176790476Y-86262619D02*
X177219047Y-87262619D01*
D12*
X130950000Y-68000000D02*
X133450000Y-68000000D01*
X132200000Y-66750000D02*
X132200000Y-69250000D01*
X136060000Y-51560000D02*
X136060000Y-58560000D01*
X136060000Y-65440000D02*
X131700000Y-65440000D01*
X136060000Y-72440000D02*
X136060000Y-65440000D01*
X213340000Y-51560000D02*
X136060000Y-51560000D01*
X213340000Y-58560000D02*
X213340000Y-51560000D01*
X213340000Y-65440000D02*
X213340000Y-72420000D01*
X213340000Y-72440000D02*
X136060000Y-72440000D01*
X218450000Y-68000000D02*
X215950000Y-68000000D01*
X175567164Y-85140000D02*
X175782836Y-85140000D01*
X175567164Y-85860000D02*
X175782836Y-85860000D01*
D13*
X141950000Y-82050000D02*
G75*
G03*
X141950000Y-82050000I-650000J0D01*
G01*
D12*
X175587164Y-86240000D02*
X175802836Y-86240000D01*
X175587164Y-86960000D02*
X175802836Y-86960000D01*
G36*
X129933661Y-53524589D02*
G01*
X130093414Y-53583800D01*
X130224898Y-53690578D01*
X130314124Y-53829721D01*
X130347103Y-53986021D01*
X130341445Y-54040924D01*
X130287841Y-54177183D01*
X130190548Y-54303586D01*
X130065483Y-54396909D01*
X129939164Y-54437181D01*
X129783313Y-54430593D01*
X129636911Y-54372408D01*
X129514400Y-54271685D01*
X129430221Y-54137479D01*
X129398818Y-53978846D01*
X129429403Y-53837698D01*
X129513278Y-53705392D01*
X129634046Y-53599173D01*
X129775289Y-53533402D01*
X129920590Y-53522439D01*
X129933661Y-53524589D01*
G37*
G36*
X128555533Y-54263485D02*
G01*
X128540388Y-54361536D01*
X128469980Y-54483324D01*
X128354981Y-54566467D01*
X128209624Y-54597233D01*
X128164261Y-54595567D01*
X128059865Y-54567407D01*
X127963704Y-54491839D01*
X127896043Y-54429160D01*
X127830183Y-54393438D01*
X127780016Y-54414006D01*
X127730483Y-54490798D01*
X127686984Y-54557924D01*
X127586162Y-54641931D01*
X127433380Y-54704419D01*
X127364114Y-54718569D01*
X127296712Y-54717146D01*
X127281007Y-54712911D01*
X127202796Y-54702628D01*
X127160526Y-54695363D01*
X127068513Y-54637409D01*
X126983682Y-54536832D01*
X126917022Y-54412094D01*
X126879523Y-54281656D01*
X126880994Y-54216370D01*
X127152790Y-54216370D01*
X127161937Y-54319223D01*
X127205483Y-54401501D01*
X127244755Y-54431294D01*
X127341031Y-54453236D01*
X127435766Y-54424868D01*
X127507988Y-54355500D01*
X127536722Y-54254445D01*
X127526996Y-54201662D01*
X127468884Y-54123458D01*
X127378304Y-54076144D01*
X127278430Y-54069278D01*
X127192435Y-54112420D01*
X127179635Y-54128275D01*
X127152790Y-54216370D01*
X126880994Y-54216370D01*
X126882174Y-54163981D01*
X126891756Y-54133046D01*
X126968057Y-54002444D01*
X127084607Y-53890405D01*
X127217850Y-53820998D01*
X127224034Y-53819163D01*
X127316858Y-53800386D01*
X127401165Y-53810242D01*
X127511383Y-53852416D01*
X127638486Y-53927832D01*
X127728353Y-54032052D01*
X127764903Y-54092665D01*
X127818479Y-54132468D01*
X127883382Y-54112926D01*
X127972937Y-54034155D01*
X128002220Y-54005977D01*
X128097075Y-53946080D01*
X128212776Y-53929737D01*
X128312233Y-53944273D01*
X128437578Y-54012500D01*
X128523589Y-54123685D01*
X128553467Y-54254445D01*
X128555533Y-54263485D01*
G37*
G36*
X133579150Y-54299573D02*
G01*
X133543778Y-54468833D01*
X133454960Y-54613901D01*
X133324401Y-54715111D01*
X133157528Y-54763151D01*
X132992327Y-54748492D01*
X132845573Y-54674743D01*
X132732530Y-54546258D01*
X132658966Y-54421576D01*
X132290854Y-54421576D01*
X132210532Y-54421676D01*
X132070958Y-54423850D01*
X131978428Y-54431552D01*
X131916808Y-54448253D01*
X131869967Y-54477427D01*
X131821773Y-54522546D01*
X131687713Y-54619067D01*
X131550248Y-54648860D01*
X131418363Y-54611520D01*
X131300395Y-54507291D01*
X131275613Y-54471704D01*
X131229082Y-54340193D01*
X131234366Y-54270609D01*
X132948435Y-54270609D01*
X132950736Y-54370914D01*
X132989115Y-54449681D01*
X133012003Y-54467823D01*
X133104842Y-54492848D01*
X133204697Y-54471720D01*
X133280829Y-54408753D01*
X133286234Y-54400095D01*
X133314381Y-54298787D01*
X133287801Y-54207399D01*
X133220573Y-54140534D01*
X133126777Y-54112792D01*
X133020492Y-54138774D01*
X132979025Y-54180325D01*
X132948435Y-54270609D01*
X131234366Y-54270609D01*
X131239011Y-54209435D01*
X131296248Y-54093141D01*
X131391641Y-54005020D01*
X131516038Y-53958784D01*
X131660286Y-53968143D01*
X131672036Y-53971673D01*
X131772738Y-54022063D01*
X131844691Y-54089571D01*
X131857696Y-54108632D01*
X131887524Y-54140219D01*
X131930701Y-54159919D01*
X132001454Y-54170527D01*
X132114011Y-54174840D01*
X132282599Y-54175657D01*
X132664102Y-54175657D01*
X132720195Y-54067184D01*
X132796932Y-53973834D01*
X132937165Y-53887547D01*
X132943374Y-53884811D01*
X133051798Y-53844202D01*
X133135898Y-53835811D01*
X133230029Y-53855929D01*
X133329816Y-53899287D01*
X133458693Y-54003895D01*
X133546731Y-54139110D01*
X133579323Y-54286909D01*
X133579161Y-54298787D01*
X133579150Y-54299573D01*
G37*
G36*
X128551567Y-53364347D02*
G01*
X128541297Y-53497889D01*
X128475986Y-53620162D01*
X128355837Y-53714837D01*
X128246325Y-53750733D01*
X128113035Y-53734567D01*
X127988026Y-53648686D01*
X127980627Y-53641310D01*
X127929339Y-53594647D01*
X127878457Y-53565779D01*
X127810315Y-53550442D01*
X127707246Y-53544368D01*
X127551586Y-53543291D01*
X127415404Y-53544908D01*
X127300764Y-53552199D01*
X127239000Y-53566591D01*
X127220540Y-53589416D01*
X127220086Y-53594453D01*
X127188806Y-53651776D01*
X127123364Y-53725005D01*
X127044916Y-53793032D01*
X126974620Y-53834752D01*
X126968413Y-53836767D01*
X126892621Y-53849859D01*
X126791402Y-53856700D01*
X126685465Y-53839149D01*
X126553585Y-53765591D01*
X126443091Y-53648073D01*
X126371118Y-53501093D01*
X126362196Y-53470141D01*
X126347421Y-53384669D01*
X126347981Y-53381691D01*
X126600048Y-53381691D01*
X126602639Y-53432145D01*
X126647821Y-53501388D01*
X126653427Y-53508759D01*
X126746130Y-53588821D01*
X126843082Y-53601404D01*
X126937328Y-53545452D01*
X126997613Y-53448612D01*
X127000383Y-53340872D01*
X126940904Y-53245956D01*
X126920607Y-53230057D01*
X126823636Y-53201592D01*
X126722441Y-53232223D01*
X126635958Y-53317506D01*
X126600048Y-53381691D01*
X126347981Y-53381691D01*
X126361693Y-53308718D01*
X126409502Y-53207988D01*
X126435062Y-53164314D01*
X126554532Y-53033663D01*
X126698766Y-52962032D01*
X126855058Y-52950981D01*
X127010702Y-53002066D01*
X127152993Y-53116845D01*
X127278669Y-53257604D01*
X127576901Y-53264776D01*
X127680794Y-53266701D01*
X127792471Y-53264269D01*
X127864869Y-53251806D01*
X127916627Y-53225289D01*
X127966388Y-53180695D01*
X128090615Y-53089147D01*
X128224728Y-53060876D01*
X128363473Y-53102318D01*
X128406167Y-53128769D01*
X128506592Y-53235864D01*
X128543350Y-53340872D01*
X128551567Y-53364347D01*
G37*
G36*
X131915956Y-57302994D02*
G01*
X131848483Y-57453238D01*
X131734675Y-57576186D01*
X131589391Y-57652317D01*
X131566586Y-57658325D01*
X131408050Y-57662852D01*
X131258547Y-57610747D01*
X131133126Y-57513170D01*
X131046838Y-57381277D01*
X131014731Y-57226229D01*
X131017064Y-57180956D01*
X131021526Y-57163959D01*
X131270422Y-57163959D01*
X131273636Y-57266391D01*
X131341960Y-57366490D01*
X131372164Y-57394814D01*
X131422652Y-57433203D01*
X131467025Y-57432624D01*
X131538253Y-57398444D01*
X131640079Y-57324633D01*
X131676179Y-57237946D01*
X131645988Y-57135174D01*
X131623787Y-57102620D01*
X131533618Y-57038371D01*
X131427011Y-57028310D01*
X131327806Y-57076808D01*
X131270422Y-57163959D01*
X131021526Y-57163959D01*
X131056891Y-57029228D01*
X131136213Y-56900334D01*
X131242222Y-56817297D01*
X131283662Y-56793770D01*
X131321361Y-56739212D01*
X131330913Y-56642634D01*
X131324381Y-56548578D01*
X131295887Y-56483535D01*
X131233415Y-56445799D01*
X131124961Y-56428325D01*
X130958520Y-56424066D01*
X130834290Y-56424889D01*
X130734147Y-56431472D01*
X130666610Y-56449940D01*
X130611211Y-56486417D01*
X130547483Y-56547026D01*
X130510707Y-56581869D01*
X130403068Y-56652531D01*
X130296349Y-56662999D01*
X130170874Y-56616925D01*
X130080988Y-56554755D01*
X130015703Y-56450259D01*
X129995920Y-56301819D01*
X129996283Y-56287571D01*
X130035090Y-56154577D01*
X130127127Y-56046592D01*
X130257062Y-55982373D01*
X130296337Y-55976547D01*
X130413548Y-55991295D01*
X130523756Y-56040685D01*
X130595732Y-56112702D01*
X130605443Y-56128089D01*
X130638248Y-56153997D01*
X130697668Y-56169281D01*
X130798236Y-56176612D01*
X130954487Y-56178664D01*
X131020077Y-56179532D01*
X131235171Y-56198503D01*
X131392179Y-56245712D01*
X131497835Y-56325702D01*
X131558875Y-56443021D01*
X131582034Y-56602213D01*
X131592460Y-56707571D01*
X131623126Y-56771865D01*
X131686952Y-56819730D01*
X131723918Y-56844446D01*
X131825500Y-56949905D01*
X131899384Y-57080329D01*
X131928016Y-57207484D01*
X131924170Y-57237946D01*
X131915956Y-57302994D01*
G37*
G36*
X130387100Y-51259721D02*
G01*
X130423088Y-51316652D01*
X130442753Y-51384465D01*
X130450973Y-51482948D01*
X130452628Y-51631887D01*
X130453432Y-51754218D01*
X130459395Y-51859862D01*
X130475502Y-51929618D01*
X130506722Y-51982632D01*
X130558022Y-52038046D01*
X130599711Y-52086872D01*
X130659997Y-52219520D01*
X130661454Y-52356273D01*
X130606027Y-52480386D01*
X130495659Y-52575112D01*
X130409753Y-52613127D01*
X130296376Y-52622642D01*
X130170874Y-52576814D01*
X130113811Y-52540303D01*
X130024392Y-52432148D01*
X129991099Y-52301511D01*
X130016037Y-52164705D01*
X130101314Y-52038046D01*
X130120168Y-52018874D01*
X130167512Y-51961331D01*
X130193502Y-51899163D01*
X130204460Y-51810505D01*
X130206708Y-51673490D01*
X130202256Y-51543518D01*
X130187494Y-51430810D01*
X130164551Y-51372171D01*
X130150250Y-51363239D01*
X130065482Y-51344742D01*
X129912121Y-51333686D01*
X129689524Y-51330013D01*
X129535510Y-51330402D01*
X129402929Y-51333099D01*
X129317682Y-51340245D01*
X129267208Y-51353972D01*
X129238949Y-51376413D01*
X129220346Y-51409703D01*
X129196336Y-51451210D01*
X129095343Y-51549432D01*
X128960209Y-51619443D01*
X128816844Y-51646065D01*
X128702042Y-51633410D01*
X128552267Y-51569914D01*
X128441900Y-51464544D01*
X128376321Y-51330314D01*
X128360907Y-51180236D01*
X128365058Y-51164419D01*
X128613093Y-51164419D01*
X128616959Y-51265182D01*
X128688755Y-51356362D01*
X128703249Y-51366957D01*
X128801511Y-51401920D01*
X128891822Y-51382957D01*
X128962603Y-51324124D01*
X129002275Y-51239476D01*
X128999260Y-51143070D01*
X128941978Y-51048962D01*
X128936699Y-51043762D01*
X128851843Y-50987539D01*
X128769077Y-50995013D01*
X128674714Y-51067113D01*
X128613093Y-51164419D01*
X128365058Y-51164419D01*
X128401039Y-51027323D01*
X128502093Y-50884587D01*
X128621396Y-50800591D01*
X128775729Y-50759655D01*
X128933520Y-50774232D01*
X129076995Y-50842320D01*
X129188382Y-50961916D01*
X129259749Y-51077392D01*
X129753715Y-51089525D01*
X130247681Y-51101659D01*
X130350155Y-51216391D01*
X130369838Y-51239476D01*
X130387100Y-51259721D01*
G37*
G36*
X128363819Y-57289097D02*
G01*
X128342236Y-57355956D01*
X128261233Y-57480097D01*
X128145646Y-57584990D01*
X128017487Y-57647834D01*
X127901205Y-57659914D01*
X127751652Y-57624947D01*
X127617845Y-57543503D01*
X127513409Y-57427680D01*
X127451964Y-57289577D01*
X127448086Y-57170541D01*
X127714779Y-57170541D01*
X127724950Y-57267318D01*
X127776625Y-57349603D01*
X127801395Y-57369135D01*
X127901712Y-57404198D01*
X127997971Y-57384562D01*
X128070299Y-57318560D01*
X128098825Y-57214522D01*
X128073572Y-57115064D01*
X128001015Y-57046255D01*
X127897705Y-57024383D01*
X127780332Y-57057667D01*
X127745756Y-57087426D01*
X127714779Y-57170541D01*
X127448086Y-57170541D01*
X127447133Y-57141291D01*
X127466921Y-57078795D01*
X127522552Y-56975582D01*
X127595814Y-56877483D01*
X127671295Y-56804187D01*
X127733584Y-56775380D01*
X127769767Y-56745912D01*
X127782642Y-56651292D01*
X127782694Y-56643754D01*
X127809500Y-56476161D01*
X127878119Y-56329254D01*
X127977863Y-56226304D01*
X127997297Y-56214641D01*
X128050774Y-56192873D01*
X128125131Y-56178014D01*
X128232707Y-56168784D01*
X128385843Y-56163903D01*
X128596878Y-56162091D01*
X128604056Y-56162068D01*
X128822670Y-56158793D01*
X128989928Y-56150963D01*
X129099552Y-56139022D01*
X129145265Y-56123413D01*
X129217153Y-56053704D01*
X129331488Y-55992200D01*
X129445148Y-55967358D01*
X129551481Y-55997484D01*
X129670130Y-56091250D01*
X129697661Y-56119277D01*
X129758422Y-56193624D01*
X129779814Y-56259799D01*
X129773231Y-56345953D01*
X129745955Y-56435077D01*
X129665230Y-56553753D01*
X129553559Y-56637970D01*
X129429750Y-56669986D01*
X129410858Y-56669248D01*
X129308717Y-56636133D01*
X129198437Y-56547026D01*
X129075477Y-56424066D01*
X128588387Y-56424066D01*
X128417997Y-56424590D01*
X128273426Y-56427409D01*
X128177501Y-56434047D01*
X128118553Y-56446018D01*
X128084918Y-56464838D01*
X128064929Y-56492019D01*
X128028824Y-56610459D01*
X128057936Y-56719000D01*
X128155151Y-56823687D01*
X128174646Y-56839880D01*
X128293580Y-56977852D01*
X128359139Y-57133172D01*
X128361581Y-57214522D01*
X128363819Y-57289097D01*
G37*
G36*
X127248270Y-51067474D02*
G01*
X127232201Y-51261242D01*
X127744558Y-51624194D01*
X127868403Y-51711961D01*
X128074709Y-51857806D01*
X128236310Y-51970208D01*
X128361765Y-52053693D01*
X128459633Y-52112790D01*
X128538473Y-52152028D01*
X128606844Y-52175935D01*
X128673307Y-52189039D01*
X128746420Y-52195867D01*
X128834742Y-52200950D01*
X128905098Y-52204790D01*
X129017561Y-52207773D01*
X129082639Y-52200724D01*
X129115938Y-52180704D01*
X129133062Y-52144775D01*
X129163988Y-52089320D01*
X129253316Y-52011842D01*
X129368814Y-51959354D01*
X129483555Y-51947047D01*
X129566812Y-51973324D01*
X129674630Y-52053326D01*
X129754139Y-52163494D01*
X129785132Y-52281425D01*
X129778993Y-52359672D01*
X129727081Y-52484839D01*
X129617374Y-52575112D01*
X129511469Y-52617278D01*
X129376941Y-52616301D01*
X129243757Y-52546840D01*
X129188737Y-52510744D01*
X129108024Y-52479191D01*
X128997013Y-52459346D01*
X128835735Y-52446286D01*
X128755289Y-52441030D01*
X128650439Y-52430088D01*
X128555823Y-52411226D01*
X128461855Y-52379679D01*
X128358951Y-52330682D01*
X128237527Y-52259470D01*
X128087996Y-52161278D01*
X127900774Y-52031340D01*
X127666276Y-51864892D01*
X127075637Y-51443850D01*
X126850672Y-51461908D01*
X126812914Y-51464877D01*
X126703027Y-51469801D01*
X126631628Y-51458696D01*
X126573722Y-51424107D01*
X126504317Y-51358577D01*
X126425269Y-51259565D01*
X126364075Y-51107009D01*
X126363153Y-51057254D01*
X126596899Y-51057254D01*
X126658437Y-51154356D01*
X126674942Y-51169585D01*
X126776675Y-51219833D01*
X126877931Y-51208631D01*
X126960117Y-51137047D01*
X126997788Y-51046565D01*
X126989888Y-50949992D01*
X126937254Y-50876385D01*
X126853758Y-50836357D01*
X126753268Y-50840519D01*
X126649654Y-50899487D01*
X126602544Y-50962313D01*
X126596899Y-51057254D01*
X126363153Y-51057254D01*
X126361252Y-50954624D01*
X126411588Y-50814690D01*
X126509872Y-50699485D01*
X126650895Y-50621291D01*
X126829445Y-50592385D01*
X126866510Y-50593017D01*
X126955178Y-50606876D01*
X127031558Y-50649075D01*
X127123612Y-50732980D01*
X127200696Y-50813855D01*
X127242336Y-50879392D01*
X127254529Y-50954098D01*
X127249424Y-51046565D01*
X127248270Y-51067474D01*
G37*
G36*
X127195488Y-57008416D02*
G01*
X127109935Y-57160286D01*
X126967584Y-57272724D01*
X126864148Y-57317038D01*
X126723551Y-57330790D01*
X126575918Y-57283623D01*
X126567668Y-57279513D01*
X126433900Y-57177395D01*
X126350288Y-57043027D01*
X126317650Y-56891792D01*
X126324784Y-56834908D01*
X126565464Y-56834908D01*
X126565847Y-56900643D01*
X126612145Y-56978400D01*
X126678221Y-57050379D01*
X126757768Y-57080412D01*
X126859392Y-57056145D01*
X126884986Y-57041755D01*
X126944658Y-56966597D01*
X126970326Y-56868813D01*
X126951097Y-56781073D01*
X126941413Y-56766852D01*
X126853829Y-56695131D01*
X126750133Y-56676443D01*
X126651943Y-56709979D01*
X126580878Y-56794930D01*
X126565464Y-56834908D01*
X126324784Y-56834908D01*
X126336803Y-56739069D01*
X126408565Y-56600241D01*
X126533755Y-56490690D01*
X126658437Y-56417126D01*
X126658437Y-55936200D01*
X126658746Y-55817562D01*
X126661609Y-55650864D01*
X126669036Y-55530911D01*
X126682907Y-55442608D01*
X126705096Y-55370863D01*
X126737483Y-55300579D01*
X126801972Y-55186853D01*
X126870525Y-55104640D01*
X126955263Y-55050891D01*
X127069645Y-55019926D01*
X127227133Y-55006063D01*
X127441187Y-55003623D01*
X127571337Y-55004042D01*
X127711630Y-55002197D01*
X127804813Y-54995465D01*
X127864631Y-54981647D01*
X127904826Y-54958544D01*
X127939145Y-54923958D01*
X127947393Y-54914851D01*
X128066252Y-54830305D01*
X128201944Y-54800462D01*
X128332740Y-54830481D01*
X128435458Y-54897956D01*
X128501282Y-54995855D01*
X128520401Y-55133621D01*
X128519628Y-55163694D01*
X128493302Y-55273985D01*
X128417710Y-55372826D01*
X128348552Y-55429199D01*
X128216064Y-55477725D01*
X128081172Y-55458015D01*
X127952894Y-55370124D01*
X127915376Y-55333666D01*
X127871078Y-55300245D01*
X127817901Y-55279867D01*
X127740499Y-55269307D01*
X127623526Y-55265336D01*
X127451636Y-55264730D01*
X127354869Y-55264773D01*
X127193355Y-55268631D01*
X127078085Y-55285465D01*
X127000901Y-55324814D01*
X126953643Y-55396218D01*
X126928151Y-55509216D01*
X126916266Y-55673346D01*
X126909829Y-55898147D01*
X126897736Y-56383773D01*
X127059138Y-56538423D01*
X127131615Y-56610731D01*
X127189298Y-56684781D01*
X127214713Y-56756024D01*
X127220308Y-56848403D01*
X127217142Y-56868813D01*
X127195488Y-57008416D01*
G37*
G36*
X133283372Y-50959276D02*
G01*
X133253653Y-51042535D01*
X133187403Y-51151010D01*
X133106013Y-51244690D01*
X133028811Y-51297867D01*
X133015789Y-51323083D01*
X133004204Y-51396680D01*
X132994653Y-51522849D01*
X132986894Y-51706010D01*
X132980682Y-51950586D01*
X132975774Y-52260995D01*
X132974855Y-52332421D01*
X132970131Y-52627532D01*
X132963512Y-52862363D01*
X132953351Y-53045142D01*
X132937999Y-53184099D01*
X132915807Y-53287464D01*
X132885128Y-53363465D01*
X132844313Y-53420333D01*
X132791713Y-53466295D01*
X132725681Y-53509582D01*
X132719613Y-53513223D01*
X132649934Y-53545592D01*
X132563017Y-53565466D01*
X132441236Y-53575486D01*
X132266967Y-53578291D01*
X132118013Y-53579486D01*
X132004027Y-53585494D01*
X131927316Y-53599700D01*
X131870536Y-53625491D01*
X131816346Y-53666251D01*
X131728894Y-53722683D01*
X131578928Y-53754080D01*
X131455778Y-53731122D01*
X131350537Y-53659736D01*
X131283159Y-53554875D01*
X131256644Y-53431866D01*
X131273994Y-53306040D01*
X131338210Y-53192726D01*
X131452293Y-53107253D01*
X131518382Y-53083066D01*
X131662843Y-53075622D01*
X131792085Y-53126600D01*
X131888177Y-53230913D01*
X131917629Y-53277956D01*
X131952577Y-53308672D01*
X132007964Y-53324832D01*
X132100399Y-53331136D01*
X132246488Y-53332281D01*
X132342010Y-53330467D01*
X132509734Y-53311376D01*
X132620653Y-53268258D01*
X132682396Y-53197127D01*
X132702591Y-53093998D01*
X132702948Y-53068314D01*
X132704086Y-52973092D01*
X132705748Y-52825064D01*
X132707810Y-52635516D01*
X132710150Y-52415731D01*
X132712642Y-52176995D01*
X132721139Y-51355234D01*
X132588060Y-51216727D01*
X132528735Y-51150592D01*
X132450692Y-51027757D01*
X132426899Y-50906348D01*
X132427545Y-50902655D01*
X132685158Y-50902655D01*
X132720611Y-51004260D01*
X132787530Y-51068028D01*
X132874134Y-51076145D01*
X132961901Y-51016728D01*
X132993647Y-50971599D01*
X133013094Y-50877281D01*
X132979807Y-50795982D01*
X132904653Y-50745789D01*
X132798502Y-50744788D01*
X132776934Y-50751754D01*
X132705968Y-50811705D01*
X132685158Y-50902655D01*
X132427545Y-50902655D01*
X132451356Y-50766613D01*
X132509612Y-50644460D01*
X132629322Y-50529378D01*
X132790902Y-50466594D01*
X132834072Y-50461339D01*
X132981650Y-50483539D01*
X133114146Y-50558216D01*
X133217783Y-50671587D01*
X133278784Y-50809868D01*
X133280854Y-50877281D01*
X133283372Y-50959276D01*
G37*
G36*
X133403666Y-56918294D02*
G01*
X133403500Y-56935915D01*
X133391468Y-57029373D01*
X133350619Y-57108311D01*
X133267273Y-57201090D01*
X133250834Y-57217352D01*
X133162060Y-57293210D01*
X133082729Y-57328694D01*
X132984477Y-57337482D01*
X132970774Y-57337361D01*
X132791015Y-57306714D01*
X132654543Y-57221172D01*
X132559328Y-57079503D01*
X132538848Y-57029626D01*
X132520103Y-56948418D01*
X132768557Y-56948418D01*
X132806342Y-57038757D01*
X132870560Y-57083616D01*
X132964965Y-57090411D01*
X133058181Y-57053867D01*
X133129384Y-56982992D01*
X133157746Y-56886791D01*
X133143032Y-56815109D01*
X133080608Y-56738031D01*
X132988817Y-56698406D01*
X132889153Y-56703808D01*
X132803113Y-56761813D01*
X132769175Y-56840816D01*
X132768557Y-56948418D01*
X132520103Y-56948418D01*
X132512293Y-56914585D01*
X132524342Y-56797551D01*
X132527526Y-56784430D01*
X132585314Y-56649733D01*
X132674459Y-56538881D01*
X132776857Y-56474999D01*
X132788647Y-56470476D01*
X132812314Y-56450068D01*
X132827691Y-56407481D01*
X132836507Y-56330698D01*
X132840489Y-56207700D01*
X132841367Y-56026470D01*
X132837718Y-55806235D01*
X132823273Y-55600100D01*
X132796651Y-55451455D01*
X132756585Y-55353710D01*
X132701810Y-55300275D01*
X132665778Y-55289794D01*
X132566256Y-55276862D01*
X132427226Y-55268011D01*
X132266907Y-55264730D01*
X132175597Y-55264850D01*
X132039833Y-55267161D01*
X131949910Y-55275238D01*
X131889612Y-55292686D01*
X131842723Y-55323112D01*
X131793026Y-55370124D01*
X131696694Y-55441253D01*
X131565230Y-55477508D01*
X131438071Y-55457783D01*
X131329526Y-55388269D01*
X131253906Y-55275155D01*
X131225519Y-55124632D01*
X131227854Y-55072614D01*
X131257029Y-54980935D01*
X131333609Y-54898973D01*
X131394248Y-54855457D01*
X131532050Y-54807480D01*
X131666185Y-54826895D01*
X131787621Y-54913416D01*
X131825868Y-54952998D01*
X131867421Y-54985070D01*
X131919516Y-55004545D01*
X131997085Y-55014565D01*
X132115056Y-55018273D01*
X132288361Y-55018810D01*
X132307524Y-55018819D01*
X132481047Y-55020510D01*
X132601839Y-55026830D01*
X132685928Y-55040219D01*
X132749345Y-55063121D01*
X132808120Y-55097975D01*
X132833727Y-55115658D01*
X132921121Y-55187588D01*
X132984283Y-55268509D01*
X133027117Y-55370643D01*
X133053523Y-55506213D01*
X133067405Y-55687442D01*
X133072664Y-55926553D01*
X133076836Y-56431288D01*
X133188865Y-56502220D01*
X133286503Y-56583451D01*
X133374274Y-56731574D01*
X133398707Y-56886791D01*
X133403666Y-56918294D01*
G37*
G36*
X130979468Y-54302204D02*
G01*
X130979466Y-54468924D01*
X130979126Y-54741567D01*
X130977900Y-54956221D01*
X130975255Y-55120970D01*
X130975047Y-55126542D01*
X130970660Y-55243900D01*
X130963584Y-55333096D01*
X130953497Y-55396643D01*
X130939866Y-55442626D01*
X130922162Y-55479129D01*
X130899853Y-55514237D01*
X130891466Y-55526217D01*
X130800999Y-55622884D01*
X130697848Y-55696390D01*
X130659125Y-55713992D01*
X130603608Y-55730699D01*
X130530273Y-55742195D01*
X130428638Y-55749131D01*
X130288217Y-55752157D01*
X130098529Y-55751926D01*
X129849088Y-55749087D01*
X129808967Y-55748525D01*
X129557823Y-55744145D01*
X129365141Y-55737305D01*
X129220564Y-55725381D01*
X129113734Y-55705748D01*
X129034291Y-55675782D01*
X128971878Y-55632858D01*
X128916136Y-55574352D01*
X128856707Y-55497638D01*
X128848457Y-55486321D01*
X128830111Y-55456244D01*
X128815789Y-55418790D01*
X128805080Y-55366100D01*
X128797574Y-55290312D01*
X128792862Y-55183568D01*
X128792113Y-55136719D01*
X129666746Y-55136719D01*
X129666841Y-55157631D01*
X129697303Y-55194467D01*
X129706116Y-55203592D01*
X129805543Y-55256254D01*
X129923099Y-55253628D01*
X130035942Y-55195636D01*
X130118880Y-55126542D01*
X129876298Y-55125373D01*
X129803051Y-55125146D01*
X129708367Y-55127351D01*
X129666746Y-55136719D01*
X128792113Y-55136719D01*
X128790535Y-55038006D01*
X128790182Y-54845766D01*
X128791395Y-54598988D01*
X128793763Y-54289812D01*
X128794401Y-54212658D01*
X128796964Y-53951363D01*
X129259699Y-53951363D01*
X129277203Y-54133138D01*
X129337784Y-54295981D01*
X129396321Y-54375847D01*
X129529275Y-54488492D01*
X129686968Y-54567461D01*
X129843354Y-54597233D01*
X129907716Y-54600715D01*
X129951008Y-54624675D01*
X129960789Y-54685062D01*
X129959125Y-54720309D01*
X129941390Y-54755511D01*
X129889382Y-54770043D01*
X129785132Y-54772890D01*
X129744502Y-54773191D01*
X129657977Y-54779990D01*
X129618723Y-54801009D01*
X129609475Y-54843153D01*
X129609543Y-54848746D01*
X129618254Y-54883478D01*
X129652117Y-54902972D01*
X129726156Y-54911520D01*
X129855394Y-54913416D01*
X130101314Y-54913416D01*
X130101314Y-54749912D01*
X130102570Y-54691014D01*
X130117420Y-54608876D01*
X130160613Y-54542035D01*
X130246411Y-54462210D01*
X130296952Y-54414793D01*
X130384104Y-54313535D01*
X130439634Y-54222832D01*
X130485266Y-54049469D01*
X130477182Y-53864874D01*
X130415760Y-53697337D01*
X130309911Y-53555580D01*
X130168543Y-53448326D01*
X130000569Y-53384301D01*
X129814898Y-53372226D01*
X129620441Y-53420825D01*
X129533507Y-53452450D01*
X129480728Y-53452512D01*
X129434363Y-53420825D01*
X129391586Y-53389052D01*
X129316383Y-53368949D01*
X129269253Y-53397782D01*
X129263747Y-53461515D01*
X129313412Y-53546114D01*
X129345186Y-53588751D01*
X129347661Y-53637024D01*
X129313412Y-53714009D01*
X129286502Y-53780016D01*
X129259699Y-53951363D01*
X128796964Y-53951363D01*
X128797497Y-53896986D01*
X128801854Y-53642444D01*
X128808844Y-53441527D01*
X128819841Y-53286728D01*
X128836217Y-53170543D01*
X128859344Y-53085466D01*
X128890596Y-53023990D01*
X128931345Y-52978610D01*
X128982963Y-52941821D01*
X129046824Y-52906117D01*
X129084209Y-52888261D01*
X129139549Y-52870310D01*
X129212408Y-52857464D01*
X129313333Y-52848907D01*
X129452872Y-52843821D01*
X129641571Y-52841390D01*
X129889978Y-52840795D01*
X130141255Y-52841863D01*
X130356815Y-52846838D01*
X130520840Y-52858155D01*
X130643089Y-52878247D01*
X130733323Y-52909548D01*
X130801301Y-52954493D01*
X130856782Y-53015514D01*
X130909526Y-53095045D01*
X130910424Y-53096521D01*
X130929865Y-53132337D01*
X130945273Y-53173862D01*
X130957115Y-53229165D01*
X130965859Y-53306316D01*
X130971972Y-53413384D01*
X130975922Y-53558437D01*
X130978176Y-53749546D01*
X130979202Y-53994778D01*
X130979249Y-54049469D01*
X130979468Y-54302204D01*
G37*
D13*
X141950000Y-79600000D02*
G75*
G03*
X141950000Y-79600000I-650000J0D01*
G01*
M02*
