M48
; DRILL file {KiCad 7.0.2} date Sat Dec  2 10:50:26 2023
; FORMAT={-:-/ absolute / metric / decimal}
; #@! TF.CreationDate,2023-12-02T10:50:26+03:00
; #@! TF.GenerationSoftware,Kicad,Pcbnew,7.0.2
; #@! TF.FileFunction,Plated,1,4,PTH
FMAT,2
METRIC
; #@! TA.AperFunction,Plated,PTH,ViaDrill
T1C0.300
; #@! TA.AperFunction,Plated,PTH,ViaDrill
T2C0.400
; #@! TA.AperFunction,Plated,PTH,ComponentDrill
T3C0.600
; #@! TA.AperFunction,Plated,PTH,ComponentDrill
T4C0.800
; #@! TA.AperFunction,Plated,PTH,ComponentDrill
T5C0.850
; #@! TA.AperFunction,Plated,PTH,ComponentDrill
T6C0.950
; #@! TA.AperFunction,Plated,PTH,ComponentDrill
T7C1.000
; #@! TA.AperFunction,Plated,PTH,ComponentDrill
T8C1.200
; #@! TA.AperFunction,Plated,PTH,ComponentDrill
T9C1.300
%
G90
G05
T1
X120.75Y-86.5
X120.75Y-90.0
X120.75Y-95.25
X123.775Y-113.8
X123.925Y-105.4
X124.2Y-86.0
X124.575Y-60.2
X124.75Y-95.25
X125.0Y-90.0
X126.2Y-86.0
X127.1Y-60.2
X127.2Y-101.6
X127.5Y-98.1
X128.4Y-86.0
X129.2Y-101.6
X129.3Y-69.1
X129.44Y-116.17
X130.075Y-110.525
X130.2Y-85.6
X130.3Y-67.6
X130.5Y-90.0
X130.9Y-101.6
X132.075Y-68.6
X132.75Y-95.25
X132.9Y-102.0
X133.2Y-60.4
X133.2Y-61.4
X133.2Y-62.2
X133.2Y-63.0
X133.45Y-77.05
X134.0Y-62.2
X134.0Y-63.0
X134.6Y-118.94
X134.8Y-62.2
X134.8Y-63.0
X135.5Y-102.0
X135.6Y-62.2
X135.6Y-63.0
X136.4Y-62.2
X136.4Y-63.0
X136.6Y-90.0
X136.9Y-102.2
X137.2Y-62.2
X137.2Y-63.0
X137.6Y-77.4
X137.8Y-96.0
X138.6Y-89.4
X138.8Y-54.6
X138.8Y-55.4
X138.8Y-77.4
X138.9Y-103.0
X139.0Y-99.5
X139.3Y-96.475
X139.6Y-54.6
X139.7Y-114.35
X139.8Y-55.4
X139.8Y-56.2
X139.8Y-57.0
X139.8Y-112.8
X139.8Y-118.8
X140.0Y-117.0
X140.065Y-94.8
X140.1Y-102.7
X140.6Y-55.0
X141.0Y-78.4
X141.0Y-85.2
X141.1Y-56.6
X141.2Y-82.224
X141.2Y-83.2
X141.2Y-87.2
X141.2Y-89.4
X141.6Y-68.8
X141.6Y-69.6
X142.1Y-104.0
X142.137Y-93.537
X142.2Y-57.0
X142.2Y-57.8
X142.2Y-58.6
X142.2Y-59.5
X142.4Y-75.4
X142.8Y-69.6
X142.8Y-87.4
X142.8Y-117.0
X142.8Y-118.2
X143.0Y-91.4
X143.2Y-72.2
X143.2Y-73.4
X143.2Y-74.6
X143.2Y-82.65
X143.25Y-99.5
X143.55Y-54.2
X143.6Y-78.4
X143.6Y-87.176
X143.725Y-55.825
X143.8Y-94.8
X143.9Y-104.0
X144.0Y-69.6
X144.2Y-82.65
X144.2Y-90.0
X145.0Y-69.6
X145.0Y-72.2
X145.0Y-73.4
X145.0Y-74.8
X145.0Y-77.8
X145.2Y-61.2
X145.2Y-62.2
X145.2Y-63.2
X145.2Y-64.2
X145.2Y-65.4
X145.2Y-66.4
X145.7Y-103.1
X145.75Y-99.5
X145.75Y-104.0
X146.0Y-61.2
X146.0Y-69.6
X146.175Y-116.5
X146.2Y-85.963
X146.25Y-114.325
X146.6Y-81.0
X146.8Y-95.4
X146.95Y-98.95
X146.975Y-94.4
X147.0Y-69.6
X147.6Y-72.2
X147.6Y-80.95
X147.725Y-86.612
X147.8Y-73.4
X148.2Y-100.0
X148.4Y-69.6
X148.75Y-104.0
X148.8Y-86.2
X148.8Y-103.1
X149.0Y-70.6
X149.0Y-71.4
X149.0Y-82.2
X149.075Y-86.975
X149.35Y-98.875
X149.6Y-54.4
X149.6Y-55.4
X149.6Y-73.4
X149.6Y-74.6
X149.6Y-76.2
X149.8Y-69.6
X150.175Y-122.475
X150.2Y-61.2
X150.6Y-54.4
X150.6Y-55.4
X150.6Y-82.2
X150.658Y-98.6
X150.9Y-103.1
X151.2Y-73.4
X151.2Y-74.6
X151.2Y-76.2
X151.4Y-61.2
X151.4Y-82.2
X152.2Y-82.2
X152.2Y-98.2
X152.2Y-104.5
X152.4Y-72.0
X152.4Y-74.6
X152.4Y-76.2
X152.6Y-61.2
X153.25Y-94.75
X153.4Y-55.8
X153.6Y-72.0
X153.6Y-74.6
X153.6Y-76.2
X153.752Y-103.671
X153.8Y-61.2
X153.8Y-100.4
X154.2Y-82.0
X154.4Y-55.8
X154.8Y-61.2
X155.0Y-74.6
X155.0Y-76.2
X155.2Y-72.0
X155.25Y-90.75
X155.4Y-55.8
X155.499Y-84.701
X155.6Y-93.0
X155.65Y-87.29
X156.0Y-61.2
X156.0Y-74.6
X156.0Y-76.2
X156.0Y-103.1
X156.101Y-84.099
X156.371Y-89.429
X156.4Y-72.0
X156.5Y-91.2
X156.6Y-117.2
X156.874Y-56.0
X157.0Y-61.2
X157.4Y-65.0
X157.4Y-65.8
X157.6Y-72.0
X157.7Y-103.1
X158.0Y-58.8
X158.0Y-61.2
X158.2Y-65.8
X158.2Y-74.6
X158.2Y-76.2
X158.2Y-77.6
X158.4Y-55.8
X158.4Y-56.8
X158.4Y-57.8
X158.4Y-93.0
X158.41Y-85.4
X158.8Y-72.0
X159.0Y-61.2
X159.0Y-65.8
X159.4Y-55.8
X159.4Y-56.8
X159.4Y-57.8
X159.6Y-103.376
X159.8Y-82.0
X160.0Y-65.8
X160.0Y-74.6
X160.0Y-76.2
X160.0Y-77.6
X160.2Y-72.0
X160.35Y-85.4
X160.8Y-93.0
X160.85Y-87.9
X160.94Y-100.4
X161.2Y-82.0
X161.36Y-63.413
X161.4Y-72.0
X161.75Y-85.4
X161.784Y-61.293
X161.9Y-50.8
X161.9Y-51.8
X161.9Y-52.8
X161.9Y-53.8
X161.9Y-54.8
X161.9Y-55.8
X162.0Y-83.651
X162.2Y-62.739
X162.2Y-74.6
X162.387Y-60.768
X162.4Y-76.2
X162.4Y-82.0
X162.6Y-72.0
X162.8Y-93.0
X163.0Y-121.0
X163.0Y-124.2
X163.2Y-102.45
X163.8Y-81.904
X163.8Y-90.15
X163.9Y-50.8
X163.9Y-51.8
X163.9Y-52.8
X163.9Y-53.8
X163.9Y-54.8
X163.9Y-55.8
X163.9Y-87.9
X164.0Y-72.0
X164.0Y-74.6
X164.0Y-76.2
X164.6Y-65.6
X164.6Y-121.0
X164.625Y-122.475
X164.8Y-56.35
X164.8Y-57.4
X164.8Y-58.4
X164.8Y-59.2
X164.8Y-60.25
X164.8Y-61.2
X164.8Y-103.2
X165.5Y-65.6
X165.6Y-72.0
X165.8Y-74.6
X165.825Y-86.974
X165.9Y-50.8
X165.9Y-51.8
X166.016Y-81.916
X166.04Y-88.55
X166.1Y-61.2
X166.15Y-56.35
X166.15Y-57.4
X166.15Y-58.35
X166.15Y-59.2
X166.15Y-60.25
X166.6Y-121.0
X166.8Y-63.8
X166.8Y-64.6
X166.8Y-65.4
X166.8Y-69.8
X166.8Y-72.0
X166.8Y-93.55
X166.95Y-84.7
X167.0Y-107.0
X167.2Y-74.6
X167.2Y-97.8
X167.4Y-56.3
X167.4Y-57.3
X167.4Y-58.35
X167.4Y-59.2
X167.4Y-60.2
X167.4Y-61.2
X167.55Y-99.05
X167.6Y-63.8
X167.8Y-82.65
X167.8Y-103.2
X168.0Y-72.0
X168.096Y-87.803
X168.1Y-84.7
X168.15Y-111.525
X168.2Y-50.8
X168.2Y-51.8
X168.4Y-63.8
X169.081Y-93.129
X169.18Y-78.55
X169.2Y-63.8
X169.4Y-72.0
X169.75Y-93.9
X170.0Y-63.8
X170.0Y-64.6
X170.0Y-65.4
X170.0Y-87.8
X170.025Y-58.975
X170.4Y-69.8
X170.436Y-59.661
X170.52Y-83.09
X170.59Y-95.974
X170.6Y-72.0
X170.662Y-96.771
X171.0Y-50.8
X171.0Y-51.8
X171.0Y-113.6
X171.371Y-80.222
X171.46Y-97.35
X171.75Y-107.0
X171.8Y-69.8
X171.8Y-115.125
X171.892Y-98.069
X171.964Y-85.339
X172.0Y-61.474
X172.0Y-72.0
X172.199Y-80.242
X172.33Y-98.863
X172.4Y-67.8
X172.4Y-69.0
X172.4Y-78.6
X172.41Y-82.29
X172.896Y-58.721
X172.986Y-80.099
X173.2Y-72.0
X173.2Y-78.8
X173.4Y-56.4
X173.4Y-82.501
X173.51Y-92.0
X173.6Y-50.8
X173.6Y-52.6
X173.6Y-54.2
X173.787Y-91.191
X173.9Y-90.399
X174.0Y-61.2
X174.0Y-67.0
X174.0Y-68.2
X174.0Y-69.2
X174.0Y-70.2
X174.0Y-71.4
X174.0Y-72.4
X174.0Y-73.4
X174.2Y-101.0
X174.331Y-94.524
X174.6Y-79.0
X174.6Y-98.6
X174.8Y-93.7
X175.004Y-83.129
X175.025Y-64.2
X175.063Y-87.337
X175.123Y-91.47
X175.2Y-67.0
X175.2Y-68.2
X175.2Y-69.2
X175.2Y-70.2
X175.2Y-71.0
X175.2Y-71.8
X175.2Y-103.2
X175.4Y-100.2
X175.419Y-84.969
X175.475Y-79.175
X175.557Y-83.705
X175.6Y-58.75
X175.783Y-87.683
X175.8Y-73.0
X175.9Y-78.299
X176.0Y-94.501
X176.1Y-91.528
X176.15Y-98.989
X176.175Y-86.225
X176.35Y-83.6
X176.4Y-71.4
X176.4Y-84.4
X176.575Y-79.175
X176.6Y-50.8
X176.6Y-52.6
X176.6Y-54.9
X176.687Y-87.8
X176.85Y-94.501
X176.86Y-99.43
X177.0Y-85.5
X177.0Y-107.0
X177.0Y-109.4
X177.1Y-83.102
X177.2Y-100.8
X177.2Y-103.2
X177.4Y-73.001
X177.4Y-80.25
X177.4Y-84.8
X177.4Y-86.2
X177.69Y-99.389
X177.764Y-78.299
X177.8Y-58.4
X177.8Y-59.2
X177.8Y-60.0
X177.8Y-60.8
X177.9Y-94.5
X178.4Y-61.4
X178.4Y-62.2
X178.4Y-63.0
X178.4Y-63.8
X178.4Y-64.6
X178.4Y-65.4
X178.427Y-99.819
X178.6Y-58.4
X178.8Y-72.894
X178.9Y-66.7
X178.9Y-67.4
X179.101Y-83.199
X179.2Y-50.8
X179.225Y-93.525
X179.226Y-99.789
X179.4Y-58.4
X179.8Y-78.4
X179.8Y-103.6
X179.8Y-109.4
X179.828Y-94.051
X179.9Y-83.151
X179.9Y-66.7
X179.9Y-67.4
X180.059Y-84.293
X180.077Y-87.41
X180.1Y-85.1
X180.101Y-86.515
X180.2Y-58.4
X180.2Y-72.0
X180.7Y-66.7
X180.7Y-78.8
X180.8Y-52.4
X180.8Y-69.6
X180.8Y-70.6
X180.8Y-89.0
X180.8Y-114.4
X181.0Y-58.4
X181.0Y-82.2
X181.325Y-92.775
X181.352Y-94.851
X181.393Y-90.364
X181.397Y-103.393
X181.4Y-66.7
X181.4Y-104.2
X181.5Y-79.9
X181.543Y-91.149
X181.6Y-55.4
X181.6Y-80.8
X181.79Y-70.59
X181.8Y-58.4
X181.9Y-69.7
X182.15Y-87.3
X182.151Y-94.851
X182.2Y-50.8
X182.273Y-85.257
X182.5Y-93.599
X182.6Y-58.4
X182.6Y-81.2
X182.6Y-82.2
X182.6Y-102.6
X183.124Y-94.099
X183.4Y-64.6
X183.4Y-68.427
X183.5Y-59.4
X183.5Y-61.0
X183.5Y-62.2
X183.5Y-63.4
X183.6Y-58.4
X184.225Y-88.3
X184.274Y-70.2
X184.4Y-58.4
X184.4Y-89.6
X184.4Y-98.8
X184.493Y-72.893
X184.5Y-91.2
X184.5Y-105.0
X184.6Y-71.2
X184.8Y-72.0
X185.0Y-79.6
X185.0Y-81.2
X185.0Y-82.2
X185.2Y-54.1
X185.2Y-58.4
X185.2Y-86.499
X185.2Y-107.4
X185.222Y-85.4
X185.3Y-106.0
X185.4Y-71.6
X185.4Y-108.8
X185.4Y-110.6
X185.4Y-112.2
X185.4Y-114.4
X185.6Y-98.8
X185.8Y-50.8
X186.0Y-58.4
X186.0Y-87.4
X186.1Y-104.6
X186.2Y-69.6
X186.27Y-76.85
X186.577Y-89.377
X186.6Y-65.6
X186.6Y-67.675
X186.6Y-69.0
X186.8Y-58.4
X186.8Y-79.6
X186.904Y-90.904
X187.161Y-83.818
X187.4Y-80.2
X187.6Y-58.4
X187.6Y-65.6
X187.6Y-75.6
X187.717Y-74.579
X187.8Y-102.075
X188.0Y-70.6
X188.2Y-79.325
X188.4Y-58.4
X188.4Y-65.6
X189.0Y-50.8
X189.0Y-80.6
X189.0Y-83.0
X189.2Y-58.4
X189.2Y-59.2
X189.2Y-60.0
X189.2Y-60.8
X189.2Y-61.6
X189.2Y-62.4
X189.2Y-63.2
X189.2Y-64.0
X189.2Y-64.8
X189.2Y-65.6
X189.2Y-70.2
X189.2Y-71.0
X189.2Y-89.4
X189.6Y-102.8
X189.602Y-86.44
X189.693Y-99.693
X190.0Y-70.2
X190.0Y-71.0
X190.0Y-97.8
X190.0Y-114.4
X190.2Y-58.4
X190.2Y-59.2
X190.2Y-60.0
X190.2Y-60.8
X190.2Y-61.6
X190.2Y-62.4
X190.2Y-63.2
X190.2Y-64.0
X190.2Y-64.8
X190.2Y-65.6
X190.203Y-85.839
X190.4Y-76.8
X190.4Y-84.4
X190.4Y-104.8
X190.4Y-108.4
X190.4Y-110.6
X190.4Y-112.2
X190.5Y-54.0
X190.8Y-70.2
X190.8Y-71.0
X191.0Y-83.0
X191.0Y-101.75
X191.125Y-80.9
X191.2Y-58.4
X191.2Y-59.2
X191.2Y-60.0
X191.2Y-60.8
X191.2Y-61.6
X191.2Y-62.4
X191.2Y-63.2
X191.2Y-64.0
X191.2Y-64.8
X191.2Y-65.6
X191.2Y-124.0
X191.224Y-88.6
X191.6Y-70.2
X191.6Y-71.0
X191.6Y-98.4
X192.2Y-50.8
X192.2Y-53.2
X192.2Y-76.85
X192.2Y-87.4
X192.4Y-70.2
X192.4Y-90.2
X192.4Y-103.975
X192.6Y-71.492
X192.9Y-57.4
X192.95Y-123.95
X193.2Y-70.2
X193.6Y-72.2
X193.798Y-76.754
X193.8Y-98.4
X194.0Y-70.2
X194.2Y-57.3
X194.4Y-63.6
X194.4Y-64.5
X194.4Y-65.3
X194.4Y-66.1
X194.5Y-108.5
X195.0Y-56.5
X195.2Y-95.0
X195.445Y-79.645
X195.6Y-76.4
X195.75Y-101.75
X196.15Y-96.125
X196.175Y-78.45
X196.2Y-98.4
X196.344Y-82.296
X196.4Y-94.8
X196.6Y-84.6
X196.8Y-50.8
X196.8Y-52.4
X197.24Y-71.8
X197.4Y-57.0
X197.4Y-58.6
X197.6Y-61.8
X197.6Y-63.8
X197.6Y-65.8
X197.641Y-70.389
X197.8Y-84.6
X198.0Y-93.0
X198.2Y-82.2
X198.427Y-69.876
X198.76Y-77.253
X198.95Y-59.7
X199.0Y-79.8
X199.0Y-82.4
X199.05Y-61.0
X199.25Y-69.9
X199.4Y-84.6
X199.6Y-91.8
X199.6Y-93.0
X199.75Y-108.5
X199.8Y-50.8
X199.8Y-63.8
X200.0Y-77.2
X200.2Y-81.8
X200.2Y-88.4
X200.4Y-84.4
X200.4Y-85.6
X200.52Y-86.799
X200.6Y-56.2
X200.6Y-57.8
X200.6Y-80.8
X201.4Y-58.6
X201.4Y-78.605
X201.6Y-98.6
X201.75Y-57.8
X201.825Y-73.24
X202.075Y-79.443
X202.4Y-66.4
X202.4Y-86.0
X202.449Y-74.721
X202.55Y-101.2
X202.6Y-88.764
X202.8Y-81.6
X203.0Y-89.525
X203.4Y-82.486
X203.6Y-50.8
X203.6Y-73.0
X203.6Y-74.0
X203.736Y-86.0
X203.775Y-81.4
X203.8Y-77.2
X204.0Y-57.8
X204.0Y-59.0
X204.0Y-78.45
X204.6Y-58.6
X204.65Y-64.025
X204.725Y-123.85
X204.8Y-85.6
X205.0Y-78.45
X205.125Y-108.5
X205.196Y-73.604
X205.2Y-81.2
X205.4Y-69.2
X205.4Y-70.4
X205.4Y-86.6
X205.4Y-87.4
X205.4Y-89.8
X205.6Y-83.05
X205.8Y-64.025
X206.2Y-71.4
X206.26Y-80.34
X206.424Y-76.424
X207.0Y-55.65
X207.2Y-56.6
X207.2Y-57.6
X207.4Y-50.8
X207.6Y-79.8
X207.975Y-102.45
X208.25Y-62.725
X208.25Y-64.025
X208.25Y-65.5
X208.4Y-68.8
X208.4Y-70.2
X208.8Y-85.0
X209.4Y-63.6
X209.4Y-64.7
X209.6Y-73.4
X209.6Y-83.2
X209.624Y-85.024
X209.8Y-77.2
X209.8Y-79.8
X209.89Y-60.8
X210.2Y-69.8
X210.8Y-73.4
X211.0Y-52.8
X211.4Y-50.8
X211.6Y-69.8
X211.6Y-77.0
X211.8Y-57.8
X211.9Y-52.8
X212.0Y-75.0
X212.0Y-91.25
X212.375Y-123.85
X212.4Y-79.8
X212.8Y-52.8
X212.8Y-54.8
X212.8Y-56.2
X213.05Y-102.45
X214.0Y-108.45
X214.2Y-54.8
X214.2Y-56.2
X214.75Y-91.25
X214.8Y-89.266
X216.0Y-54.8
X216.0Y-56.2
X216.2Y-50.8
X216.2Y-68.2
X216.8Y-72.4
X217.8Y-54.8
X217.8Y-56.2
X218.0Y-76.2
X218.0Y-78.4
X218.2Y-80.4
X218.658Y-88.458
X219.2Y-63.8
X219.2Y-75.6
X219.225Y-108.425
X219.25Y-90.75
X219.25Y-95.25
X219.25Y-102.5
X219.25Y-107.25
X219.25Y-112.5
X219.5Y-74.0
X221.0Y-80.4
X221.07Y-77.98
X221.16Y-83.9
X223.4Y-50.8
X223.5Y-102.5
X227.925Y-53.525
X227.925Y-57.375
X228.0Y-55.6
X228.0Y-63.0
X228.2Y-50.8
X228.25Y-102.5
X228.525Y-83.775
X228.525Y-90.1
X228.6Y-80.6
X228.6Y-88.2
X228.65Y-76.4
X229.2Y-92.4
X229.4Y-123.85
X231.4Y-90.0
X233.4Y-50.8
X233.5Y-102.5
X235.0Y-92.4
X237.6Y-92.4
X237.9Y-110.8
X238.0Y-102.5
X238.0Y-107.25
X239.175Y-90.15
X239.4Y-57.4
X239.4Y-61.8
X239.4Y-66.2
X239.8Y-68.8
X240.0Y-74.6
X240.0Y-83.8
X240.0Y-93.2
X240.0Y-99.2
X242.0Y-123.575
X246.6Y-57.4
X248.75Y-121.1
X248.8Y-92.6
T2
X119.95Y-122.8
X119.95Y-124.0
X119.95Y-125.5
X120.0Y-57.0
X120.0Y-120.2
X120.0Y-121.6
X121.5Y-58.0
X121.5Y-60.0
X124.0Y-119.5
X124.5Y-57.0
X125.0Y-109.0
X125.0Y-113.0
X125.4Y-118.4
X125.5Y-79.0
X125.5Y-80.5
X125.5Y-119.5
X126.9Y-118.4
X127.0Y-119.5
X127.5Y-95.5
X127.5Y-105.5
X127.5Y-109.0
X127.5Y-113.0
X128.0Y-90.0
X128.4Y-118.4
X128.5Y-119.5
X129.4Y-118.4
X129.5Y-79.0
X129.5Y-80.5
X129.5Y-119.5
X130.0Y-109.0
X130.0Y-113.0
X130.25Y-105.5
X130.9Y-118.4
X131.0Y-119.5
X132.4Y-118.4
X132.5Y-119.5
X133.396Y-112.699
X133.4Y-118.4
X133.5Y-119.5
X133.9Y-107.2
X133.975Y-105.28
X134.25Y-109.05
X134.5Y-90.0
X135.5Y-96.0
X136.4Y-103.6
X138.0Y-97.275
X138.5Y-120.5
X138.5Y-122.5
X138.5Y-124.0
X138.5Y-125.5
X138.5Y-127.0
X139.75Y-64.0
X139.8Y-107.3
X140.0Y-104.3
X140.5Y-90.0
X140.75Y-64.0
X141.75Y-64.0
X142.75Y-61.75
X142.75Y-63.0
X142.75Y-64.0
X142.85Y-85.35
X143.75Y-61.75
X143.75Y-63.0
X143.75Y-64.0
X144.8Y-108.6
X149.174Y-90.048
X150.0Y-125.5
X152.5Y-106.0
X152.5Y-122.5
X152.5Y-125.5
X153.6Y-52.0
X153.6Y-52.9
X153.7Y-53.9
X153.8Y-50.8
X154.8Y-53.9
X154.9Y-50.8
X155.9Y-50.8
X155.9Y-53.9
X156.0Y-106.0
X156.9Y-50.8
X157.0Y-53.9
X157.9Y-50.8
X158.0Y-52.1
X158.0Y-53.1
X158.0Y-54.0
X161.5Y-91.0
X163.0Y-122.5
X163.0Y-125.5
X164.75Y-107.0
X166.0Y-125.5
X168.695Y-89.905
X170.867Y-98.058
X171.2Y-101.9
X179.75Y-107.0
X182.6Y-79.8
X185.568Y-93.724
X186.0Y-124.0
X190.6Y-79.6
X191.6Y-84.6
X193.0Y-101.5
X193.99Y-82.2
X196.0Y-124.0
X196.5Y-106.0
X198.0Y-101.5
X200.0Y-106.0
X201.0Y-124.0
X202.1Y-61.9
X203.0Y-64.0
X203.2Y-94.6
X207.0Y-124.0
X207.6Y-89.4
X208.7Y-71.599
X209.5Y-97.25
X210.5Y-102.5
X210.7Y-85.2
X211.75Y-97.25
X211.8Y-89.165
X213.75Y-106.25
X214.75Y-102.5
X214.9Y-85.3
X217.5Y-124.0
X219.0Y-105.0
X221.1Y-76.3
X221.5Y-124.0
X226.5Y-90.0
X227.0Y-96.0
X227.0Y-124.0
X227.5Y-69.9
X228.5Y-105.0
X228.5Y-107.0
X228.5Y-109.5
X231.6Y-70.0
X232.5Y-98.0
X233.0Y-115.0
X233.0Y-118.0
X233.5Y-105.0
X233.5Y-107.0
X233.5Y-109.5
X233.5Y-124.0
X235.0Y-90.0
X236.6Y-58.8
X237.0Y-98.0
X237.5Y-90.0
X238.0Y-105.0
X238.0Y-115.0
X238.0Y-117.5
X238.0Y-124.0
X239.0Y-51.5
X239.0Y-98.0
X240.0Y-85.5
X240.0Y-87.5
X241.0Y-57.0
X241.0Y-59.0
X241.5Y-51.5
X242.0Y-120.5
X242.0Y-127.5
X243.5Y-59.0
X243.5Y-72.5
X243.5Y-75.5
X243.5Y-83.0
X243.5Y-85.5
X245.0Y-120.5
X246.5Y-59.0
X248.5Y-59.0
X248.9Y-119.3
X248.95Y-115.5
X249.0Y-110.8
X249.1Y-99.1
T4
X166.585Y-54.0
X169.125Y-54.0
X171.665Y-54.0
T5
X123.487Y-75.175
X123.487Y-80.175
T6
X214.8Y-70.3
X214.8Y-72.8
X214.8Y-75.3
X214.8Y-77.8
X223.475Y-77.925
X223.475Y-80.425
X223.475Y-82.925
X223.475Y-85.425
X223.5Y-64.0
X223.5Y-66.5
X223.5Y-69.0
X223.5Y-71.5
X234.4Y-78.1
X234.4Y-80.6
X234.4Y-83.1
X234.4Y-85.6
X234.475Y-64.025
X234.475Y-66.525
X234.475Y-69.025
X234.475Y-71.525
X245.3Y-91.7
X245.3Y-94.2
X245.3Y-96.7
X245.3Y-99.2
X245.35Y-77.95
X245.35Y-80.45
X245.35Y-82.95
X245.35Y-85.45
X245.425Y-64.075
X245.425Y-66.575
X245.425Y-69.075
X245.425Y-71.575
T7
X148.56Y-111.26
X148.56Y-113.8
X148.56Y-116.34
X150.5Y-85.9
X150.5Y-88.44
X150.5Y-90.98
X150.5Y-93.52
X151.1Y-111.26
X151.1Y-113.8
X151.1Y-116.34
X155.57Y-96.06
X155.57Y-98.6
X158.11Y-96.06
X158.11Y-98.6
X160.65Y-96.06
X160.65Y-98.6
X162.31Y-111.26
X162.31Y-113.8
X162.31Y-116.34
X163.19Y-96.06
X163.19Y-98.6
X164.85Y-111.26
X164.85Y-113.8
X164.85Y-116.34
X165.73Y-96.06
X165.73Y-98.6
X174.558Y-111.375
X174.558Y-113.915
X174.558Y-116.455
X177.097Y-111.375
X177.097Y-113.915
X177.097Y-116.455
T8
X142.55Y-121.9
X146.05Y-121.9
X156.15Y-122.025
X159.65Y-122.025
X170.2Y-122.0
X173.7Y-122.0
X180.1Y-122.1
X183.6Y-122.1
X187.1Y-122.1
X221.4Y-56.025
X224.9Y-56.025
X231.25Y-56.1
X234.75Y-56.1
X243.15Y-104.825
X243.15Y-108.325
X243.2Y-113.65
X243.2Y-117.15
T9
X192.4Y-96.037
X192.4Y-106.197
X192.4Y-113.817
X193.5Y-120.8
X198.5Y-120.8
X200.02Y-96.037
X200.02Y-111.277
X203.5Y-120.8
X206.9Y-96.025
X206.9Y-106.185
X206.9Y-113.805
X209.8Y-120.787
X214.52Y-96.025
X214.52Y-111.265
X214.8Y-120.787
X219.8Y-120.787
X222.29Y-95.9
X222.29Y-106.06
X222.29Y-113.68
X226.0Y-120.662
X229.91Y-95.9
X229.91Y-111.14
X231.0Y-120.662
X236.0Y-120.662
T3
G00X120.438Y-74.175
M15
G01X121.137Y-74.175
M16
G05
G00X121.137Y-81.175
M15
G01X120.438Y-81.175
M16
G05
T4
G00X122.4Y-62.7
M15
G01X122.4Y-64.9
M16
G05
G00X124.1Y-68.6
M15
G01X126.3Y-68.6
M16
G05
G00X128.2Y-62.5
M15
G01X128.2Y-65.1
M16
G05
T0
M30
